/* XPM */
static char * bbbike_splash[] = {
"196 67 5 1",
". c #000000",
"# c #0000c8",
"a c #8899ff",
"b c #0077cc",
"c c #f8fcf8",
"cccccccccccccccccccccccccccccccccccccccccccccccccccccccccccccccccccccccccccccccccccccccccccccccccccccccccccccccccccccccccccccccccccccccccccccccccccccccccccccccccccccccccccccccccccccccccccccccccccc",
"cccccccccccccccccccccccccccccccccccccccccccccccccccccccccccccccccccccccccccccccccccccccccccccccccccccccccccccccccccccccccccccccccccccccccccccccccccccccccccccccccccccccccccccccccccccccccccccccccccc",
"cccccccccccccccccccccccccccccccccccccccccccccccccccccccccccccccccccccccccccccccccccccccccccccccccccccccccccccccccccccccccccccccccccccccccccccccccccccccccccccccccccccccccccccccccccccccccccccccccccc",
"cccccccccccccccccccccccccccccccccccccccccccccccccccccccccccccccccccccccccccccccccccccccccccccccccccccccccccccccccccccccccccccccccccccccccccccccccccccccccccccccccccccccccccccccccccccccccccccccccccc",
"cccccccccccccccccccccccccccccccccccccccccccccccccccccccccccccccccccccccccccccccccccccccccccccccccccccccccccccccccccccccccccccccccccccccccccccccccccccccccccccccccccccccccccccccccccccccccccccccccccc",
"cccccccccccccccccccccccccccccccccccccccccccccccccccccccccccccccccccccccccccccccccccccccccccccccccccccccccccccccccccccccccccccccccccccccccccccccccccccccccccccccccccccccccccccccccccccccccccccccccccc",
"cccccccccccccccccccccccccccccccccccccccccccccccccccccccccccccccccccccccccccccccccccccccccccccccccccccccccccccccccccccccccccccccccccccccccccccccccccccccccccccccccccccccccccccccccccccccccccccccccccc",
"cccccccccccccccccccccccccccccccccccccccccccccccccccccccccccccccccccccccccccccccccccccccccccccccccccccccccccccccccccccccccccccccccccccccccccccccccccccccccccccccccccccccccccccccccccccccccccccccccccc",
"cccccccccccccccccccccccccccccccccccccccccccc##cc##cccc##cccccccccc##cccccccccc##cccc##c##ccccccccccccccccccccccccccccccccccccccccccccccccccccccccccccccccccccccccccccccccccccccccccccccccccccccccccc",
"cccccccccccccccccccccccccccccccccccccccccccc##cc##cccc##cccccccccc##cccccccccc##ccccccc##ccccccccccccccccccccccccccccccccccccccccccccccccccccccccccccccccccccccccccccccccccccccccccccccccccccccccccc",
"cccccccccccccccccccccccccccccccccccccccccccc###c##c##c####ccc###cc####cc##c##c####cc##c##c##cc###ccccccccccccccccccccccccccccccccccccccccccccccccccccccccccccccccccccccccccccccccccccccccccccccccccc",
"cccccccccccccccccccccccccccccccccccccccccccc##cc####cc##c##c#cc##c##c##c##c##c##c##c##c####cc##c##cccccccccccccccccccccccccccccccccccccccccccccccccccccccccccccccccccccccccccccccccccccccccccccccccc",
"cccccccccccccccccccccccccccccccccccccccccccc##cc###ccc##cc#cc####c##cc#c##c##c##cc#c##c###ccc#####cccccccccccccccccccccccccccccccccccccccccccccccccccccccccccccccccccccccccccccccccccccccccccccccccc",
"cccccccccccccccccccccccccccccccccccccccccccc##cc####cc##cc#c##c##c##cc#c##c##c##cc#c##c####cc##ccccccccccccccccccccccccccccccccccccccccccccccccccccccccccccccccccccccccccccccccccccccccccccccccccccc",
"cccccccccccccccccccccccccccccccccccccccccccc##cc##c##c##c##c##c##c##c##cc####c##c##c##c##c##c##c##cccccccccccccccccccccccccccccccccccccccccccccccccccccccccccccccccccccccccccccccccccccccccccccccccc",
"ccccccccccccccccccccccccccccccccccccccccccccc##c##cc######ccc##c######cccc##cc####cc##c##cc##c###ccccccccccccccccccccccccccccccccccccccccccccccccccccccccccccccccccccccccccccaaaaccccccccccccccccccc",
"cccccccccccccccccccccccccccccccccccccccccccccccccccccccccccccccccccccccccc##ccccccccccccccccccccccccccccccccccccccccccccccccccccccccccccccccccccccccccccccccccccccccccccccccabbbbacccccccccccccccccc",
"ccccccccccccccccccccccccccccccccccccccccccccccccccccccccccccccccccccccccc##ccccccccccccccccccccccccccccccccccccccccccccccccccccccccccccccccccccccccccccccccccccccccccccccccabbbbbbaccccccccccccccccc",
"ccccccccccccccccccccccccccccccccccccccccccccccccccccccccccccccccccccccccccccccccccccccccccccccccccccccccccccccccccccccccccccccccccccccccccccccccccccccccccccccccccccccccccabbbaaaacccccccccccccccccc",
"cccccccccccccccccccccccccccccccccccccccccccccccccccccccccccccccccccccccccccccccccccccccccccccccccccccccccccccccccccccccccccccccccccccccccccccccccccccccccccccccccccccccccabbbacccccccccccccccccccccc",
"ccccccccccccccccccccccccccccccccccccccccccccccccccccccccccccccccccccccccccccccccccccccccccccccccccccccccccccccccccccccccccccccccccccccccccccccccccccccccccccccccccccccccabbbaccccccccccccccccccccccc",
"cccccccccccccccccccccccccccccccccccccccccccccccccccccccccccccccccccccccccccccccccccccccccccccccccccccccccccccccccccccccccccccccccccccccccccccccccccccccccccccccccccccccabbbaccccccaccccccccccccccccc",
"ccccccccccccccccccccccccccccccccccccccccccccccccccccccccccccccccccccccccccccccccccccccccccccccccccccccccccccccccccccccccccccccccccccccccccccccccccccccccccccccccccccccabbbaccccccabacccccccccccccccc",
"cccccccccccccccccccccccccccccccccccccccccccccccccccccccccccccccccccccccccccccccccccccccccccccccccccccccccccccccccccccccccccccccccccccccccccccccccccccccccccccccccccccabbbaccccccabbacccccccccccccccc",
"cccccccccccccccccccc#ccccccccccccccccccc#c#cccccccccccccccccccccccccccc#ccccccccccccccc##c#ccccccccccccccccccc#ccc#cccc#ccccccccccccccccccccccccccccccccccccccccccccabbbacccccccabbacccccccccccccccc",
"ccccccccccc#ccccccc#cccccccccccccccccccc#cccccccccccccccccccccccccccccc#cccccccccccccc#ccccccccccc###ccccccccc#cc#ccccc#cccccccccccccccccccccccccccccccccccccccccccabbbaccccccccabbacccccccccccccccc",
"ccccccccccc#c###cc###c##cc#c#####cc##cc####cc##cc###ccc##cc##c#cc#c##c###c#cc####cccc####c#c#c#ccc#cc#c##ccc###c#####cc###cc#c#c#cc#c#ccccccccccccccccccccccccccccabbbacccabacccabbacccccccccccccccc",
"ccccccccccc#c#cc#cc#c#cc#c##c#c#c#ccc#cc#c#c#cc#c#cc#c#ccc#ccc#cc##cccc#c#c#c#c#c#cccc#c#c#c##cccc#cc#ccc#c#cc#cc#ccc#c#cc#c##c#c#c##ccccccccccccccccccccccccccccabbbbacccbbbaccabbacccccccccccccccc",
"ccccccccccc#c#cc#cc#c#cc#c#cc#c#c#c###cc#c#c#cc#c#cc#cc##cc##c#cc#c##cc#c###c#c#c#cccc#c#c#c#ccccc###cc###c#cc#cc#c###c#cc#c#cc###c#cccccccccccccccccccccccccccccaaabbacccabbbaaabbaaaaacccccccccccc",
"ccccccccccc#c#cc#cc#c#cc#c#cc#c#c#c#c#cc#c#c#cc#c#cc#ccc#ccc#cc##ccc#cc#c#ccc#c#c#cccc#c#c#c#ccccc#cc#c#c#c#cc#cc#c#c#c#cc#c#cc#ccc#ccccccccccccccccccccccccccccc..abbbacccabbbbbbbbbbbbaccccccccccc",
"ccccccccccc#c#cc#cc#cc##cc#cc#c#c#c##c#c#c#cc##cc#cc#c##cc##ccc#cc##ccc#cc##c#c#c#cccc#cc##c#ccccc#cc#c##c#c###cc#c##c##cc#c#ccc##c#ccccccccccccccccccccccccccccc...abbbaccabbbbbbbbbbbbbacccccccccc",
"cccccccccccccccccccccccccccccccccccccccccccccccccccccccccccccc#cccccccccccccccccccccccccccccccccccccccccccccccccccccccccccccccccccccccccccccccccccccccccccccccccc...abbbaccabbaaabbaaaaaaccccccccccc",
"cccccccccccccccccccccccccccccccccccccccccccccccccccccccccccccccccccccccccccccccccccccccccccccccccccccccccccccccccccccccccccccccccccccccccccccccccccccccccccc......cccabbbacabbacabbacccccccccccccccc",
"cccccccccccccccccccccccccccccccccccccccccccccccccccccccccccccccccccccccccccccccccccccccccccccccccccccccccccccccccccccccccccccccccccccccccccccccccccccccccccccccc.cccccabbacabbacabbacccccccccccccccc",
"ccccccccccccccccccccccc#ccccccccccccccccccccc#c#cccccccccccccccccccc#cccccccccccccccccccccccc#cccccccccc#ccccccccccccccccccccccccccccccccccccccccccccccccccccccc.cccccabbacabbacabbacccccccccccccccc",
"ccccccccccccccccccccccccccccccccc###ccccccccc#cccccccccccccccccccccc#cccc###ccccccccccccccccc#cccccccccc#cccccccccccccccccccccccccccccccccccccccccccccccccccccc.ccccccabbacabbacabbacccccccccccccccc",
"ccccccccccccccccccccccc#c###ccccc#cc#cc#cc#c##c#c###cccc#c#c###ccc###cccc#cc#c#c###cc###ccc###cc#cc###cc###cc#c#c#c#c###ccccccccccccccccccccccccccccccccccccccc.cccccabbbacabbacabbacccccccccccccccc",
"ccccccccccccccccccccccc#c#cc#cccc###cc#c#c##c#c#c#cc#ccc#c#c#cc#c#cc#cccc###cc##ccc#c#cc#c#cc#c#c#c#cc#c#cc#c#c#c##c#cc#cccccccccccccccccccccccccccccccc.....c.cccccabbbac.abbacabba.ccccccccccccccc",
"ccccccccccccccccccccccc#c#cc#cccc#cc#c###c#cc#c#c#cc#ccc#c#c#cc#c#cc#cccc#cc#c#cc###c#cc#c#cc#c###c#cc#c#cc#c#c#c#cc#cc#cccccccccccccccccccccccccccccc..ccccc..ccccabbbacccabba.abbac..ccccccccccccc",
"ccccccccccccccccccccccc#c#cc#cccc#cc#c#ccc#cc#c#c#cc#ccc#c#c#cc#c#cc#cccc#cc#c#cc#c#c#cc#c#cc#c#ccc#cc#c#cc#c#c#c#ccc###ccccccccccccccccccccccccccccc.ccccccc.c.ccabbbaccccabbacabbaccc.cccccccccccc",
"ccccccccccccccccccccccc#c#cc#cccc###ccc##c#cc#c#c#cc#cccc##c#cc#cc###cccc###cc#cc##c##cc#cc###cc##c#cc#c###ccc##c#ccccc#cccccccccccccccccccccccccccc.cccccccc.cc.abbbacccccaaaacabbacccc.ccccccccccc",
"ccccccccccccccccccccccccccccccccccccccccccccccccccccccccccccccccccccccccccccccccccccccccccccccccccccccccccccccccccccc##cccccccccccccccccccccccccccc.cccccccc.ccaabbbacccccc.cc.cabbaccccc.cccccccccc",
"ccccccccccccccccccccccccccccccccccccccccccccccccccccccccccccccccccccccccccccccccccccccccccccccccccccccccccccccccccccccccccccccccccccccccccccccccccc.cccccccc.cabbbbaccccccc.ccc.abbaccccc.cccccccccc",
"cccccccccccccccccccccccccccccccccccccccccccccccccccccccccccccccccccccccccccccccccccccccccccccccccccccccccccccccccccccccccccccccccccccccccccccccccc.cccccccc.aabbbbaccccccc.cccccabbacccccc.ccccccccc",
"cccccccccccccccccccccccccccccccccccccccccccccccccccccccccccccccccccccccccccccccccccccccccccccccccccccccccccccccccccccccccccccccccccccccccccccccccc.ccccccccabbbbaa.ccccccc.cccccabbacccccc.ccccccccc",
"cccccccccccccccccccccccccccccccccccccccccccccccccccccccccccccccccccccccccccccccccccccccccccccccccccccccccccccccccccccccccccccccccccccccccccccccccc.ccccccc.abbaa................aaaacccccc.ccccccccc",
"cccccccccccccccccccccccccccccccccccccccccccccccccccccccccccccccccccccccccccccccccccccccccccccccccccccccccccccccccccccccccccccccccccccccccccccccccc.ccccccccaaacccc.ccccccc.ccccccccccccccc.ccccccccc",
"cccccccccccccccccccccccccccccccccccccccccccccccccccccccccccccccccccccccccccccccccccccccccccccccccccccccccccccccccccccccccccccccccccccccccccccccccc.ccccccccccccccc.ccccccc.ccccccccccccccc.ccccccccc",
"ccccccccccccccccccccccccccccccccccccccccccccccccccccccccccccccccccccccccccccccccccccccccccccccccccccccccccccccccccccccccccccccccccccccccccccccccccc.ccccccccccccc.ccccccccc.ccccccccccccc.cccccccccc",
"ccccccccccccccccccccccccccccccccccccccccccccccccccccccccccccccccccccccccccccccccccccccccccccccccccccccccccccccccccccccccccccccccccccccccccccccccccc.ccccccccccccc.ccccccccc.ccccccccccccc.cccccccccc",
"cccccccccccccccccccccccccccccccccccccccccccccccccccccccccccccccccccccccccccccccccccccccccccccccccccccccccccccccccccccccccccccccccccccccccccccccccccc.ccccccccccc.ccccccccccc.ccccccccccc.ccccccccccc",
"cccccccccccccccccccccccccccccccccccccccccccccc#ccccccccccccccccccccccccccccccccccccccc#cccccccccc#ccccccccccccccccccccccccccccccccccccccccccccccccccc.ccccccccc.ccccccccccccc.ccccccccc.cccccccccccc",
"cccccccccccccccccccccccccccccccccccccccccccccc#ccccccccccccccccccccc#####cccccccccccccccccccccccc#cccccccccccccccccccccccccccccccccccccccccccccccccccc..ccccc..ccccccccccccccc..ccccc..ccccccccccccc",
"ccccccccccccccccccccccccccccccccccccccccccc##c#c##cc#cc#cc#cc###ccc#ccccc#c#c#c#cc###c#cc##cccc###cc#ccccccccccccccccccccccccccccccccccccccccccccccccccc.....ccccccccccccccccccc.....ccccccccccccccc",
"cccccccccccccccccccccccccccccccccccccccccc#ccc#ccc#c#cc#c#c#c#cc#c#cc##cc#c##c#c#ccc#c#c#ccccc#cc#c#c#cccccccccccccccccccccccccccccccccccccccccccccccccccccccccccccccccccccccccccccccccccccccccccccc",
"ccccccccccccccccccccccccccccccccccccccccccc##c#c###c#cc#c###c#cc#c#c#cc#c#c#cc###cc#cc#c#ccccc#cc#c###cccccccccccccccccccccccccccccccccccccccccccccccccccccccccccccccccccccccccccccccccccccccccccccc",
"cccccccccccccccccccccccccccccccccccccccccccc#c#c#c#c#c#cc#ccc#cc#c#cc####cc#cc#ccc#ccc#c#ccccc#cc#c#cccccccccccccccccccccccccccccccccccccccccccccccccccccccccccccccccccccccccccccccccccccccccccccccc",
"cccccccccccccccccccccccccccccccccccccccccc##cc#c##c#c#cccc##c#cc#c#cccccccc#ccc##c###c#cc##c#cc###cc##cccccccccccccccccccccccccccccccccccccccccccccccccccccccccccccccccccccccccccccccccccccccccccccc",
"ccccccccccccccccccccccccccccccccccccccccccccccccccccccccccccccccccc####ccccccccccccccccccccccccccccccccccccccccccccccccccccccccccccccccccccccccccccccccccccccccccccccccccccccccccccccccccccccccccccc",
"cccccccccccccccccccccccccccccccccccccccccccccccccccccccccccccccccccccccccccccccccccccccccccccccccccccccccccccccccccccccccccccccccccccccccccccccccccccccccccccccccccccccccccccccccccccccccccccccccccc",
"cccccccccccccccccccccccccccccccccccccccccccccccccccccccccccccccccccccccccccccccccccccccccccccccccccccccccccccccccccccccccccccccccccccccccccccccccccccccccccccccccccccccccccccccccccccccccccccccccccc",
"cccccccccccccccccccccccccccccccccccccccccccccccccccccccccccccccccccccccccccccccccccccccccccccccccccccccccccccccccccccccccccccccccccccccccccccccccccccccccccccccccccccccccccccccccccccccccccccccccccc",
"cccccccccccccccccccccccccccccccccccccccccccccccccccccccccccccccccccccccccccccccccccccccccccccccccccccccccccccccccccccccccccccccccccccccccccccccccccccccccccccccccccccccccccccccccccccccccccccccccccc",
"cccccccccccccccccccccccccccccccccccccccccccccccccccccccccccccccccccccccccccccccccccccccccccccccccccccccccccccccccccccccccccccccccccccccccccccccccccccccccccccccccccccccccccccccccccccccccccccccccccc",
"cccccccccccccccccccccccccccccccccccccccccccccccccccccccccccccccccccccccccccccccccccccccccccccccccccccccccccccccccccccccccccccccccccccccccccccccccccccccccccccccccccccccccccccccccccccccccccccccccccc",
"cccccccccccccccccccccccccccccccccccccccccccccccccccccccccccccccccccccccccccccccccccccccccccccccccccccccccccccccccccccccccccccccccccccccccccccccccccccccccccccccccccccccccccccccccccccccccccccccccccc",
"cccccccccccccccccccccccccccccccccccccccccccccccccccccccccccccccccccccccccccccccccccccccccccccccccccccccccccccccccccccccccccccccccccccccccccccccccccccccccccccccccccccccccccccccccccccccccccccccccccc"};