/* XPM */
static char *noname[] = {
/* width height ncolors chars_per_pixel */
"60 45 3 1",
/* colors */
"  c Grey",
". c Red",
"X c White",
/* pixels */
"                                                            ",
"                                                            ",
"                                      ..                    ",
"                                    ....                    ",
"                        ...          ...                    ",
"                        ..      ..  ...X...                 ",
"                       ..X.     ....XXXXXX.                 ",
"                       .XX.    ..X.XXXXXX.                  ",
"                    ....XX......XXXXXXXX..                  ",
"                   .XXXXXXXXXXXXXXXXXXXX.                   ",
"                  ..XXXXXXXXXXXXXXXXXXXX.                   ",
"                . ..XXXXXXXXXXXXXXXXXXXX.                   ",
"               ......XXXXXXXXXXXXXXXXXXXX....               ",
"             ...XX...XXXXXXXXXXXXXXXXXXXXXXX..              ",
"             ...XXXXXXXXXXXXXXXXXXXXXXXXXXXXX..             ",
"               .XXXXXXXXXXXXXXXXXXXXXXXXXXXXXX.             ",
"              ..XXXXXXXXXXXXXXXXXXXXXXXXXXXXXX..            ",
"             ..XXXXXXXXXXXXXXXXXXXXXXXXXXXXXXX.....         ",
"             .XXXXXXXXXXXXXXXXXXXXXXXXXXXXXXXXXXX..         ",
"             .XXXXXXXXXXXXXXXXXXXXXXXXXXXXXXXXXXX....       ",
"             .XXXXXXXXXXXXXXXXXXXXXXXXXXXXXXXXXXXXX..       ",
"            ....XXXXXXXXXXXXXXXXXXXXXXXXXXXXXXXXXX.         ",
"               ..XXXXXXXXXXXXXXXXXXXXXXXXXXXXXXXXX.         ",
"               .XXXXXXXXXXXXXXXXXXXXXXXXXXXXXXXXX..         ",
"              .XXXXXXXXXXXXXXXXXXXXXXXXXXXXXXXXXX.          ",
"              .XXXXXXXXXXXXXXXXXXXXXXXXXXXXXXXXXX....       ",
"             .XXXXXXXXXXXXXXXXXXXXXXXXXXXXXXXXXXX..X.. .    ",
"            .XXXXXXXXXXXXXXXXXXXXXXXXXXXXXXXXXXXX.XXXX...   ",
"            .XXXXXXXXXXXXXXXXXXXXXXXXXXXXXXXXXXXXXXXXXX.... ",
" ...      ...XXXXXXXXXXXXXXXXXXXXXXXXXXXXXXXXXXXXXXXXXXXXX..",
".XXX... ..XX..XXXXXXXXXXXXXXXXXXXXXXXXXXXXXXXXXXXXXXXXXXX...",
".XXXXXX..XXX..XXXXXXXXXXXXXXXXXXXXXXXXXXXXXXXXXXXXXXXXXXXX. ",
"....XXXXXXX..XXXXXXXXXXXXXXXXXXXXXXXX..XXXXXXXXXXXXXXXXXX.  ",
". ..XXXXXXX.XXXXXX.....XX..XXXXXXXXX...XXXXXXXXXXXXXXXXXXX. ",
".  .XXXXXXX..XXXX..   ...  ...XXXXX.   .X..XXXXXXXXXXXXX... ",
"   .XXXXXXXX...X..      .  .  .XXXX.   .. ..XXX.XXXXXXX...  ",
"  ..XXXXXXXXX.....             ..XX.       ......XXXXX..    ",
"  ..XXXXXXXXXX..                .XX.            ....XXX.    ",
"  .XXXXXXXXXXXX.                 ...            .  .X...    ",
"  ...XXXXXXXXXX.                                   .X.      ",
"     .XX....XX.                                    ...      ",
"     .XX.. ....                                    ..       ",
"      ...                                          ..       ",
"                                                            ",
"                                                            "
};
