/* XPM */
static char *noname[] = {
/* width height ncolors chars_per_pixel */
"60 45 4 1",
/* colors */
"  c Grey",
". c Red",
"X c D65",
"o c None",
/* pixels */
"                                                            ",
"                                                            ",
"                                      ..                    ",
"                                    ....                    ",
"                        ...          ...                    ",
"                        ..      ..  ...X...                 ",
"                       ..X.     .....XXXXX.                 ",
"                       .XX.    ..X.XXXXXX.                  ",
"                    ....XX......XXXXXXXX.                   ",
"                   .XXXXXXXXXXXXXXXXXXXX.                   ",
"                  ..XXXXXXXXXXXXXXXXXXXX.                   ",
"                . ..XXXXXXXXXXXXXXXXXXXXX.                  ",
"               ......XXXXXXXXXXXXXXXXXXXX....               ",
"             ...XX...XXXXXXXXXXXXXXXXXXXXXXX..              ",
"             ...XXXXXXXXXXXXXXXXXXXXXXXXXXXXX..             ",
"               .XXXXXXXXXXXXXXXXXXXXXXXXXXXXXX.             ",
"              ..XXXXXXXXXXXXXXXXXXXXXXXXXXXXXX..            ",
"             ...XXXXXXXXXXXXXXXXXXXXXXXXXXXXXX.....         ",
"             .XXXXXXXXXXXXXXXXXXXXXXXXXXXXXXXXXXX..         ",
"             .XXXXXXXXXXXXXXXXXXXXXXXXXXXXXXXXXXX....       ",
"             .XXXXXXXXXXXXXXXXXXXXXXXXXXXXXXXXXXXXX..       ",
"            ....XXXXXXXXXXXXXXXXXXXXXXXXXXXXXXXXXX.         ",
"                .XXXXXXXXXXXXXXXXXXXXXXXXXXXXXXXXX.         ",
"               .XXXXXXXXXXXXXXXXXXXXXXXXXXXXXXXXX..         ",
"              .XXXXXXXXXXXXXXXXXXXXXXXXXXXXXXXXXX.          ",
"              .XXXXXXXXXXXXXXXXXXXXXXXXXXXXXXXXXX....       ",
"             .XXXXXXXXXXXXXXXXXXXXXXXXXXXXXXXXXX...X.. .    ",
"            .XXXXXXXXXXXXXXXXXXXXXXXXXXXXXXXXXXXX.XXXX...   ",
"            .XXXXXXXXXXXXXXXXXXXXXXXXXXXXXXXXXXXXXXXXXX.... ",
" ...      ...XXXXXXXXXXXXXXXXXXXXXXXXXXXXXXXXXXXXXXXXXXXXX..",
".XXX... ..XX..XXXXXXXXXXXXXXXXXXXXXXXXXXXXXXXXXXXXXXXXXXX...",
".XXXXXX..XXX..XXXXXXXXXXXXXXXXXXXXXXXXXXXXXXXXXXXXXXXXXXXX. ",
"....XXXXXXX..XXXXXXXXXXXXXXXXXXXXXXXX..XXXXXXXXXXXXXXXXXX.  ",
". ..XXXXXXX.XXXXXX.....XX..XXXXXXXXX...XXXXXXXXXXXXXXXXXXX. ",
".  .XXXXXXX..XXXX.    ...  ...XXXXX.   .X..XXXXXXXXXXXXX... ",
"   .XXXXXXXX...X..      .  .  .XXXX.   .. ..XXX.XXXXXXX...  ",
"  ..XXXXXXXXX.....             ..XX.       ......XXXXX..    ",
"  ..XXXXXXXXXX..                .XX.            ....XXX.    ",
"  .XXXXXXXXXXXX.                 ...            .  .X...    ",
"  ...XXXXXXXXXX.                                   .X.      ",
"    .XXX....XX.                                    ...      ",
"     .XX.. ....                                    ..       ",
"      ...                                          ..       ",
"                                                            ",
"                                                            "
};
