/* XPM */
static char * berlin_overview_small_border_xpm[] = {
"15 15 3 1",
" 	c None",
".	c #FF0000",
"+	c #FFFFFF",
"               ",
"               ",
"    .  ...     ",
"   .+..++.     ",
"  .+++++++.    ",
"  .+++++++.    ",
" .+++++++++..  ",
" .++++++++++.  ",
"  .+++++++++.  ",
" .+++++++++++. ",
" .++++++++++++.",
" .+.++++.+++++.",
" .. .... ...++.",
"       .    .. ",
"               "};
