/* XPM */
static char * mini_exclam_xpm[] = {
"9 16 5 1",
" 	c None",
".	c #7F7F7F",
"+	c #008000",
"@	c #FFFFFF",
"#	c #000000",
"         ",
"     .+  ",
"    .@++.",
"   .@+++#",
"   +++++#",
"  .++++#.",
"  +++++# ",
"  ++++#  ",
"  +++#   ",
"  ++#    ",
"  +#     ",
".@++     ",
"++++.    ",
" ++#.    ",
" .#.     ",
"         "};
