/* XPM */
static char * mini_gnome_xpm[] = {
"13 18 20 1",
" 	c None",
".	c #EAE8E6",
"+	c #DDD9D6",
"@	c #5A4F47",
"#	c #C6BEB7",
"$	c #B2A79F",
"%	c #2D2824",
"&	c #96877B",
"*	c #463E37",
"=	c #000000",
"-	c #8F8379",
";	c #0A0908",
">	c #A79B92",
",	c #120F0E",
"'	c #F2F1F1",
")	c #998C81",
"!	c #88796E",
"~	c #A3968B",
"{	c #6D6156",
"]	c #9E958D",
"             ",
"     .+@     ",
"  #$%#&*=    ",
"  -*=**;=    ",
" > == %,     ",
" *=  .+$>    ",
" ;= '$))!=   ",
"'  ..-~!{=   ",
"]% .$&)!,    ",
" = +$)!{=,   ",
"   #~~!{{{,,!",
"   #>!~!){#>*",
"   -$#!#!!+!;",
"    !&!>#'#{=",
"    {))~~$),=",
"     @!>)~@= ",
"      @===@  ",
"             "};
