<?xml version="1.0" encoding="UTF-8" standalone="no"?>
<svg
   xmlns:dc="http://purl.org/dc/elements/1.1/"
   xmlns:cc="http://creativecommons.org/ns#"
   xmlns:rdf="http://www.w3.org/1999/02/22-rdf-syntax-ns#"
   xmlns:svg="http://www.w3.org/2000/svg"
   xmlns="http://www.w3.org/2000/svg"
   viewBox="0 0 600.99628 600.99628"
   height="600.99628"
   width="600.99628"
   xml:space="preserve"
   id="svg4824"
   version="1.1"><metadata
     id="metadata4830"><rdf:RDF><cc:Work
         rdf:about=""><dc:format>image/svg+xml</dc:format><dc:type
           rdf:resource="http://purl.org/dc/dcmitype/StillImage" /><dc:title></dc:title></cc:Work></rdf:RDF></metadata><defs
     id="defs4828" /><g
     transform="matrix(1.3333333,0,0,-1.3333333,0,600.9963)"
     id="g4832"><g
       id="g4834"><path
         id="path4836"
         style="fill:#ffffff;fill-opacity:1;fill-rule:nonzero;stroke:none"
         d="m 450.375,225.372 c 0,-124.265 -100.734,-225 -225,-225 -124.266,0 -225,100.735 -225,225 0,124.266 100.734,225 225,225 124.266,0 225,-100.734 225,-225 z" /><path
         id="path4838"
         style="fill:#000000;fill-opacity:1;fill-rule:nonzero;stroke:none"
         d="M 225.375,450.747 C 100.906,450.747 0,349.841 0,225.372 0,100.907 100.906,0.001 225.375,0.001 c 124.465,0 225.371,100.906 225.371,225.371 0,124.469 -100.906,225.375 -225.371,225.375 z m 0,-0.375 c 124.266,0 225,-100.734 225,-225 0,-124.265 -100.734,-225 -225,-225 -124.266,0 -225,100.735 -225,225 0,124.266 100.734,225 225,225 z" /><path
         id="path4840"
         style="fill:#c1121c;fill-opacity:1;fill-rule:nonzero;stroke:none"
         d="m 225.375,442.872 c -119.766,0 -217.5,-97.734 -217.5,-217.5 0,-119.761 97.734,-217.5 217.5,-217.5 119.762,0 217.496,97.739 217.496,217.5 0,119.766 -97.734,217.5 -217.496,217.5 z m 0,-60.301 c 87.176,0 157.203,-70.019 157.203,-157.199 0,-87.176 -70.027,-157.203 -157.203,-157.203 -87.18,0 -157.199,70.027 -157.199,157.203 0,87.18 70.019,157.199 157.199,157.199 z" /><path
         id="path4842"
         style="fill:#000000;fill-opacity:1;fill-rule:nonzero;stroke:none"
         d="m 22.344,427.982 v -0.024 H 22.32 Z" /><path
         id="path4844"
         style="fill:#000000;fill-opacity:1;fill-rule:nonzero;stroke:none"
         d="m 22.32,427.982 h 0.023 v -0.023 H 22.32 Z" /><path
         id="path4846"
         style="fill:#000000;fill-opacity:1;fill-rule:nonzero;stroke:none"
         d="m 22.32,427.958 v 0.024 l 0.024,-0.024 z m 0.024,0 -0.024,0.024 v -0.024 z" /><path
         id="path4848"
         style="fill:#000000;fill-opacity:1;fill-rule:nonzero;stroke:none"
         d="m 22.367,427.958 h -0.047 0.024 v 0.024 z" /><path
         id="path4850"
         style="fill:#000000;fill-opacity:1;fill-rule:nonzero;stroke:none"
         d="m 22.32,427.958 v 0.024 -0.024 l 0.024,0.024 z" /><path
         id="path4852"
         style="fill:#000000;fill-opacity:1;fill-rule:nonzero;stroke:none"
         d="m 22.32,427.982 h 0.023 v -0.023 H 22.32 Z" /><path
         id="path4854"
         style="fill:#000000;fill-opacity:1;fill-rule:nonzero;stroke:none"
         d="m 22.367,427.982 v -0.047 H 22.32 Z" /><path
         id="path4856"
         style="fill:#000000;fill-opacity:1;fill-rule:nonzero;stroke:none"
         d="m 22.32,427.982 h 0.047 v -0.047 H 22.32 Z" /><path
         id="path4858"
         style="fill:#000000;fill-opacity:1;fill-rule:nonzero;stroke:none"
         d="m 22.32,427.935 v 0.047 l 0.047,-0.047 z m 0.047,0 -0.047,0.047 v -0.047 z" /><path
         id="path4860"
         style="fill:#000000;fill-opacity:1;fill-rule:nonzero;stroke:none"
         d="m 22.367,427.935 h -0.047 0.024 v 0.047 z" /><path
         id="path4862"
         style="fill:#000000;fill-opacity:1;fill-rule:nonzero;stroke:none"
         d="m 22.32,427.935 v 0.047 -0.047 l 0.047,0.047 z" /><path
         id="path4864"
         style="fill:#000000;fill-opacity:1;fill-rule:nonzero;stroke:none"
         d="m 22.32,427.982 h 0.047 v -0.047 H 22.32 Z" /><path
         id="path4866"
         style="fill:#000000;fill-opacity:1;fill-rule:nonzero;stroke:none"
         d="m 22.367,427.982 v -0.047 H 22.32 Z" /><path
         id="path4868"
         style="fill:#000000;fill-opacity:1;fill-rule:nonzero;stroke:none"
         d="m 22.32,427.982 h 0.047 v -0.047 H 22.32 Z" /><path
         id="path4870"
         style="fill:#000000;fill-opacity:1;fill-rule:nonzero;stroke:none"
         d="m 22.32,427.935 v 0.047 l 0.047,-0.047 z m 0.047,0 -0.047,0.047 v -0.047 z" /><path
         id="path4872"
         style="fill:#000000;fill-opacity:1;fill-rule:nonzero;stroke:none"
         d="m 22.367,427.935 h -0.047 0.024 v 0.047 z" /><path
         id="path4874"
         style="fill:#000000;fill-opacity:1;fill-rule:nonzero;stroke:none"
         d="m 22.32,427.935 v 0.047 -0.047 l 0.047,0.047 z" /><path
         id="path4876"
         style="fill:#000000;fill-opacity:1;fill-rule:nonzero;stroke:none"
         d="m 22.32,427.982 h 0.047 v -0.047 H 22.32 Z" /><path
         id="path4878"
         style="fill:#000000;fill-opacity:1;fill-rule:nonzero;stroke:none"
         d="m 22.367,427.982 v -0.047 H 22.32 Z" /><path
         id="path4880"
         style="fill:#000000;fill-opacity:1;fill-rule:nonzero;stroke:none"
         d="m 22.32,427.982 h 0.047 v -0.047 H 22.32 Z" /><path
         id="path4882"
         style="fill:#000000;fill-opacity:1;fill-rule:nonzero;stroke:none"
         d="m 22.32,427.935 v 0.047 l 0.047,-0.047 z m 0.047,0 -0.047,0.047 v -0.047 z" /><path
         id="path4884"
         style="fill:#000000;fill-opacity:1;fill-rule:nonzero;stroke:none"
         d="m 22.367,427.935 h -0.047 0.024 v 0.047 z" /><path
         id="path4886"
         style="fill:#000000;fill-opacity:1;fill-rule:nonzero;stroke:none"
         d="m 22.32,427.935 v 0.047 -0.047 l 0.047,0.047 z" /><path
         id="path4888"
         style="fill:#000000;fill-opacity:1;fill-rule:nonzero;stroke:none"
         d="m 22.32,427.982 h 0.047 v -0.047 H 22.32 Z" /><path
         id="path4890"
         style="fill:#c1121c;fill-opacity:1;fill-rule:nonzero;stroke:none"
         d="m 116.531,273.411 c -2.984,0 -5.687,-1.769 -6.883,-4.508 L 97.777,241.614 c -0.839,-1.929 -1.902,-3.75 -3.16,-5.433 l -1.805,-2.403 c -1.167,-1.558 -1.8,-3.453 -1.8,-5.402 v -19.515 c 0,-4.149 3.363,-7.508 7.508,-7.508 h 111.089 c 4.145,0 7.508,3.359 7.508,7.508 v 19.515 c 0,1.949 -0.633,3.844 -1.801,5.402 l -1.804,2.403 c -1.258,1.683 -2.321,3.504 -3.16,5.433 l -11.875,27.289 c -1.192,2.739 -3.895,4.508 -6.883,4.508 z m 1.805,-7.504 h 71.457 c 1.195,0 2.277,-0.711 2.754,-1.804 l 10.308,-23.719 h -97.582 l 10.309,23.719 c 0.477,1.093 1.559,1.804 2.754,1.804 z" /><path
         id="path4892"
         style="fill:#c1121c;fill-opacity:1;fill-rule:nonzero;stroke:none"
         d="m 98.52,198.353 h 18.011 v -16.516 c 0,-2.488 -2.015,-4.504 -4.5,-4.504 h -9.008 c -2.488,0 -4.503,2.016 -4.503,4.504 z m 93.074,0 h 18.015 v -16.516 c 0,-2.488 -2.015,-4.504 -4.504,-4.504 h -9.007 c -2.485,0 -4.504,2.016 -4.504,4.504 v 16.516" /><path
         id="path4894"
         style="fill:#000000;fill-opacity:1;fill-rule:nonzero;stroke:none"
         d="m 239.633,229.126 h 120.102 v -7.508 H 239.633 Z" /><path
         id="path4896"
         style="fill:#000000;fill-opacity:1;fill-rule:nonzero;stroke:none"
         d="m 295.996,168.021 7.367,-0.032 c 2.196,0 3.977,-1.781 3.977,-3.98 l 0.027,-11.965 h 4.301 v -20.281 h -4.301 l -0.027,-12.004 c 0,-2.195 -1.781,-3.977 -3.977,-3.977 h -7.355 c -2.199,0 -3.981,1.782 -3.981,3.977 L 292,136.372 h -4.301 v 11.063 H 292 l 0.027,16.574 c 0,2.199 1.782,3.98 3.981,3.98" /><path
         id="path4898"
         style="fill:#000000;fill-opacity:1;fill-rule:nonzero;stroke:none"
         d="m 280.324,182.157 38.727,0.02 c 0.847,0 1.539,-0.691 1.539,-1.539 l -0.012,-12 -6.258,-23.969 -1.422,-2.766 v 29.805 h -26.425 v -29.805 l -1.426,2.766 -6.258,23.969 -0.008,12 c 0,0.848 0.688,1.539 1.539,1.539" /><path
         id="path4900"
         style="fill:#000000;fill-opacity:1;fill-rule:nonzero;stroke:none"
         d="m 286.008,195.368 h 0.012 l 4.132,0.016 c 0,2.035 1.649,3.68 3.676,3.68 h 11.711 c 2.031,0 3.68,-1.645 3.68,-3.68 l 4.129,-0.035 c 3.976,0 7.203,-3.227 7.203,-7.207 0,-2.114 -1.715,-3.828 -3.828,-3.828 h -34.078 c -2.114,0 -3.829,1.714 -3.829,3.828 0,3.98 3.227,7.207 7.207,7.207" /><path
         id="path4902"
         style="fill:#000000;fill-opacity:1;fill-rule:nonzero;stroke:none"
         d="m 291.992,205.22 c -4.105,0 -8.168,0.867 -11.918,2.543 v -0.047 c -0.465,0.23 -0.84,0.402 -1.535,0.566 l -9.586,2.239 0.828,3.593 9.59,-2.238 c 0.793,-0.203 1.473,-0.449 2.254,-0.812 h 0.004 -0.004 l -0.016,0.004 c 2.856,-1.274 5.922,-2.008 9.043,-2.172 l 16.727,-0.035 c 3.574,0 7.109,0.75 10.379,2.207 l -0.016,-0.004 c 0.778,0.363 1.457,0.609 2.25,0.812 l 9.59,2.238 0.828,-3.593 -9.586,-2.239 c -0.695,-0.164 -1.07,-0.336 -1.531,-0.566 -3.457,-1.648 -7.637,-2.496 -11.926,-2.512 h -2.152 v -3.687 h -11.68 v 3.687 H 292" /><path
         id="path4904"
         style="fill:#000000;fill-opacity:1;fill-rule:nonzero;stroke:none"
         d="m 298.223,294.88 c -0.809,0 -1.465,-0.656 -1.465,-1.465 l 0.015,-25.406 h -4.207 v -16.172 h -9.054 v -2.266 h 9.054 v -1.293 h 2.266 v 15.2 h 1.941 l -0.015,-25.383 c 0,-0.809 0.656,-1.461 1.465,-1.461 h 2.925 c 0.809,0 1.465,0.652 1.465,1.461 l -0.019,25.387 h 4.207 v 16.171 h 9.054 v 2.262 h -9.054 v 1.297 h -2.266 v -15.203 h -1.941 l 0.019,25.41 c 0,0.809 -0.656,1.461 -1.465,1.461 l -2.918,-0.023" /><path
         id="path4906"
         style="fill:#000000;fill-opacity:1;fill-rule:nonzero;stroke:none"
         d="m 289.012,303.267 21.332,-0.016 c 0.89,0 1.613,-0.723 1.613,-1.613 l 0.02,-3.445 v -1.395 l -0.973,-28.465 -2.262,-2.59 v 31.055 h -18.117 v -31.055 l -2.262,2.59 -0.972,28.465 v 1.395 l 0.019,3.445 c 0,0.89 0.727,1.613 1.617,1.613" /><path
         id="path4908"
         style="fill:#000000;fill-opacity:1;fill-rule:nonzero;stroke:none"
         d="m 297.418,308.439 h 4.531 v -5.172 h -4.531 z" /><path
         id="path4910"
         style="fill:#000000;fill-opacity:1;fill-rule:nonzero;stroke:none"
         d="m 294.637,315.88 h -0.008 l 10.086,-0.019 c 2.031,0 3.676,-1.649 3.676,-3.68 h 0.039 c 0,-1.18 -0.957,-2.137 -2.141,-2.137 h -13.211 c -1.18,0 -2.137,0.957 -2.137,2.137 h 0.036 c 0,2.031 1.648,3.68 3.679,3.68" /><path
         id="path4912"
         style="fill:#000000;fill-opacity:1;fill-rule:nonzero;stroke:none"
         d="m 295.801,322.025 h 7.766 v -4.527 h -7.766 z" /><path
         id="path4914"
         style="fill:#000000;fill-opacity:1;fill-rule:nonzero;stroke:none"
         d="m 324.891,330.778 c -0.903,0 -1.766,-0.238 -2.504,-0.664 l -0.016,0.016 c -0.758,-0.437 -1.387,-1.07 -1.828,-1.828 l -0.027,0.019 c -1.649,-2.855 -4.696,-4.617 -7.996,-4.617 l -25.684,-0.054 0.012,0.054 c -3.297,0 -6.344,1.762 -7.993,4.617 l -0.031,-0.019 c -0.437,0.758 -1.066,1.391 -1.828,1.828 l -0.016,-0.016 c -0.738,0.426 -1.601,0.664 -2.503,0.664 h -2.856 l -2.863,0.02 c -0.785,0 -1.426,0.637 -1.426,1.426 v 1.312 c 0,0.789 0.641,1.43 1.426,1.43 h 5.719 l -0.012,-0.039 c 3.297,0 6.347,-1.762 7.996,-4.617 l 0.027,-0.02 c 0.438,-0.758 1.071,-1.387 1.828,-1.828 l 0.012,0.027 c 0.742,-0.425 1.602,-0.66 2.508,-0.66 l 25.687,0.004 c 1.782,0 3.43,0.953 4.321,2.496 l 0.031,-0.019 c 1.648,2.855 4.695,4.617 7.996,4.617 l 2.879,0.035 h 2.859 c 0.789,0 1.43,-0.637 1.43,-1.426 v -1.312 c 0,-0.789 -0.641,-1.426 -1.43,-1.426 l -2.859,-0.02 h -2.859" /></g></g></svg>