<?xml version="1.0" encoding="UTF-8" standalone="no"?>
<svg
   xmlns:dc="http://purl.org/dc/elements/1.1/"
   xmlns:cc="http://creativecommons.org/ns#"
   xmlns:rdf="http://www.w3.org/1999/02/22-rdf-syntax-ns#"
   xmlns:svg="http://www.w3.org/2000/svg"
   xmlns="http://www.w3.org/2000/svg"
   viewBox="0 0 602.29999 602.29999"
   height="602.29999"
   width="602.29999"
   xml:space="preserve"
   version="1.1"
   id="svg5266"><metadata
     id="metadata5272"><rdf:RDF><cc:Work
         rdf:about=""><dc:format>image/svg+xml</dc:format><dc:type
           rdf:resource="http://purl.org/dc/dcmitype/StillImage" /><dc:title></dc:title></cc:Work></rdf:RDF></metadata><defs
     id="defs5270" /><g
     transform="matrix(1.25,0,0,-1.25,0,602.29999)"
     id="g5274"><g
       id="g5276"><path
         id="path5278"
         style="fill:#000000;fill-opacity:1;fill-rule:evenodd;stroke:none"
         d="m 410.824,410.777 c 31.278,-31.277 50.75,-64.996 62.203,-107.726 11.453,-42.77 11.453,-81.715 0,-124.484 C 461.578,135.836 442.086,102.098 410.789,70.801 379.512,39.524 345.789,20.047 303.039,8.578 260.293,-2.855 221.324,-2.871 178.578,8.598 135.844,20.051 102.125,39.524 70.848,70.801 39.551,102.098 20.059,135.836 8.59,178.586 c -11.453,42.731 -11.453,81.715 0,124.445 11.469,42.746 30.941,76.469 62.223,107.746 31.292,31.297 65.035,50.79 107.761,62.243 42.75,11.468 81.719,11.453 124.469,0.019 42.746,-11.472 76.484,-30.961 107.781,-62.262 z m -0.281,-0.281 C 379.289,441.75 345.629,461.199 302.938,472.652 260.246,484.07 221.367,484.09 178.68,472.633 136.004,461.195 102.348,441.75 71.094,410.496 39.859,379.258 20.426,345.617 8.973,302.93 -2.461,260.258 -2.461,221.363 8.977,178.692 20.43,136 39.879,102.34 71.133,71.086 102.367,39.852 136.012,20.422 178.68,8.985 c 42.691,-11.454 81.566,-11.434 124.258,-0.02 42.691,11.453 76.332,30.883 107.57,62.117 31.254,31.254 50.699,64.914 62.133,107.59 11.437,42.707 11.437,81.566 0,124.273 -11.43,42.672 -30.864,76.317 -62.098,107.551 z" /><path
         id="path5280"
         style="fill:#ffffff;fill-opacity:1;fill-rule:evenodd;stroke:none"
         d="m 71.094,410.496 c 31.254,31.254 64.91,50.699 107.586,62.137 42.687,11.457 81.566,11.437 124.258,0.019 42.691,-11.457 76.351,-30.902 107.605,-62.156 31.238,-31.234 50.668,-64.879 62.098,-107.551 11.437,-42.707 11.437,-81.57 0.004,-124.277 C 461.207,135.996 441.762,102.336 410.508,71.082 379.27,39.848 345.629,20.418 302.941,8.965 260.25,-2.453 221.371,-2.469 178.68,8.985 136.012,20.422 102.371,39.848 71.133,71.086 39.879,102.34 20.434,136 8.977,178.692 c -11.438,42.671 -11.438,81.566 0,124.242 11.449,42.683 30.882,76.324 62.117,107.562 z" /><path
         id="path5282"
         style="fill:#154889;fill-opacity:1;fill-rule:evenodd;stroke:none"
         d="m 79.035,402.594 c 29.77,29.769 61.867,48.32 102.555,59.195 40.683,10.914 77.777,10.914 118.445,0.02 40.684,-10.875 72.801,-29.442 102.59,-59.231 29.773,-29.773 48.281,-61.871 59.176,-102.535 10.894,-40.707 10.894,-77.762 0.004,-118.465 C 450.906,140.91 432.379,108.793 402.609,79.024 372.816,49.235 340.719,30.684 300.035,19.809 259.367,8.914 222.273,8.914 181.586,19.828 140.902,30.703 108.824,49.235 79.051,79.004 49.262,108.797 30.695,140.91 19.824,181.594 c -10.898,40.668 -10.898,77.762 0,118.43 10.871,40.683 29.422,72.781 59.211,102.57 z" /><path
         id="path5284"
         style="fill:#ffffff;fill-opacity:1;fill-rule:nonzero;stroke:none"
         d="m 396.5,249.699 c -0.473,-0.132 -0.957,-0.207 -1.43,-0.207 l -35.011,0 c -2.332,0 -4.371,1.539 -5.016,3.774 l -10.922,38.203 c -0.789,2.769 0.817,5.656 3.582,6.445 0.461,0.133 0.957,0.207 1.43,0.207 l 35.015,0 c 2.329,0 4.368,-1.554 5.012,-3.785 l 10.91,-38.207 c 0.789,-2.766 -0.8,-5.652 -3.57,-6.43 z m -54.891,0 c -0.461,-0.132 -0.945,-0.207 -1.418,-0.207 l -35.011,0 c -2.321,0 -4.371,1.539 -5.016,3.774 l -10.922,38.203 c -0.789,2.769 0.817,5.656 3.594,6.445 0.461,0.133 0.945,0.207 1.418,0.207 l 35.016,0 c 2.328,0 4.367,-1.554 5.011,-3.785 l 10.922,-38.207 c 0.777,-2.766 -0.812,-5.652 -3.594,-6.43 z m -54.867,0 c -0.461,-0.132 -0.945,-0.207 -1.429,-0.207 l -35,0 c -2.333,0 -4.383,1.539 -5.016,3.774 l -10.922,38.203 c -0.785,2.769 0.816,5.656 3.582,6.445 0.461,0.133 0.945,0.207 1.43,0.207 l 35.015,0 c 2.317,0 4.356,-1.554 5.012,-3.785 l 10.91,-38.207 c 0.789,-2.766 -0.816,-5.652 -3.582,-6.43 z m -54.879,0 c -0.461,-0.132 -0.945,-0.207 -1.429,-0.207 l -35.016,0 c -2.328,0 -4.367,1.539 -5,3.774 l -10.922,38.203 c -0.789,2.769 0.817,5.656 3.582,6.445 0.461,0.133 0.945,0.207 1.43,0.207 l 35.015,0 c 2.317,0 4.368,-1.554 5,-3.785 l 10.922,-38.207 c 0.789,-2.766 -0.816,-5.652 -3.582,-6.43 z m -54.879,0 c -0.461,-0.132 -0.945,-0.207 -1.429,-0.207 l -36.508,0 c -2.875,0 -5.203,2.328 -5.203,5.207 l 0,38.203 c 0,2.875 2.328,5.219 5.203,5.219 l 25.598,0 c 2.316,0 4.367,-1.554 5.011,-3.789 l 10.91,-38.203 c 0.789,-2.766 -0.816,-5.656 -3.582,-6.43 z m -52.171,5 c 0,-2.879 -2.344,-5.207 -5.219,-5.207 l -41.578,0 c -2.875,0 -5.207,2.328 -5.207,5.207 0,0.606 0.097,1.188 0.304,1.758 l 13.641,38.203 c 0.738,2.067 2.707,3.461 4.902,3.461 l 27.938,0 c 2.875,0 5.219,-2.344 5.219,-5.219 l 0,-38.203 z m 295.804,-2.402 -14.176,49.633 c -1.711,5.972 -7.16,10.074 -13.363,10.074 l -315.5,0 c -1.918,0 -3.48,-1.555 -3.48,-3.469 l 0,-6.945 c 0,-1.648 1.164,-3.07 2.777,-3.395 0.16,-0.039 0.305,-0.089 0.461,-0.132 1.809,-0.657 2.754,-2.637 2.102,-4.446 L 61.414,243.156 c -0.801,-2.242 -1.215,-4.609 -1.215,-6.988 l 0,-35.293 c 0,-3.848 3.121,-6.953 6.957,-6.953 l 41.672,0 c 0,17.258 14.008,31.262 31.266,31.262 17.269,0 31.261,-14.004 31.261,-31.262 l 128.508,0 c 0,17.258 13.992,31.262 31.25,31.262 17.27,0 31.262,-14.004 31.262,-31.262 l 45.145,0 c 7.683,0 13.898,6.215 13.898,13.895 l 0,38.761 c 0,1.93 -0.258,3.86 -0.801,5.719" /><path
         id="path5286"
         style="fill:#ffffff;fill-opacity:1;fill-rule:nonzero;stroke:none"
         d="m 355.434,193.922 c 0,-13.422 -10.887,-24.309 -24.321,-24.309 -13.422,0 -24.308,10.887 -24.308,24.309 0,13.434 10.886,24.309 24.308,24.309 13.434,0 24.321,-10.875 24.321,-24.309" /><path
         id="path5288"
         style="fill:#ffffff;fill-opacity:1;fill-rule:nonzero;stroke:none"
         d="m 164.398,193.922 c 0,-13.422 -10.882,-24.309 -24.304,-24.309 -13.438,0 -24.324,10.887 -24.324,24.309 0,13.434 10.886,24.309 24.324,24.309 13.422,0 24.304,-10.875 24.304,-24.309" /></g></g></svg>