<?xml version="1.0" encoding="UTF-8" standalone="no"?>
<!-- Created with Inkscape (http://www.inkscape.org/) -->
<svg
   xmlns:svg="http://www.w3.org/2000/svg"
   xmlns="http://www.w3.org/2000/svg"
   version="1.0"
   width="970"
   height="330"
   id="svg2">
  <defs
     id="defs4" />
  <path
     d="M 35.240415,2.8457183 L 938.84238,2.8457183 C 951.62286,3.6979496 968.591,10.643118 968.56262,25.775909 L 967.94077,295.3929 C 968.04231,302.45704 961.55685,327.81231 934.22599,328.27272 L 36.512619,327.33994 C 9.893895,327.33994 1.2336988,314.14215 1.855551,294.25502 L 2.147477,32.821374 C 2.147477,23.570788 1.7968581,2.8457183 35.240415,2.8457183 z "
     style="fill:#fc3;fill-opacity:1;fill-rule:evenodd;stroke:black;stroke-width:2.36590981;stroke-linecap:butt;stroke-linejoin:miter;stroke-miterlimit:4;stroke-dasharray:none;stroke-opacity:1"
     id="path3669" />
  <path
     d="M 37.718328,17.156442 C 23.907978,16.500941 16.343642,20.944484 17.2715,32.034799 L 17.2715,302.44133 C 17.369244,308.24129 23.855521,315.20298 34.351984,315.03312 L 938.71315,315.32315 C 945.78943,315.49301 953.2741,308.22038 953.37183,302.42041 L 953.37183,30.438345 C 953.3669,21.524511 948.60093,17.391892 936.65612,16.803691 L 37.718328,17.156442 z "
     style="fill:#093;fill-opacity:1;fill-rule:evenodd;stroke:#093;stroke-width:1.1853404px;stroke-linecap:butt;stroke-linejoin:miter;stroke-opacity:1"
     id="path3661" />
  <path
     d="M 258.17764,232.02348 L 224.34432,96.96828 L 246.03472,96.96828 L 267.26165,192.99929 L 267.63243,192.99929 L 293.86484,96.96828 L 308.60319,96.96828 L 334.8356,192.99929 L 335.20638,192.99929 L 356.43331,96.96828 L 378.12371,96.96828 L 344.29039,232.02348 L 327.23469,232.02348 L 301.37306,134.69475 L 301.00228,134.69475 L 275.23334,232.02348 L 258.17764,232.02348 z M 467.29537,191.23811 L 407.41502,191.23811 C 407.415,199.14803 409.56241,205.08044 413.85726,209.03536 C 418.15204,212.99033 423.63644,214.9678 430.31045,214.96778 C 438.28208,214.9678 445.32682,211.878 451.44469,205.69838 L 465.44149,217.65591 C 460.68311,223.21756 455.32231,227.18795 449.35907,229.56709 C 443.39569,231.94624 437.16975,233.13581 430.68123,233.13581 C 420.79382,233.13581 411.21545,229.93787 401.94608,223.54198 C 392.67666,217.1461 388.04196,204.06081 388.04197,184.28606 C 388.04196,165.56193 392.32133,152.61567 400.88009,145.44726 C 409.43881,138.27901 418.38378,134.69485 427.71502,134.69475 C 438.28208,134.69485 447.52057,138.35626 455.43053,145.67899 C 463.34034,153.0019 467.29528,162.8738 467.29537,175.29473 L 467.29537,191.23811 z M 407.41502,175.29473 L 448.01501,175.29473 C 447.70596,168.06466 445.66669,162.53393 441.8972,158.7025 C 438.12759,154.87123 433.4002,152.95555 427.71502,152.95547 C 421.96794,152.95555 417.19421,154.87123 413.39379,158.7025 C 409.5933,162.53393 407.60038,168.06466 407.41502,175.29473 L 407.41502,175.29473 z M 488.24422,232.02348 L 488.24422,135.80708 L 507.61727,135.80708 L 507.61727,232.02348 L 488.24422,232.02348 z M 488.24422,116.34133 L 488.24422,96.96828 L 507.61727,96.96828 L 507.61727,116.34133 L 488.24422,116.34133 z M 533.29351,208.75728 L 533.29351,96.96828 L 552.66656,96.96828 L 552.66656,207.18148 C 552.66653,211.63081 555.07657,213.85547 559.89669,213.85545 L 566.47797,213.85545 L 566.47797,232.02348 L 557.95012,232.02348 C 550.90534,232.02348 545.03473,230.30864 540.33825,226.87896 C 535.64174,223.44929 533.29349,217.40874 533.29351,208.75728 L 533.29351,208.75728 z M 656.76195,191.23811 L 596.88161,191.23811 C 596.88158,199.14803 599.02899,205.08044 603.32384,209.03536 C 607.61863,212.99033 613.10302,214.9678 619.77703,214.96778 C 627.74866,214.9678 634.7934,211.878 640.91127,205.69838 L 654.90807,217.65591 C 650.1497,223.21756 644.7889,227.18795 638.82566,229.56709 C 632.86228,231.94624 626.63633,233.13581 620.14781,233.13581 C 610.2604,233.13581 600.68203,229.93787 591.41266,223.54198 C 582.14324,217.1461 577.50855,204.06081 577.50856,184.28606 C 577.50855,165.56193 581.78792,152.61567 590.34668,145.44726 C 598.9054,138.27901 607.85036,134.69485 617.1816,134.69475 C 627.74866,134.69485 636.98716,138.35626 644.89711,145.67899 C 652.80692,153.0019 656.76186,162.8738 656.76195,175.29473 L 656.76195,191.23811 z M 596.88161,175.29473 L 637.48159,175.29473 C 637.17254,168.06466 635.13328,162.53393 631.36379,158.7025 C 627.59417,154.87123 622.86678,152.95555 617.1816,152.95547 C 611.43453,152.95555 606.66079,154.87123 602.86037,158.7025 C 599.05989,162.53393 597.06697,168.06466 596.88161,175.29473 L 596.88161,175.29473 z M 677.15465,232.02348 L 677.15465,135.80708 L 696.5277,135.80708 L 696.5277,146.09612 L 696.89848,146.09612 C 702.89266,138.4953 711.23511,134.69485 721.92587,134.69475 C 728.97055,134.69485 735.67541,137.16669 742.04047,142.11027 L 728.04367,158.7952 C 723.84149,155.64368 719.57756,154.06788 715.2519,154.0678 C 710.49356,154.06788 706.18329,155.65913 702.32108,158.84154 C 698.4588,162.02411 696.52767,167.13772 696.5277,174.18241 L 696.5277,232.02348 L 677.15465,232.02348 z "
     transform="scale(1.003741,0.996273)"
     style="font-size:189.83737183px;font-style:normal;font-variant:normal;font-weight:normal;font-stretch:normal;text-align:center;line-height:100%;writing-mode:lr-tb;text-anchor:middle;fill:#fc3;fill-opacity:1;stroke:none;stroke-width:1px;stroke-linecap:butt;stroke-linejoin:miter;stroke-opacity:1;font-family:DIN 1451 Mittelschrift"
     id="text5574" />
</svg>
