<?xml version="1.0" encoding="UTF-8" standalone="no"?>
<!-- Created with Inkscape (http://www.inkscape.org/) -->
<svg
   xmlns:svg="http://www.w3.org/2000/svg"
   xmlns="http://www.w3.org/2000/svg"
   version="1.0"
   width="1250"
   height="840"
   id="svg2">
  <defs
     id="defs9" />
  <path
     d="M 4.9628067,51.943165 L 4.6368247,783.36624 C 4.6368247,802.5473 28.351504,833.79315 60.07416,833.79315 L 1195.3067,833.79315 C 1217.9248,833.79315 1244.8933,805.77757 1244.8933,783.00108 L 1245.3632,58.713816 C 1245.3632,31.512403 1218.2476,6.206847 1192.5377,6.206847 L 55.460194,6.676638 C 26.798206,6.676638 4.9628067,36.996606 4.9628067,51.943165 z "
     style="fill:#fc3;fill-opacity:1;fill-rule:evenodd;stroke:black;stroke-width:2.12588739;stroke-linecap:butt;stroke-linejoin:miter;stroke-miterlimit:4;stroke-dasharray:none;stroke-opacity:1"
     id="path3829" />
  <path
     d="M 184.64488,421.19827 L 128.18208,195.81117 L 164.38015,195.81117 L 199.80475,356.07269 L 200.42352,356.07269 L 244.20152,195.81117 L 268.79764,195.81117 L 312.57565,356.07269 L 313.19442,356.07269 L 348.61902,195.81117 L 384.81709,195.81117 L 328.35429,421.19827 L 299.89086,421.19827 L 256.73162,258.77105 L 256.11285,258.77105 L 213.10831,421.19827 L 184.64488,421.19827 z M 418.18666,421.19827 L 418.18666,260.62736 L 450.51741,260.62736 L 450.51741,421.19827 L 418.18666,421.19827 z M 418.18666,228.14192 L 418.18666,195.81117 L 450.51741,195.81117 L 450.51741,228.14192 L 418.18666,228.14192 z M 501.36727,382.37043 L 501.36727,195.81117 L 533.69802,195.81117 L 533.69802,379.74066 C 533.69797,387.16594 537.71997,390.87855 545.76404,390.87852 L 556.74722,390.87852 L 556.74722,421.19827 L 542.5155,421.19827 C 530.75881,421.19827 520.96162,418.33646 513.12391,412.61283 C 505.28612,406.88922 501.36725,396.80843 501.36727,382.37043 L 501.36727,382.37043 z M 573.25529,394.43645 L 595.84041,372.16072 C 609.86583,385.87683 626.72731,392.73486 646.42489,392.73484 C 655.60323,392.73486 663.18316,391.00746 669.1647,387.55263 C 675.14604,384.09787 678.13676,378.96724 678.13687,372.16072 C 678.13676,362.7761 671.58812,357.51655 658.49091,356.38208 L 630.02747,353.7523 C 616.72386,352.72109 605.68914,348.33813 596.92326,340.60343 C 588.15733,332.86889 583.77438,322.09198 583.77439,308.27268 C 583.77438,291.97852 589.498,279.65469 600.94527,271.30115 C 612.39248,262.94791 626.62418,258.77121 643.64042,258.77105 C 657.6658,258.77121 669.68024,260.75643 679.6838,264.72672 C 689.68713,268.69731 698.65929,273.98264 706.60031,280.58271 L 686.64496,304.09598 C 680.25089,299.76471 673.65068,296.20678 666.84431,293.42219 C 660.03775,290.63786 652.30313,289.24562 643.64042,289.24549 C 633.32752,289.24562 626.1601,291.07615 622.13815,294.73708 C 618.1161,298.39826 616.1051,303.01325 616.10514,308.58207 C 616.1051,312.08854 617.60046,315.33708 620.59123,318.3277 C 623.5819,321.31852 629.15082,323.12327 637.29803,323.74194 L 663.90515,325.59825 C 680.50871,326.73276 692.42003,331.86339 699.63914,340.99016 C 706.85799,350.1171 710.46748,361.02291 710.46762,373.70765 C 710.46748,389.48632 704.02196,401.65546 691.13105,410.2151 C 678.23989,418.77476 662.51283,423.05458 643.94981,423.05458 C 617.23951,423.05458 593.67469,413.51521 573.25529,394.43645 L 573.25529,394.43645 z M 753.11875,260.62736 L 753.11875,211.8992 L 785.4495,211.8992 L 785.4495,260.62736 L 808.96278,260.62736 L 808.96278,285.37818 L 785.4495,285.37818 L 785.4495,378.8125 C 785.44945,386.85655 789.26519,390.87855 796.89675,390.87852 L 808.96278,390.87852 L 808.96278,421.19827 L 792.10128,421.19827 C 780.86024,421.19827 771.55291,417.79504 764.17927,410.98856 C 756.80557,404.1821 753.11873,394.43648 753.11875,381.75166 L 753.11875,285.37818 L 737.03072,285.37818 L 737.03072,260.62736 L 753.11875,260.62736 z M 971.5007,353.13353 L 871.56929,353.13353 C 871.56924,366.33402 875.15295,376.23434 882.32042,382.83451 C 889.48778,389.43476 898.64042,392.73486 909.77836,392.73484 C 923.08182,392.73486 934.83845,387.57845 945.04827,377.26558 L 968.40685,397.22092 C 960.46583,406.50249 951.51945,413.12848 941.56768,417.09892 C 931.61569,421.06936 921.22551,423.05458 910.39713,423.05458 C 893.89652,423.05458 877.91163,417.71769 862.44242,407.0439 C 846.97314,396.37014 839.23852,374.53272 839.23854,341.53159 C 839.23852,310.2838 846.38016,288.67842 860.66346,276.71539 C 874.94669,264.75266 889.87451,258.77121 905.44696,258.77105 C 923.08182,258.77121 938.4995,264.88157 951.70005,277.10212 C 964.90034,289.32297 971.50056,305.79771 971.5007,326.52641 L 971.5007,353.13353 z M 871.56929,326.52641 L 939.32464,326.52641 C 938.80889,314.46049 935.40565,305.23051 929.11493,298.83643 C 922.824,292.4426 914.93469,289.24562 905.44696,289.24549 C 895.85595,289.24562 887.88929,292.4426 881.54696,298.83643 C 875.20451,305.23051 871.87863,314.46049 871.56929,326.52641 L 871.56929,326.52641 z M 1013.5331,421.19827 L 1013.5331,260.62736 L 1045.8638,260.62736 L 1045.8638,277.79824 L 1046.4826,277.79824 C 1056.486,265.1136 1070.4083,258.77121 1088.2496,258.77105 C 1100.0061,258.77121 1111.1955,262.89635 1121.8179,271.14646 L 1098.4593,298.99113 C 1091.4465,293.7317 1084.3306,291.10193 1077.1117,291.1018 C 1069.1708,291.10193 1061.9776,293.75749 1055.5321,299.06847 C 1049.0865,304.3797 1045.8638,312.91357 1045.8638,324.6701 L 1045.8638,421.19827 L 1013.5331,421.19827 z "
     style="font-size:316.8104248px;font-style:normal;font-variant:normal;font-weight:normal;font-stretch:normal;text-align:center;line-height:100%;letter-spacing:8px;writing-mode:lr-tb;text-anchor:middle;fill:black;fill-opacity:1;stroke:none;stroke-width:1px;stroke-linecap:butt;stroke-linejoin:miter;stroke-opacity:1;font-family:DIN 1451 Mittelschrift"
     id="text2030" />
  <g
     transform="translate(-1.460369,0)"
     style="fill:black"
     id="g2049">
    <path
       d="M 147.82635,624.7954 L 147.82635,527.25621 L 162.62124,527.25621 L 162.62124,577.53207 L 162.95597,577.53207 L 203.05616,527.25621 L 220.66275,527.25621 L 189.39933,565.74971 L 223.94307,624.7954 L 206.40342,624.7954 L 179.75922,577.1304 L 162.62124,595.07172 L 162.62124,624.7954 L 147.82635,624.7954 z M 237.11457,624.7954 L 237.11457,555.30626 L 251.10612,555.30626 L 251.10612,562.73718 L 251.3739,562.73718 C 255.703,557.24774 261.72806,554.50298 269.44911,554.50291 C 274.5369,554.50298 279.37927,556.28819 283.97623,559.85853 L 273.8675,571.90867 C 270.8326,569.63259 267.75313,568.49452 264.62906,568.49447 C 261.1925,568.49452 258.07955,569.64375 255.2902,571.94214 C 252.50079,574.24065 251.1061,577.93379 251.10612,583.02158 L 251.10612,624.7954 L 237.11457,624.7954 z M 348.22693,595.3395 L 304.98031,595.3395 C 304.98029,601.05218 306.53119,605.33667 309.63301,608.19298 C 312.73477,611.04933 316.6957,612.47749 321.51578,612.47748 C 327.27303,612.47749 332.36086,610.24599 336.77929,605.78296 L 346.88802,614.41889 C 343.45144,618.43561 339.57978,621.30309 335.27303,623.02135 C 330.96617,624.73961 326.46969,625.59874 321.78356,625.59874 C 314.64271,625.59874 307.72504,623.28913 301.03054,618.66991 C 294.33601,614.0507 290.98876,604.60028 290.98876,590.31861 C 290.98876,576.79572 294.07939,567.44571 300.26067,562.26856 C 306.44193,557.09153 312.90214,554.50298 319.64132,554.50291 C 327.27303,554.50298 333.94523,557.14732 339.65794,562.43592 C 345.37054,567.72465 348.22687,574.85431 348.22693,583.82492 L 348.22693,595.3395 z M 304.98031,583.82492 L 334.30232,583.82492 C 334.07912,578.60324 332.60633,574.60885 329.88394,571.84173 C 327.16146,569.07471 323.74725,567.69118 319.64132,567.69112 C 315.49068,567.69118 312.04301,569.07471 309.29828,571.84173 C 306.5535,574.60885 305.11418,578.60324 304.98031,583.82492 L 304.98031,583.82492 z M 367.35655,624.7954 L 367.35655,555.30626 L 381.3481,555.30626 L 381.3481,624.7954 L 367.35655,624.7954 z M 367.35655,541.24776 L 367.35655,527.25621 L 381.3481,527.25621 L 381.3481,541.24776 L 367.35655,541.24776 z M 396.19323,613.21388 L 405.96724,603.57376 C 412.03692,609.50959 419.33394,612.47749 427.85833,612.47748 C 431.83037,612.47749 435.11068,611.72994 437.69927,610.23481 C 440.28778,608.73972 441.58205,606.51937 441.5821,603.57376 C 441.58205,599.51245 438.74804,597.23631 433.08005,596.74535 L 420.76213,595.60728 C 415.00482,595.16101 410.2294,593.26423 406.43585,589.91694 C 402.64228,586.56971 400.7455,581.90587 400.74551,575.92539 C 400.7455,568.87388 403.22247,563.54058 408.17643,559.92548 C 413.13036,556.3105 419.28931,554.50298 426.65331,554.50291 C 432.72297,554.50298 437.92238,555.36211 442.25155,557.0803 C 446.58062,558.79863 450.46344,561.08592 453.90002,563.94219 L 445.26408,574.11786 C 442.49697,572.24345 439.64064,570.70371 436.6951,569.49864 C 433.74947,568.29369 430.40221,567.69118 426.65331,567.69112 C 422.19027,567.69118 419.08848,568.48336 417.34793,570.06768 C 415.60733,571.6521 414.73704,573.6493 414.73706,576.05928 C 414.73704,577.57675 415.38418,578.9826 416.67847,580.27683 C 417.97272,581.57114 420.38275,582.35217 423.90856,582.61991 L 435.42314,583.42325 C 442.60854,583.91422 447.76332,586.13457 450.88748,590.0843 C 454.01153,594.0341 455.57359,598.75373 455.57365,604.24322 C 455.57359,611.07164 452.78421,616.33799 447.2055,620.04229 C 441.62668,623.74659 434.82059,625.59874 426.7872,625.59874 C 415.22797,625.59874 405.02999,621.47046 396.19323,613.21388 L 396.19323,613.21388 z "
       style="font-size:137.1038208px;font-style:normal;font-variant:normal;font-weight:normal;font-stretch:normal;text-align:center;line-height:100%;letter-spacing:4px;writing-mode:lr-tb;text-anchor:middle;fill:black;fill-opacity:1;stroke:none;stroke-width:1px;stroke-linecap:butt;stroke-linejoin:miter;stroke-opacity:1;font-family:DIN 1451 Mittelschrift"
       id="text2035" />
    <path
       d="M 522.75303,613.07284 L 532.52676,601.96024 C 536.18631,604.90577 540.40374,607.2711 545.17905,609.05624 C 549.95432,610.84141 554.95275,611.73399 560.17437,611.73397 C 566.19922,611.73399 570.92988,610.48438 574.36636,607.98514 C 577.80273,605.48594 579.52094,602.20572 579.521,598.14447 C 579.52094,590.46833 575.2812,586.07239 566.80176,584.95663 C 564.57027,584.68889 562.49503,584.42112 560.57603,584.15331 C 558.65695,583.88557 556.4255,583.57317 553.88169,583.2161 C 545.4468,582.05579 539.02025,578.96524 534.602,573.94444 C 530.18373,568.92375 527.9746,562.86538 527.97461,555.76932 C 527.9746,547.46842 530.75275,540.64021 536.30906,535.28465 C 541.86534,529.92928 549.68654,527.25155 559.77271,527.25145 C 565.79756,527.25155 571.46543,528.21107 576.77632,530.13001 C 582.0871,532.04915 586.97396,534.48142 591.43692,537.42684 L 583.20288,549.61053 C 579.63251,547.37916 575.79443,545.5717 571.68863,544.18812 C 567.58272,542.80471 563.38761,542.11296 559.10327,542.11287 C 554.55109,542.11296 550.69069,543.27331 547.52207,545.59393 C 544.3534,547.91471 542.76907,551.39576 542.76909,556.03709 C 542.76907,558.80415 543.84016,561.39263 545.98237,563.80252 C 548.12453,566.21254 551.67253,567.79687 556.62637,568.5555 C 557.92057,568.7787 559.48258,569.01301 561.3124,569.25841 C 563.14215,569.50392 565.2397,569.76054 567.60508,570.02826 C 576.70932,571.14403 583.43712,574.44657 587.7885,579.93587 C 592.13975,585.42527 594.31541,591.4948 594.31548,598.14447 C 594.31541,607.1149 591.2137,614.077 585.01035,619.0308 C 578.80688,623.98461 570.48359,626.46151 560.04048,626.46151 C 545.35754,626.46151 532.92841,621.99862 522.75303,613.07284 L 522.75303,613.07284 z M 613.57857,556.17098 L 613.57857,535.08382 L 627.56973,535.08382 L 627.56973,556.17098 L 637.74512,556.17098 L 637.74512,566.88192 L 627.56973,566.88192 L 627.56973,607.31571 C 627.56971,610.79678 629.22098,612.5373 632.52354,612.53729 L 637.74512,612.53729 L 637.74512,625.65819 L 630.4483,625.65819 C 625.58372,625.65819 621.55597,624.18544 618.36502,621.23993 C 615.17404,618.29443 613.57856,614.077 613.57857,608.58763 L 613.57857,566.88192 L 606.61646,566.88192 L 606.61646,556.17098 L 613.57857,556.17098 z M 708.62154,596.20311 L 665.37613,596.20311 C 665.37611,601.91564 666.92696,606.20001 670.02869,609.05624 C 673.13037,611.9125 677.09118,613.34062 681.91114,613.34061 C 687.66822,613.34062 692.75591,611.10918 697.17422,606.64628 L 707.28267,615.28197 C 703.84619,619.29858 699.97463,622.16598 695.668,623.88419 C 691.36126,625.6024 686.8649,626.46151 682.17891,626.46151 C 675.03826,626.46151 668.12078,624.15197 661.42647,619.53287 C 654.73212,614.91379 651.38496,605.46363 651.38496,591.18236 C 651.38496,577.65985 654.47551,568.3101 660.65662,563.13309 C 666.8377,557.9562 673.29773,555.36773 680.03672,555.36766 C 687.66822,555.36773 694.34024,558.01199 700.05279,563.30045 C 705.76523,568.58903 708.62148,575.71849 708.62154,584.68885 L 708.62154,596.20311 z M 665.37613,584.68885 L 694.69732,584.68885 C 694.47413,579.46732 693.00137,575.47303 690.27906,572.70599 C 687.55665,569.93905 684.14254,568.55556 680.03672,568.5555 C 675.8862,568.55556 672.43862,569.93905 669.69397,572.70599 C 666.94927,575.47303 665.50999,579.46732 665.37613,584.68885 L 665.37613,584.68885 z M 727.75074,625.65819 L 727.75074,556.17098 L 741.7419,556.17098 L 741.7419,625.65819 L 727.75074,625.65819 z M 727.75074,542.11287 L 727.75074,528.12171 L 741.7419,528.12171 L 741.7419,542.11287 L 727.75074,542.11287 z M 764.28522,625.65819 L 764.28522,556.17098 L 778.27638,556.17098 L 778.27638,563.60169 L 778.54416,563.60169 C 782.87313,558.11241 788.89803,555.36773 796.61886,555.36766 C 802.01892,555.36773 807.22934,557.42066 812.25014,561.52645 C 817.27083,565.63237 819.7812,571.61264 819.78127,579.46727 L 819.78127,625.65819 L 805.79011,625.65819 L 805.79011,584.28719 C 805.79005,579.6012 804.48466,575.94164 801.87392,573.30848 C 799.26308,570.67543 796.01633,569.35888 792.13366,569.35882 C 788.11702,569.35888 784.80333,570.67543 782.19257,573.30848 C 779.58175,575.94164 778.27636,579.6012 778.27638,584.28719 L 778.27638,625.65819 L 764.28522,625.65819 z M 841.9229,625.65819 L 841.9229,528.12171 L 855.91406,528.12171 L 855.91406,563.60169 C 858.50251,561.14717 861.23603,559.16118 864.11463,557.64373 C 866.99316,556.12642 870.23991,555.36773 873.85488,555.36766 C 878.09459,555.36773 881.75415,556.22684 884.8336,557.94498 C 887.91294,559.66326 890.45678,561.8166 892.46514,564.40501 C 894.38412,566.90429 895.68951,569.81633 896.38133,573.14112 C 897.07301,576.46603 897.41888,582.36819 897.41895,590.84764 C 897.41888,599.41642 897.07301,605.38553 896.38133,608.75499 C 895.68951,612.12449 894.38412,615.03652 892.46514,617.4911 C 890.45678,620.12421 887.91294,622.27755 884.8336,623.95114 C 881.75415,625.62472 878.09459,626.46151 873.85488,626.46151 C 866.71423,626.46151 860.73396,623.78378 855.91406,618.42831 L 855.91406,625.65819 L 841.9229,625.65819 z M 869.63745,569.35882 C 863.07697,569.35888 859.14963,571.70189 857.85542,576.38788 C 856.56116,581.07396 855.91404,585.89387 855.91406,590.84764 C 855.91404,595.93537 856.56116,600.82223 857.85542,605.50824 C 859.14963,610.19429 863.07697,612.5373 869.63745,612.53729 C 876.19786,612.5373 880.13636,610.28355 881.45296,605.77601 C 882.76946,601.26852 883.42773,596.2924 883.42779,590.84764 C 883.42773,585.53684 882.76946,580.62767 881.45296,576.1201 C 880.13636,571.61264 876.19786,569.35888 869.63745,569.35882 L 869.63745,569.35882 z M 917.15065,602.3619 L 917.15065,556.17098 L 931.14182,556.17098 L 931.14182,597.60892 C 931.14179,602.33961 932.44719,606.01033 935.058,608.62111 C 937.66876,611.23191 940.98246,612.5373 944.99909,612.53729 C 948.88177,612.5373 952.12852,611.23191 954.73935,608.62111 C 957.35009,606.01033 958.65549,602.33961 958.65554,597.60892 L 958.65554,556.17098 L 972.6467,556.17098 L 972.6467,625.65819 L 958.65554,625.65819 L 958.65554,618.29442 L 958.38776,618.29442 C 954.05871,623.73915 948.07845,626.46151 940.44694,626.46151 C 934.95756,626.46151 929.70251,624.41974 924.68178,620.33619 C 919.66102,616.25266 917.15064,610.26123 917.15065,602.3619 L 917.15065,602.3619 z M 994.78835,625.65819 L 994.78835,556.17098 L 1008.7795,556.17098 L 1008.7795,563.60169 L 1009.0473,563.60169 C 1013.3763,558.11241 1019.4012,555.36773 1027.122,555.36766 C 1032.2096,555.36773 1037.0519,557.15289 1041.6487,560.72313 L 1031.5403,572.77293 C 1028.5054,570.49692 1025.4261,569.35888 1022.3021,569.35882 C 1018.8656,569.35888 1015.7527,570.50807 1012.9635,572.80641 C 1010.1741,575.10485 1008.7795,578.79788 1008.7795,583.88553 L 1008.7795,625.65819 L 994.78835,625.65819 z M 1091.1032,625.59125 L 1091.1032,618.42831 C 1086.2386,623.78378 1080.2584,626.46151 1073.1624,626.46151 C 1068.6102,626.46151 1064.8056,625.55778 1061.7486,623.75031 C 1058.6915,621.94284 1056.3819,620.03495 1054.8199,618.02665 C 1052.8116,615.43818 1051.4393,612.69351 1050.7029,609.79261 C 1049.9665,606.89175 1049.5983,600.6214 1049.5983,590.98153 C 1049.5983,581.34173 1049.9665,575.07137 1050.7029,572.17044 C 1051.4393,569.26962 1052.8116,566.50263 1054.8199,563.86947 C 1056.3819,561.90586 1058.6915,559.99798 1061.7486,558.14581 C 1064.8056,556.29378 1068.6102,555.36773 1073.1624,555.36766 C 1079.946,555.36773 1085.9262,558.11241 1091.1032,563.60169 L 1091.1032,556.17098 L 1105.0944,556.17098 L 1105.0944,624.05155 C 1105.0943,634.49471 1102.0484,642.19318 1095.9566,647.14701 C 1089.8647,652.10079 1082.8692,654.57769 1074.9699,654.57772 C 1070.507,654.57769 1066.1333,653.5066 1061.849,651.36444 C 1057.5646,649.22223 1053.8827,646.41061 1050.8033,642.92958 L 1061.6481,634.29388 C 1063.344,635.98977 1065.3635,637.46253 1067.7065,638.71215 C 1070.0495,639.96174 1072.5599,640.58655 1075.2376,640.58656 C 1079.879,640.58655 1083.6836,639.29231 1086.6515,636.70385 C 1089.6193,634.11536 1091.1032,630.41116 1091.1032,625.59125 L 1091.1032,625.59125 z M 1063.5895,590.98153 C 1063.5895,596.56017 1063.7345,600.26437 1064.0246,602.09413 C 1064.3147,603.92393 1065.0845,605.61983 1066.3342,607.18182 C 1067.2714,608.43145 1068.6549,609.63643 1070.4847,610.79676 C 1072.3144,611.95713 1074.6351,612.5373 1077.4468,612.53729 C 1080.1691,612.5373 1082.434,611.95713 1084.2415,610.79676 C 1086.049,609.63643 1087.4436,608.43145 1088.4255,607.18182 C 1089.6304,605.61983 1090.378,603.92393 1090.6681,602.09413 C 1090.9581,600.26437 1091.1032,596.56017 1091.1032,590.98153 C 1091.1032,585.40296 1090.9581,581.69876 1090.6681,579.86893 C 1090.378,578.03919 1089.6304,576.32098 1088.4255,574.71429 C 1087.4436,573.50936 1086.049,572.31554 1084.2415,571.13282 C 1082.434,569.95021 1080.1691,569.35888 1077.4468,569.35882 C 1074.6351,569.35888 1072.3144,569.95021 1070.4847,571.13282 C 1068.6549,572.31554 1067.2714,573.50936 1066.3342,574.71429 C 1065.0845,576.32098 1064.3147,578.03919 1064.0246,579.86893 C 1063.7345,581.69876 1063.5895,585.40296 1063.5895,590.98153 L 1063.5895,590.98153 z "
       style="font-size:137.1000061px;font-style:normal;font-variant:normal;font-weight:normal;font-stretch:normal;text-align:center;line-height:100%;letter-spacing:4px;writing-mode:lr-tb;text-anchor:middle;fill:black;fill-opacity:1;stroke:none;stroke-width:1px;stroke-linecap:butt;stroke-linejoin:miter;stroke-opacity:1;font-family:DIN 1451 Mittelschrift"
       id="text2043" />
  </g>
  <path
     d="M 29.179051,60.080509 L 28.872378,775.82864 C 28.872378,793.87387 41.774315,809.1568 66.620238,809.1568 L 1192.2551,809.1568 C 1208.2416,809.1568 1220.3825,795.14877 1220.3825,773.72102 L 1220.8245,65.862201 C 1220.8245,40.271544 1207.0752,30.57716 1182.8877,30.57716 L 58.457319,31.01913 C 39.138544,31.01913 29.179051,46.019031 29.179051,60.080509 z "
     style="fill:none;fill-opacity:0.75;fill-rule:evenodd;stroke:black;stroke-width:18;stroke-linecap:butt;stroke-linejoin:miter;stroke-miterlimit:4;stroke-dasharray:none;stroke-opacity:1"
     id="path2057" />
</svg>
