<?xml version="1.0" encoding="UTF-8" standalone="no"?>
<!-- Created with Inkscape (http://www.inkscape.org/) -->
<svg
   xmlns:svg="http://www.w3.org/2000/svg"
   xmlns="http://www.w3.org/2000/svg"
   version="1.0"
   width="480"
   height="480"
   id="svg2">
  <defs
     id="defs4" />
  <path
     d="M 30.856274,5.7720243 L 450.86109,5.7720243 C 461.67691,6.5627045 473.93298,17.615789 474.52755,30.636789 L 474.52755,449.4433 C 474.57722,459.76184 462.73404,473.63554 449.36321,474.30807 L 29.957547,474.30807 C 20.433732,473.72489 5.5262338,458.92955 5.0927831,449.14373 L 5.691934,30.936364 C 4.6103723,24.633922 19.978002,5.6381226 30.856274,5.7720243 z "
     style="fill:white;fill-opacity:1;fill-rule:evenodd;stroke:black;stroke-width:2;stroke-linecap:butt;stroke-linejoin:miter;stroke-miterlimit:4;stroke-dasharray:none;stroke-opacity:1"
     id="path3669" />
  <path
     d="M 35.1875,16.78125 C 23.426887,16.266334 16.714331,24.30046 17.15625,37.15625 L 17.15625,443.5625 C 17.202803,452.2297 20.884421,462.63293 32.84375,462.84375 L 447.28125,462.8125 C 459.24058,462.6017 462.95345,452.19845 463,443.53125 L 463,37.09375 C 463.44191,24.237959 456.72937,16.20383 444.96875,16.71875 L 35.1875,16.78125 z "
     style="fill:#039;fill-opacity:1;fill-rule:evenodd;stroke:none;stroke-width:1px;stroke-linecap:butt;stroke-linejoin:miter;stroke-opacity:0.94117647"
     id="path3661" />
  <path
     d="M 240.63492,61.587301 L 45.714286,399.95904 L 434.92064,399.95904 L 240.63492,61.587301 z "
     style="fill:white;fill-opacity:1;fill-rule:evenodd;stroke:none;stroke-width:1px;stroke-linecap:butt;stroke-linejoin:miter;stroke-opacity:1"
     id="path5511" />
  <g
     transform="matrix(0.768565,0,0,0.768565,488.3241,-184.1601)"
     id="g5501">
    <path
       d="M -305.84183,421.68087 C -305.84183,435.59533 -317.12175,446.87525 -331.03621,446.87525 C -344.95068,446.87525 -356.23059,435.59533 -356.23059,421.68087 C -356.23059,407.7664 -344.95068,396.48648 -331.03621,396.48648 C -317.12175,396.48648 -305.84183,407.7664 -305.84183,421.68087 L -305.84183,421.68087 z "
       style="fill:black;fill-opacity:1;fill-rule:nonzero;stroke:none;stroke-width:7;stroke-linecap:round;stroke-linejoin:round;stroke-miterlimit:4;stroke-dasharray:none;stroke-dashoffset:0;stroke-opacity:1"
       id="path5663" />
    <path
       d="M -531.60012,747.84425 L -475.95792,747.84425 L -436.41667,658.36228 L -478.28163,658.36228 L -531.60012,747.84425 z "
       style="fill:black;fill-opacity:1;fill-rule:evenodd;stroke:none;stroke-width:1px;stroke-linecap:butt;stroke-linejoin:miter;stroke-opacity:1"
       id="path5645" />
    <path
       d="M -441.71179,748.25061 L -386.64098,748.25061 L -378.1207,702.67783 C -395.86704,713.09136 -407.90291,709.24232 -419.17294,702.84286 L -394.58987,658.28598 L -411.63042,658.28598 L -441.71179,748.25061 z "
       style="fill:black;fill-opacity:1;fill-rule:evenodd;stroke:none;stroke-width:1px;stroke-linecap:butt;stroke-linejoin:miter;stroke-opacity:1"
       id="path5647" />
    <path
       d="M -351.29022,747.84425 L -294.70842,747.84425 L -303.22869,658.1591 L -343.50636,658.1591 L -351.29022,747.84425 z "
       style="fill:black;fill-opacity:1;fill-rule:evenodd;stroke:none;stroke-width:1px;stroke-linecap:butt;stroke-linejoin:miter;stroke-opacity:1"
       id="path5649" />
    <path
       d="M -260.95738,748.00928 L -204.85824,748.41564 L -236.24742,657.71459 L -242.48213,658.52731 C -234.36401,675.65844 -225.98906,694.51668 -256.22122,711.41371 L -270.20653,685.16109 L -272.08084,683.71992 L -260.95738,748.00928 z "
       style="fill:black;fill-opacity:1;fill-rule:evenodd;stroke:none;stroke-width:1px;stroke-linecap:butt;stroke-linejoin:miter;stroke-opacity:1"
       id="path5651" />
    <path
       d="M -169.76123,748.41564 L -114.6017,748.41564 L -169.39302,657.75274 L -210.28023,658.1591 L -169.76123,748.41564 z "
       style="fill:black;fill-opacity:1;fill-rule:evenodd;stroke:none;stroke-width:1px;stroke-linecap:butt;stroke-linejoin:miter;stroke-opacity:1"
       id="path5653" />
    <path
       d="M -343.50636,571.34077 L -293.43937,571.34077 L -293.2079,575.84728 L -240.06372,675.39296 C -239.02368,691.6655 -246.43344,697.9039 -253.85607,704.12702 L -318.22038,585.74266 L -380.28597,696.65617 C -397.82544,707.75808 -404.27481,703.10038 -411.89344,700.10425 L -343.98011,576.73933 L -343.50636,571.34077 z "
       style="fill:black;fill-opacity:1;fill-rule:evenodd;stroke:none;stroke-width:1px;stroke-linecap:butt;stroke-linejoin:miter;stroke-opacity:1"
       id="path5659" />
    <path
       d="M -406.21292,560.85962 L -343.43013,466.58384 C -335.77688,456.42497 -324.23713,451.4481 -305.23219,456.42482 L -255.65614,497.06093 L -250.37344,506.81359 L -250.37344,545.82426 C -255.17806,556.02346 -262.04655,562.95486 -273.33284,562.89142 L -273.33284,512.70583 L -293.04136,495.2323 L -293.04136,565.73595 L -344.03967,565.73595 L -344.03967,509.25176 L -379.18991,560.65643 C -389.31812,566.32684 -398.77755,568.65337 -406.21292,560.85962 z "
       style="fill:black;fill-opacity:1;fill-rule:evenodd;stroke:none;stroke-width:1px;stroke-linecap:butt;stroke-linejoin:miter;stroke-opacity:1"
       id="path5661" />
  </g>
</svg>
