<?xml version="1.0" encoding="UTF-8" standalone="no"?>
<!-- Created with Inkscape (http://www.inkscape.org/) -->

<svg
   xmlns:dc="http://purl.org/dc/elements/1.1/"
   xmlns:cc="http://creativecommons.org/ns#"
   xmlns:rdf="http://www.w3.org/1999/02/22-rdf-syntax-ns#"
   xmlns:svg="http://www.w3.org/2000/svg"
   xmlns="http://www.w3.org/2000/svg"
   xmlns:sodipodi="http://sodipodi.sourceforge.net/DTD/sodipodi-0.dtd"
   xmlns:inkscape="http://www.inkscape.org/namespaces/inkscape"
   version="1.0"
   width="753.12"
   height="671.52002"
   id="svg2"
   inkscape:version="0.48.1 r9760"
   sodipodi:docname="Zeichen_124.svg">
  <metadata
     id="metadata16">
    <rdf:RDF>
      <cc:Work
         rdf:about="">
        <dc:format>image/svg+xml</dc:format>
        <dc:type
           rdf:resource="http://purl.org/dc/dcmitype/StillImage" />
      </cc:Work>
    </rdf:RDF>
  </metadata>
  <sodipodi:namedview
     pagecolor="#ffffff"
     bordercolor="#666666"
     borderopacity="1"
     objecttolerance="10"
     gridtolerance="10"
     guidetolerance="10"
     inkscape:pageopacity="0"
     inkscape:pageshadow="2"
     inkscape:window-width="640"
     inkscape:window-height="484"
     id="namedview14"
     showgrid="false"
     inkscape:zoom="0.3514415"
     inkscape:cx="376.56"
     inkscape:cy="335.76001"
     inkscape:window-x="0"
     inkscape:window-y="0"
     inkscape:window-maximized="0"
     inkscape:current-layer="svg2" />
  <defs
     id="defs11" />
  <g
     transform="matrix(1.118133,0,0,1.118133,-44.48418,-39.66434)"
     id="g1875">
    <path
       d="M 71.985614,631.52918 C 60.553114,631.52918 49.989054,625.43 44.272794,615.52918 C 38.556554,605.62833 38.556554,593.43 44.272794,583.52918 L 348.84719,55.99085 C 354.56345,46.09002 365.12751,39.99084 376.56,39.99084 C 387.99251,39.99084 398.55659,46.09002 404.27283,55.99085 L 708.84723,583.52918 C 714.56347,593.43 714.56347,605.62833 708.84723,615.52918 C 703.13097,625.42999 692.56691,631.52918 681.13441,631.52918 L 71.985614,631.52918 z "
       style="fill:white;fill-rule:evenodd;stroke:black;stroke-width:2"
       id="path6" />
    <path
       d="M 71.985614,619.52918 C 64.840294,619.52918 58.237754,615.7172 54.665094,609.52918 C 51.092454,603.34114 51.092454,595.7172 54.665094,589.52918 L 359.23951,61.99086 C 362.81215,55.80282 369.41471,51.99084 376.56,51.99084 C 383.70533,51.99084 390.30787,55.80282 393.88053,61.99086 L 698.45493,589.52918 C 702.02757,595.7172 702.02757,603.34114 698.45493,609.52918 C 694.88227,615.7172 688.27973,619.52918 681.13441,619.52918 L 71.985614,619.52918 z M 141.2677,559.52918 L 376.56,151.99085 L 611.85233,559.52918 L 141.2677,559.52918 z "
       style="fill:#c1121c;fill-rule:evenodd;stroke:none;fill-opacity:1"
       id="path8" />
  </g>
  <path
     d="M 251.98382,404.28319 C 251.66543,380.81233 250.39181,401.00818 264.53801,366.21128 C 274.77239,342.55848 264.40155,348.92654 317.34741,348.06231 C 364.47107,349.01752 354.96446,342.19458 365.79016,367.30294 C 379.34503,399.46165 378.29885,382.63177 378.20788,403.60089 C 377.70754,426.61686 386.21345,420.70369 314.89117,421.47694 C 244.11473,420.52174 252.48417,426.52593 251.98382,404.28319 z M 266.31195,381.63109 L 276.0005,359.2519 C 277.80816,355.27663 277.23144,355.86346 281.45886,355.84044 L 349.19614,355.83313 C 352.86312,355.84662 352.32514,355.60852 353.83572,359.10814 L 363.47038,381.35816 L 266.31195,381.63109 z M 259.38291,424.04436 L 277.50156,424.00395 C 277.44596,446.75209 279.33112,445.48354 269.45051,445.63009 C 257.68475,445.5846 259.54463,446.77229 259.38291,424.04436 z M 352.69016,424.2061 L 370.83912,424.2061 C 370.71783,446.9896 372.37555,445.43299 362.10578,445.49362 C 351.4873,445.3521 352.83672,447.03004 352.69016,424.2061 z "
     style="fill:black;fill-rule:evenodd;stroke:none"
     id="path3794" />
  <path
     d="M 323.78634,428.86156 L 336.51408,397.63919 C 339.64934,389.4738 345.27789,389.78113 350.517,389.52988 L 384.88886,389.72671"
     style="fill:none;fill-opacity:0.75;fill-rule:evenodd;stroke:white;stroke-width:1px;stroke-linecap:butt;stroke-linejoin:miter;stroke-opacity:1"
     id="path4683" />
  <path
     d="M 327.43953,429.79656 L 344.21007,393.77096 L 398.45551,394.18505 L 398.24846,434.97265 L 327.02545,434.35152 L 327.43953,429.79656 z "
     style="fill:white;fill-opacity:1;fill-rule:evenodd;stroke:none;stroke-width:1px;stroke-linecap:butt;stroke-linejoin:miter;stroke-opacity:1"
     id="path4693" />
  <path
     d="M 316.81717,455.92552 C 316.44508,428.49668 314.95669,452.09823 331.48841,411.43339 C 343.44866,383.79193 331.32894,391.23386 393.20328,390.22389 C 448.27359,391.34017 437.16384,383.36667 449.81513,412.70915 C 465.65581,450.29091 464.43321,430.62294 464.32689,455.12816 C 463.74217,482.02541 473.68247,475.11508 390.33283,476.01872 C 307.62107,474.90244 317.40189,481.91914 316.81717,455.92552 z M 333.56151,429.45351 L 344.88388,403.30042 C 346.99636,398.65479 346.32239,399.34058 351.26269,399.31367 L 430.42279,399.30514 C 434.70814,399.32089 434.07944,399.04264 435.84476,403.13242 L 447.10414,429.13455 L 333.56151,429.45351 z M 325.46399,479.0191 L 346.63806,478.97187 C 346.57308,505.55612 348.77614,504.07365 337.22933,504.24492 C 323.47947,504.19176 325.65299,505.57973 325.46399,479.0191 z M 434.50602,479.20812 L 455.71551,479.20812 C 455.57376,505.83369 457.51103,504.01457 445.50943,504.08544 C 433.10031,503.92005 434.67729,505.88094 434.50602,479.20812 z "
     style="fill:black;fill-rule:evenodd;stroke:none"
     id="path3792" />
  <path
     d="M 401.24843,476.21364 L 413.97617,444.99127 C 416.62423,437.29155 422.70874,437.18989 427.97909,436.88196 L 462.35095,437.07879"
     style="fill:none;fill-opacity:0.75;fill-rule:evenodd;stroke:white;stroke-width:1px;stroke-linecap:butt;stroke-linejoin:miter;stroke-opacity:1"
     id="path3796" />
  <path
     d="M 407.4619,482.07508 L 424.23244,446.04948 L 478.47788,446.46357 L 478.27083,487.25117 L 407.04782,486.63004 L 407.4619,482.07508 z "
     style="fill:white;fill-opacity:1;fill-rule:evenodd;stroke:none;stroke-width:1px;stroke-linecap:butt;stroke-linejoin:miter;stroke-opacity:1"
     id="path4691" />
  <path
     d="M 389.91014,514.87887 C 389.47083,482.49599 387.71362,510.36032 407.23121,462.35083 C 421.35165,429.71693 407.04294,438.50297 480.09267,437.31059 C 545.10945,438.62849 531.99313,429.21486 546.92942,463.85701 C 565.63115,508.22657 564.18773,485.00629 564.06221,513.9375 C 563.37188,545.69277 575.10754,537.53434 476.70377,538.60119 C 379.05309,537.2833 390.60047,545.56731 389.91014,514.87887 z M 409.67874,483.62563 L 423.0461,452.74893 C 425.54012,447.26424 424.74442,448.07388 430.577,448.04212 L 524.03455,448.03205 C 529.09389,448.05064 528.35164,447.72214 530.4358,452.55058 L 543.72878,483.24908 L 409.67874,483.62563 z M 400.1187,542.14349 L 425.1171,542.08771 C 425.04039,573.47346 427.64135,571.72324 414.00902,571.92544 C 397.77574,571.86268 400.34183,573.50134 400.1187,542.14349 z M 528.85526,542.36664 L 553.8955,542.36664 C 553.72814,573.80117 556.01531,571.65349 541.84605,571.73716 C 527.19566,571.5419 529.05747,573.85695 528.85526,542.36664 z "
     style="fill:black;fill-rule:evenodd;stroke:none"
     id="Car" />
</svg>
