/* XPM */
static char *noname[] = {
/* width height ncolors chars_per_pixel */
"66 27 4 1",
/* colors */
"` c #000000",
"a c #0000B2",
"b c #FB1441",
"c c #FFFFFF",
/* pixels */
"cccccccccccccccccccccccccccccccbcccccccccccccccccccccccccccccccccc",
"cccccccccccccccccccccccccccccccbcccccccccccccccccccccccccccccccccc",
"cccccccccccccccccccccccccccccccbcccccccccccccccccccccccccccccccccc",
"cccccccccccccccccccccccccccccccbcccccccccccccccccccccccccccccccccc",
"cccccccccccccccccccccccccccccccbcccccccccccccccccccccccccccccccccc",
"ccccccccccccccccccccccccccccbbbbbbcccccccccccccccccccccccccccccccc",
"cccccccccccccccccccccccccccccbbbbbcccccccccccccccccccccccccccccccc",
"cccccccccccccccccccccccccccccbbbbccccccccccccccccccccccccccccccccc",
"ccccccccccccccccccccccccccccccbbbccccccccccccccccccccccccccccccccc",
"ccccccccccccccccccccccccccccccbbcccccccccccccccccccccccccccccccccc",
"cccccccccccccccccccccccccccccccbcccccccccccccccccccccccccccccccccc",
"ccccaacccccccccccccccccccaaccccccccccccccccccccaaccccccccccccccccc",
"cccaccaaaaccccccccccccccaccaaaaaccccccccccccccaccaaaaacccccccccccc",
"cccaccaaccaaaaacccccccccaccacaccaaaaccccccccccaccacaccaaaacccccccc",
"ccccaacaccccca``cccccccccaaccacccca```cccccccccaaccacccca```cccccc",
"cccc``ccacccac``ccccccccc```ccaccacc`cccccccccc```ccaccacc`ccccccc",
"ccccaaaaa``a```ccccccccccaaaaaa`a````ccccccccccaaaaaa`a````ccccccc",
"cccc``ccccacc`c`cccccccccc``cccaccc``ccccccccccc``cccaccc``ccccccc",
"ccccc``cccacc`c`ccccccccccc``cccacc``cccccccccccc``cccacc``ccccccc",
"cc````c`cccac`cc````cccc````c`ccacc`c`````cccc````c`ccacc`c`````cc",
"c`ccc``c``cac`c``ccc`cc`cc`c`c``cac`c`cccc`cc`cc`c`c``cac`c`cccc`c",
"`ccc`cc`cc`a`c`cc`ccc``ccc`cc`cc`a`c`c`cccc``ccc`cc`cc`a`c`c`cccc`",
"`ccc`cc`ccc`a``cc`ccc``cc`ccc`ccc`a``c`cccc``cc`ccc`ccc`a``c`cccc`",
"`ccc`cc`ccc`a``````cc``cc`ccc`ccc`a``````cc``cc`ccc`ccc`a``````cc`",
"`cccccc`ccc````cc``cc``cccccc`ccc````cc``cc``cccccc`ccc````cc``cc`",
"c`cccc`cccccc`c`cccc`cc`cccc`ccccc``c`cccc`cc`cccc`ccccc``c`cccc`c",
"cc````cccccccccc````cccc````cccccccccc````cccc````cccccccccc````cc"
};
