/* XPM */
static char *noname[] = {
/* width height ncolors chars_per_pixel */
"64 25 4 1",
/* colors */
"` c #000000",
"a c #0000B2",
"b c #FFFFFF",
"c c #1F851B",
/* pixels */
"bbbbbbbbbbbbbbbbbbabbbbbbbbbbbbbbbbbbbbbbbbbaababbbbbbbbbbbbbbbb",
"bbbbbbb````bbbbb``aabbbbbbbbbbbbbbbbbbbbbbbbbbbbbbbbbbbbbbbbbbbb",
"ccbbbb``bbb`bbbb``aaabbbbbbbbbbbbbbbbbbbbbbbaaba`bbbbbbbbbbbbbbb",
"bcbbb``bbbbb`b`b``abaaabbbbbbbbbbbbbbbbbbbbaaab`aabb````bbbbbbbb",
"bccbb`bb`b`b`bbb``abbbbabbbbbbbbbbbbbbbbbbabaabaa`b`bbbb`bbbbbbb",
"bcccc`b```bb`bb`bba`bbbaabbbbbbbbbbbbbbbbbabaaaab`b``bbbb`bbbbbb",
"bbccc`bb```b```bbba``aaaabbbbbbbbbbbbbbbbaaaa`ab```bb`bbb`bbbbbc",
"bbcccc`bbb```b`aaabbaabbbbbbbbbbbbbbbbbbaaba``bbbb`bbb`bb`bbbccb",
"bbccccc``````aaa`bbbbaa`abbbbbbbbbbbbbbaaaaaaabbb``bbbbbb`cccccb",
"bbbccccbbbb`a```b`bb`baa`bbbbbbbbbbbbbbb````bbab`b`bbbbb`cccccbb",
"bbbcccccbb`b``bbbb`b```abbbb`bbbbb`bbbbb````bba`bbb`````cccccbbb",
"bbbbcccccbbbbbbbb````bbbbbb``bbbbb``bbbbbbbb`baa`bbbbbbbccccbbbb",
"bbbbbcccccbbbbbb`bbbb`bbbb```````````bbbbb`bb``a`bbbbbbcccccbbbb",
"bbbbbbcccccbbbb`bbbb`b`bb`````````````bbbbbbb`ba``bbbbcccccbbbbb",
"bbbbbbccccccbbb`bbb`bb`bbb```````````bbbbbb``````a`bbccccccbbbbb",
"bbbbbbbccccccbb`bb`bbb`bbbb``bbbbb``bbbbbb`bbbb```bbccccccbbbbbb",
"bbbbbbbbbcccccb`bbbbbb`bbbbb`bbbbb`bbbbbb`bb`b```b`ccccccbbbbbbb",
"bbbbbbbbbbcccccc`bbbb`bbbbbbbbbbbbbbbbbbb`bbb``b`bccccccbbbbbbbb",
"bbbbbbbbbbbcccccc````bbbbbbbbbbbbbbbbbbbb`bb```b`cccccccbbbbbbbb",
"bbbbbbbbbbbbccccccbbbbbbbbbbbbbbbbbbbbbbb``bb`bb`ccccccbbbbbbbbb",
"bbbbbbbbbbbbbcccccbbbbbbbbbbbbbbbbbbbbbbbb``bbb`cccccbbbbbbbbbbb",
"bbbbbbbbbbbbbbbcccbbbbbbbbbbbbbbbbbbbbbbbbb````cccccbbbbbbbbbbbb",
"bbbbbbbbbbbbbbbbcccbbbbbbbbbbbbbbbbbbbbbbbbbbcccccccbbbbbbbbbbbb",
"bbbbbbbbbbbbbbbbbccbbbbbbbbbbbbbbbbbbbbbbbbbbccccccbbbbbbbbbbbbb",
"bbbbbbbbbbbbbbbbbbbcbbbbbbbbbbbbbbbbbbbbbbbbcccccbbbbbbbbbbbbbbb"
};
