/* XPM */
static char *noname[] = {
/* width height ncolors chars_per_pixel */
"29 34 3 1",
/* colors */
"` c #000000",
"a c #0000B2",
"b c #FFFFFF",
/* pixels */
"bbbbbbbbbbbabbbbbbbbbbbbbbbbb",
"bbbbbbbbbaaaaabbbbbbbbbbbbbbb",
"bbbbbbbbbaabaabbbbbbbbbbbbbbb",
"bbbbbbbbaabbaabbbbbbbbbbbbbbb",
"bbbbbbbbbaaaaaabbbbbbbbbbbbbb",
"bbbbbbbbbaaaaaaabbbbbbbbbbbbb",
"bbbbbbbbbbbbbaaabbbbbbbbbbbbb",
"bbbbbbbbbbbbaaaabbbbbbbbbbbbb",
"bbbbbbbbbbbbaabaabbbbbbbbbbbb",
"bbbbbbbbbbbaabbaabbbbbbbbbbbb",
"bbbbbbbbbbaaabbbaabbbbbbbbbbb",
"bbbbbbbbbbaabbbbaabbbbbbbbbbb",
"bbbbbbbbbaaabbbbbaabbbbbbbbbb",
"bbbbbbbbaaabbbbbbaabbbbbbbbbb",
"bbbbbbbaaabbbbbbbaabbbbbbbbbb",
"bbbbbbaaabbbbbbba````bbbbbbbb",
"bbbbbaaabbbbbbbaa````bbbbbbbb",
"bbbbb```bbbbbbaaabb`bbbbbbbbb",
"bbbb``b``````aaa```bbbbbbbbbb",
"bbbbb`b`bbbbaaabbb``bbbbbbbbb",
"bbbbbbb``bbbbaabbb``bbbbbbbbb",
"bbbbbbb`b`bbbaabbb`b`bbbbbbbb",
"bbbbbbb`bb`bbaaab`bb`bbbbbbbb",
"bbb`````bbb`bbaab`bbb`````bbb",
"bb`bbb`b`bbb`baab`bb``bbbb`bb",
"b`bbbb`bb`bbb`aaa`b`bb`bbbb`b",
"`bbbb`bbbb`bbb`aa```bb`bbbbb`",
"`bbbb`bbbb`bbbbaab`b`````bbb`",
"`bbbbbbbbb`bbbba`````````bbb`",
"`bbbbbbbbb`bbbbb````bbbbbbbb`",
"`bbbbbbbbb`bbbbbb``bbbbbbbbb`",
"b`bbbbbbb`bbbbbbbbb`bbbbbbb`b",
"bb`bbbbb`bbbbbbbbbbb`bbbbb`bb",
"bbb`````bbbbbbbbbbbbb`````bbb"
};
