/* XPM */
static char *achtung[] = {
/* columns rows colors chars-per-pixel */
"16 16 46 1",
"  c gray26",
". c #585858",
"X c #5A5A5A",
"o c gray43",
"O c #727272",
"+ c #CC0000",
"@ c #CC0101",
"# c #CC0202",
"$ c #CC0303",
"% c #CE0C0C",
"& c #CE0E0E",
"* c #CF1010",
"= c #D22020",
"- c #D22222",
"; c #D32323",
": c #D43535",
"> c #D53B3B",
", c #D83E3E",
"< c #D34646",
"1 c #DA4747",
"2 c #D55151",
"3 c #D55656",
"4 c #C56A6A",
"5 c #D26666",
"6 c #C97070",
"7 c #CD7575",
"8 c #CA7878",
"9 c #E06464",
"0 c #848484",
"q c gray54",
"w c #B48D8D",
"e c #ABA7A7",
"r c #A9A9A9",
"t c gray67",
"y c #AFAFAF",
"u c #BBBBBB",
"i c #C58686",
"p c #C18888",
"a c #E68585",
"s c #E78A8A",
"d c #EEABAB",
"f c #F5CECE",
"g c #FAE8E8",
"h c #FDF9F9",
"j c gray100",
"k c None",
/* pixels */
"kkkkkkkkkkkkkkkk",
"kkkkkkkkkkkkkkkk",
"kkkkkkk66kkkkkkk",
"kkkkkkk**kkkkkkk",
"kkkkkk3&&3kkkkkk",
"kkkkkp+aa+pkkkkk",
"kkkkk>=er=>kkkkk",
"kkkk8+d  d+8kkkk",
"kkkk=,j..j,=kkkk",
"kkk5+fjOojf+5kkk",
"kkw&9jjq0jj9&wkk",
"kk2&gjjyrjjg&2kk",
"ki+sjjjuujjjs+ik",
"k:=hjjjrrjjjh=:k",
"7+;1111111111;+7",
"4<<<<<<<<<<<<<<4"
};
