/* XPM */
static char * airport_xpm[] = {
"16 16 3 1",
" 	c None",
".	c #D9D9D9",
"+	c #000000",
"     .          ",
"    .+.         ",
"    .+.         ",
"     .+.        ",
"     .++.       ",
" .   .++.       ",
".+....+++.....  ",
".+++++++++++++. ",
" .+++++++++++++.",
".+++++++++++++. ",
".+....+++.....  ",
" .   .++.       ",
"     .+.        ",
"    .+.         ",
"    .+.         ",
"     .          "};
