/* XPM */
static char * ampelf_klein_xpm[] = {
"8 20 21 1",
" 	c None",
".	c #000000",
"+	c #FA1340",
"@	c #FFFF00",
"#	c #0C2407",
"$	c #143A0C",
"%	c #10300A",
"&	c #3BFA34",
"*	c #071504",
"=	c #020801",
"-	c #020701",
";	c #102D08",
">	c #13360B",
",	c #13370B",
"'	c #12340A",
")	c #14390C",
"!	c #13390B",
"~	c #13380B",
"{	c #0E2908",
"]	c #12360B",
"^	c #11330A",
"        ",
"        ",
"        ",
"        ",
"        ",
"  ....  ",
"  .++.  ",
"  .++.  ",
"  ....  ",
"  .@@.  ",
"  .@@#$ ",
"  ...%$ ",
"  .&&*$ ",
"  .&&=  ",
"  ..-;> ",
"    ,')!",
"      ~ ",
"     {$ ",
"     ] ^",
"        "};
