/* XPM */
static char *ampel_klein2_rahmen[] = {
/* columns rows colors chars-per-pixel */
"4 8 4 1",
"  c opaque",
". c #09c409",
"X c #fa1340",
"o c yellow",
/* pixels */
"    ",
" XX ",
" XX ",
" oo ",
" oo ",
" .. ",
" .. ",
"    "
};
