/* XPM */
static char *ampelf_klein2[] = {
/* columns rows colors chars-per-pixel */
"2 6 3 1",
"  c #FA1340",
". c #3BFA34",
"X c yellow",
/* pixels */
"  ",
"  ",
"XX",
"XX",
"..",
".."
};
