/* XPM */
static char * ampel_klein_grey_xpm[] = {
"4 10 4 1",
" 	c #000000000000",
".	c #965896589658",
"X	c #CF3CCF3CCF3C",
"o	c #71C675D671C6",
"    ",
" .. ",
" .. ",
"    ",
" XX ",
" XX ",
"    ",
" oo ",
" oo ",
"    "};
