/* XPM */
static char *ampel[] = {
/* columns rows colors chars-per-pixel */
"6 16 32 1",
"  c black",
". c #000700",
"X c #0A0000",
"o c #0A0900",
"O c #073705",
"+ c #083C05",
"@ c #400000",
"# c #450000",
"$ c #590000",
"% c #660000",
"& c #094606",
"* c #0A4C07",
"= c #5C5600",
"- c #635D00",
"; c #696200",
": c #D40000",
"> c #E00000",
", c #E60000",
"< c #EB0000",
"1 c #F20000",
"2 c #F70000",
"3 c red",
"4 c #16A410",
"5 c #16A810",
"6 c #17AE10",
"7 c #18B111",
"8 c #18B311",
"9 c #19B912",
"0 c #F2E300",
"q c #F5E600",
"w c #F7E800",
"e c #FFF000",
/* pixels */
"  XX  ",
" %21$ ",
" 133< ",
" ,33> ",
" #::@ ",
"  oo  ",
" ;wq- ",
"oweeq ",
"oqee0 ",
" -q0= ",
"      ",
" O45+ ",
" 5996 ",
" 6997 ",
" &77* ",
"  ..  "
};
