/* XPM */
static char *noname[] = {
/* width height ncolors chars_per_pixel */
"6 16 4 1",
/* colors */
"` c #000000",
"a c #FA1340",
"b c #3BFA34",
"c c #FFFF00",
/* pixels */
"``````",
"``aa``",
"`aaaa`",
"`aaaa`",
"``aa``",
"``````",
"``cc``",
"`cccc`",
"`cccc`",
"``cc``",
"``````",
"``bb``",
"`bbbb`",
"`bbbb`",
"``bb``",
"``````"
};
