/* XPM */
static char *ampelf[] = {
/* columns rows colors chars-per-pixel */
"12 32 28 1",
"  c black",
". c #0B2106",
"X c #0E2A08",
"o c #0F2E09",
"O c #103009",
"+ c #113209",
"@ c #11330A",
"# c #12340A",
"$ c #12370A",
"% c #12370B",
"& c #13370A",
"* c #13370B",
"= c #13380B",
"- c #13390B",
"; c #133A0B",
": c #143A0B",
"> c #143A0C",
", c #143B0C",
"< c #15400C",
"1 c #16410D",
"2 c #17440E",
"3 c #2FCA2A",
"4 c #39F031",
"5 c #3BFA34",
"6 c #FA1340",
"7 c #A2B104",
"8 c yellow",
"9 c None",
/* pixels */
"999999999999",
"999999999999",
"999999999999",
"999999999999",
"999999999999",
"999999999999",
"999999999999",
"999999999999",
"999      999",
"999  66  999",
"999 6666 999",
"999 6666 999",
"999  66  999",
"999      999",
"999  88  999",
"999 8887#>>9",
"999 888:>>>9",
"999  88>;>>9",
"999    #>>;9",
"999  55 .;99",
"999 5554 ; 9",
"999 5553#199",
"999  55;#> 9",
"999   ##;#; ",
"99999@#X>>>1",
"99999;@9;,9>",
"99999999># 9",
"9999999 #;,9",
"999999 ;>2# ",
"99999>># 9;;",
"99999>@ 99 o",
"99999>>99999"
};
