/* XPM */
static char * ampelf_xpm[] = {
"12 32 28 1",
" 	c None",
".	c #000000",
"+	c #FA1340",
"@	c #FFFF00",
"#	c #A2B104",
"$	c #12340A",
"%	c #143A0C",
"&	c #143A0B",
"*	c #13390B",
"=	c #11330A",
"-	c #3BFA34",
";	c #0B2106",
">	c #39F031",
",	c #2FCA2A",
"'	c #12370B",
")	c #16410D",
"!	c #13370A",
"~	c #13370B",
"{	c #13380B",
"]	c #12370A",
"^	c #0E2A08",
"/	c #15400C",
"(	c #103009",
"_	c #133A0B",
":	c #143B0C",
"<	c #17440E",
"[	c #113209",
"}	c #0F2E09",
"            ",
"            ",
"            ",
"            ",
"            ",
"            ",
"            ",
"            ",
"   ......   ",
"   ..++..   ",
"   .++++.   ",
"   .++++.   ",
"   ..++..   ",
"   ......   ",
"   ..@@..   ",
"   .@@@#$%  ",
"   .@@@&%%% ",
"   ..@@%*%% ",
"   ....=%%* ",
"   ..--.;*  ",
"   .--->.   ",
"   .---,')  ",
"   ..--!~{  ",
"   ...]~]{{ ",
"     $~^%%%/",
"     {( __ %",
"        {~  ",
"        ~{: ",
"       {%<~ ",
"      %{  *_",
"      [    }",
"            "};
