/* XPM */
static char *ampelf_klein[] = {
/* columns rows colors chars-per-pixel */
"8 20 29 1",
"  c black",
". c #020701",
"X c #020801",
"o c #071504",
"O c #091A05",
"+ c #091B05",
"@ c #0C2407",
"# c #0D2708",
"$ c #0E2908",
"% c #102D08",
"& c #102F0A",
"* c #10300A",
"= c #11330A",
"- c #12330B",
"; c #12340A",
": c #12350A",
"> c #12360B",
", c #13360B",
"< c #13370B",
"1 c #13380B",
"2 c #13390B",
"3 c #14390C",
"4 c #143A0C",
"5 c #143B0C",
"6 c #153F0D",
"7 c #3BFA34",
"8 c #FA1340",
"9 c yellow",
"0 c None",
/* pixels */
"00000000",
"00000000",
"00000000",
"00000000",
"00000000",
"00    00",
"00 88 00",
"00 88 00",
"00    00",
"00 99 00",
"00 99@36",
"00   $33",
"00 77o22",
"00 77.60",
"00  .%,O",
"0000,,32",
"0000,22$",
"0000 $6-",
"0000,,3,",
"0000,O #"
};
