/* XPM */
static char *noname[] = {
/* width height ncolors chars_per_pixel */
"5 7 3 1",
/* colors */
"` c #FA1340",
"a s mask c none",
"b c #FFFFFF",
/* pixels */
"`aaa`",
"``a``",
"abbba",
"aabaa",
"abbba",
"``a``",
"`aaa`"
};
