/* XPM */
static char *noname[] = {
/* width height ncolors chars_per_pixel */
"8 10 4 1",
/* colors */
"` c #000000",
"a c #FA1340",
"b s mask c none",
"c c #FFFFFF",
/* pixels */
"b`bbbb`b",
"`a`bb`a`",
"`aa``aa`",
"b`cccc`b",
"bb`cc`bb",
"bb`cc`bb",
"b`cccc`b",
"`aa``aa`",
"`a`bb`a`",
"b`bbbb`b"
};
