/* XPM */
static char *andreaskr[] = {
/* columns rows colors chars-per-pixel */
"12 16 4 1",
"  c black",
". c #FA1340",
"X c gray100",
"o c None",
/* pixels */
"o  oooooo  o",
" .. oooo .. ",
" .. oooo .. ",
" ... oo ... ",
"o ...  ... o",
"oo .XXXX. oo",
"oo XXXXXX oo",
"ooo XXXX ooo",
"ooo XXXX ooo",
"oo XXXXXX oo",
"oo .XXXX. oo",
"o ...  ... o",
" ... oo ... ",
" .. oooo .. ",
" .. oooo .. ",
"o  oooooo  o"
};
