/* XPM */
static char * apfel_xpm[] = {
"16 16 13 1",
" 	c None",
".	c #000000",
"+	c #800000",
"@	c #008000",
"#	c #808000",
"$	c #E6FAFA",
"%	c #808080",
"&	c #C0C0C0",
"*	c #FF0000",
"=	c #00FF00",
"-	c #FFFF00",
";	c #FF00FF",
">	c #FFFFFF",
"                ",
"   @@           ",
"  @=@@          ",
"   @=%. #       ",
"     @@..       ",
"     +*#.*++    ",
"    *&&;;;&*+   ",
"   +>>*******.  ",
"    +********+  ",
"    #>+******+  ",
"     &&******+  ",
"     &&******+  ",
"    #>+******.  ",
"    ++******+   ",
"     ******+    ",
"      .....     "};
