/* XPM */
static char *aufzug_klein[] = {
/* columns rows colors chars-per-pixel */
"18 19 59 1",
"  c #0D0B00",
". c #1F1C00",
"X c #3A3400",
"o c #24201E",
"O c #2C271D",
"+ c #443D00",
"@ c #433C1A",
"# c #514900",
"$ c #5B5200",
"% c #5C5300",
"& c #5E5500",
"* c #494219",
"= c #4F4618",
"- c #5A5117",
"; c #5B5216",
": c #645A00",
"> c #655B00",
", c #675D00",
"< c #615716",
"1 c #635915",
"2 c #706500",
"3 c #786C00",
"4 c #796D00",
"5 c #7B6F12",
"6 c #8C7E00",
"7 c #847711",
"8 c #897B10",
"9 c #8A7D10",
"0 c #938500",
"q c #9B8C00",
"w c #95860E",
"e c #97890E",
"r c #9A8B0E",
"t c #A49400",
"y c #A99900",
"u c #AE9D00",
"i c #A0910D",
"p c #A3930C",
"a c #AB9B0B",
"s c #B09F0B",
"d c #B2A100",
"f c #B6A400",
"g c #B8A709",
"h c #B9A709",
"j c #BFAD08",
"k c #C3B000",
"l c #CAB607",
"z c #CDBA06",
"x c #C4B108",
"c c #D1BD06",
"v c #DFCA00",
"b c #E5CF03",
"n c #E2CC04",
"m c #E6D003",
"M c #EAD402",
"N c #F0D902",
"B c #F6DF01",
"V c #FBE300",
"C c #FFE700",
/* pixels */
"CCCCCCCCCCCCCCCCCC",
"CCCCCnlCCCCcCCCCCC",
"CCCCbi8xCCso7CCCCC",
"CCCCm@OgCCw-rNCCCC",
"CCNjji5jjjj=gjjCCC",
"CCz-eeeeeeeeee@BCC",
"CCz9CCCCCCCCCC-VCC",
"CCz9CCCCCCCCCC<BCC",
"CCz9CCt3C06CCC1BCC",
"CCz9CCX,2X6CCC-BCC",
"CCz9k& #C$.&dC1VCC",
"CCz9,yqX% 3f$C-VCC",
"CCz9&vM3d+,k,C1BCC",
"CCz9t&:mCm$,uC-BCC",
"CCz9CCCCCCCCCC1VCC",
"CCz9CCCCCCCCCC-BCC",
"CCz1aaaaaaaaaa*VVC",
"CCMppppppppppppVCC",
"CCCCCCCCCCCCCCCCCC"
};
