/* XPM */
static char *aufzug[] = {
/* columns rows colors chars-per-pixel */
"23 24 67 1",
"  c #0A0900",
". c #191600",
"X c #1F1C00",
"o c #231F1E",
"O c #221E1F",
"+ c #252100",
"@ c #2B2600",
"# c #2E2900",
"$ c #383200",
"% c #3F3900",
"& c #27221E",
"* c #2A251D",
"= c #2C271D",
"- c #36301C",
"; c #413A00",
": c #453E00",
"> c #494200",
", c #534B00",
"< c #584F00",
"1 c #595000",
"2 c #5F5600",
"3 c #5A5117",
"4 c #625800",
"5 c #675D00",
"6 c #635915",
"7 c #6F6400",
"8 c #756900",
"9 c #7A6E00",
"0 c #7D7100",
"q c #6A6014",
"w c #716613",
"e c #7B6F12",
"r c #7E7211",
"t c #847700",
"y c #857800",
"u c #8A7D00",
"i c #8C7E10",
"p c #8F810F",
"a c #958600",
"s c #9A8B00",
"d c #94860E",
"f c #97880E",
"g c #9A8B0E",
"h c #A19100",
"j c #A69600",
"k c #AB9A00",
"l c #A1910D",
"z c #A4940C",
"x c #A9980C",
"c c #B7A609",
"v c #BEAC08",
"b c #C0AD00",
"n c #C1AF08",
"m c #C9B600",
"M c #CDB900",
"N c #CFBB06",
"B c #D1BD00",
"V c #D5C000",
"C c #DDC800",
"Z c #E4CE00",
"A c #E7D100",
"S c #EBD400",
"D c #EDD600",
"F c #F1DA01",
"G c #F4DD01",
"H c #F9E200",
"J c #FFE700",
/* pixels */
"JJJJJJJJJJJJJJJJJJJJJJJ",
"JJJJJJJFHJJJJJJJJJJJJJJ",
"JJJJJJJqvJJJJH6xJJJJJJJ",
"JJJJJGw6prJJH6**zJJJJJJ",
"JJJJJJio*nJJGdrflJJJJJJ",
"JJJHGGGrcGGGGGezGGGJJJJ",
"JJJg=-------------&NJJJ",
"JJJgpJJJJJJJJJJJJJ3NJJJ",
"JJJgpJJJJJJJJJJJJJ3NJJJ",
"JJJgpJJJJJJJJJJJJJ3NJJJ",
"JJJgpJJJJ<yJh7VJJJ3NJJJ",
"JJJgpJJJBX<1,#JJJJ3NJJJ",
"JJJgpJJk,.MJu#8sHJ3NJJJ",
"JJJgpJ8a$@+C$%:s2J3NJJJ",
"JJJgpJ>D5j9# 4+A:J3NJJJ",
"JJJgpJ%DJ0bZs;bS>J3NJJJ",
"JJJgpJm:,tJJJt>,MJ3NJJJ",
"JJJgpJJJJJJJJJJJJJ3NJJJ",
"JJJgpJJJJJJJJJJJJJ3NJJJ",
"JJJgpJJJJJJJJJJJJJ3NJJJ",
"JJJgpJJJJJJJJJJJJJ3NJJJ",
"JJJgooOOOOOOOOOOOOONJJJ",
"JJJJJJJJJJJJJJJJJJJJJJJ",
"JJJJJJJJJJJJJJJJJJJJJJJ"
};
