/* XPM */
static char *aufzug_klein_[] = {
/* columns rows colors chars-per-pixel */
"11 12 32 1",
"  c #322D00",
". c #5B5200",
"X c #726700",
"o c #726713",
"O c #7E7211",
"+ c #7F7311",
"@ c #7D7112",
"# c #847700",
"$ c #8D7F00",
"% c #887B10",
"& c #8E8000",
"* c #908200",
"= c #948600",
"- c #968700",
"; c #90820F",
": c #93850F",
"> c #9B8C0D",
", c #9F9000",
"< c #A5950C",
"1 c #BCAA00",
"2 c #BBA909",
"3 c #C6B300",
"4 c #C7B407",
"5 c #C3B008",
"6 c #D4C005",
"7 c #D5C105",
"8 c #DDC804",
"9 c #F4DD01",
"0 c #F8E000",
"q c #F9E200",
"w c #FDE500",
"e c #FFE700",
/* pixels */
"eeeqeeeeeee",
"ee9O6e<Oeee",
"ee9o4q4:qee",
"e2%>>>>>O6e",
"e28eeeee56e",
"e28e#,$e56e",
"e281 3 156e",
"e28-X. *56e",
"e28&-e&-56e",
"e28eeeee56e",
"e2O;;;;;o6e",
"eeeeeeeeeee"
};
