/* XPM */
static char *bbbike_google[] = {
/* columns rows colors chars-per-pixel */
"16 16 139 2",
"   c #202020",
".  c gray25",
"X  c #405666",
"o  c #52566F",
"O  c #606060",
"+  c gray44",
"@  c gray50",
"#  c #BB6038",
"$  c #DF755D",
"%  c #E0735F",
"&  c #E36E64",
"*  c #E66C68",
"=  c #E27061",
"-  c #E27366",
";  c #E07565",
":  c #E4736E",
">  c #799E55",
",  c #006CB9",
"<  c #576090",
"1  c #536999",
"2  c #4E53BB",
"3  c #646CA0",
"4  c #657AB4",
"5  c #6674BE",
"6  c #4960C1",
"7  c #5467C5",
"8  c #647BD3",
"9  c #677EDA",
"0  c #727FD0",
"q  c #56A981",
"w  c #7786B2",
"e  c #6490B1",
"r  c #2088D2",
"t  c #3384DF",
"y  c #448AC0",
"u  c #5C84D7",
"i  c #4997DF",
"p  c #6489CE",
"a  c #718BC2",
"s  c #7588C9",
"d  c #7D8CC9",
"f  c #7B8CCE",
"g  c #6B82D8",
"h  c #6798D5",
"j  c #7092D3",
"k  c #709BD9",
"l  c #55A0DF",
"z  c #5AA5DF",
"x  c #4E96E2",
"c  c #5997E7",
"v  c #5690EA",
"b  c #5D92EC",
"n  c #6E9EE4",
"m  c #689CE9",
"M  c #6E99EF",
"N  c #6F9CED",
"B  c #709BE3",
"V  c #7195EA",
"C  c #7198EF",
"Z  c #6690F2",
"A  c #6691F2",
"S  c #7B96FA",
"D  c #69A8E6",
"F  c #808080",
"G  c gray53",
"H  c gray56",
"J  c #979797",
"K  c #9F9F9F",
"L  c #8096A6",
"P  c #AFAFAF",
"I  c gray75",
"U  c #81CF86",
"Y  c #8ACD86",
"T  c #89CF86",
"R  c #83C98B",
"E  c #85CE89",
"W  c #8FCC89",
"Q  c #85D084",
"!  c #8ED086",
"~  c #83D08A",
"^  c #85D18A",
"/  c #87D18C",
"(  c #8CD089",
")  c #879ACE",
"_  c #8591D5",
"`  c #8DA4D2",
"'  c #8AA9DD",
"]  c #91A6DC",
"[  c #A9B1C3",
"{  c #AAB1DB",
"}  c #8899FF",
"|  c #95AEE3",
" . c #99AFE3",
".. c #87BFE7",
"X. c #93A3FF",
"o. c #9EACFF",
"O. c #B4BCEF",
"+. c #A9B3F3",
"@. c #A4B1FF",
"#. c #AABDFB",
"$. c #B1BCFF",
"%. c #A2C0E5",
"&. c #ABD2EE",
"*. c #AFD4EF",
"=. c #A1C3F2",
"-. c #A8CAF2",
";. c #DFDFDF",
":. c #C9CDE7",
">. c #D9DCEF",
",. c #C3CCFF",
"<. c #C4CCFF",
"1. c #D2DBFD",
"2. c #CDE0EA",
"3. c #DEE7EC",
"4. c #D9E4F7",
"5. c #D4E2FA",
"6. c #D8E1FF",
"7. c #DDE4FD",
"8. c #DFEEF9",
"9. c #DDF0F7",
"0. c #E8E9EF",
"q. c #EFEFEF",
"w. c #E7EFF1",
"e. c #E0E8F7",
"r. c #E3EEF5",
"t. c #EBEDF1",
"y. c #E1E5FF",
"u. c #E7EEF8",
"i. c #E9ECFF",
"p. c #ECEFFF",
"a. c #EEF1FF",
"s. c #F3F3F3",
"d. c gray97",
"f. c #F0F2FF",
"g. c #F6FCFB",
"h. c #FBFBFB",
"j. c #F8F9FF",
"k. c #FCFEFD",
"l. c gray100",
/* pixels */
"y ! W / Y R T ( ^ > l.l.l.l.l.l.",
"M l.9.| f 8 j  .l.% l.l.l.l.l.l.",
"k g.p ] l.l.4.w q.& 1.v r &.l.l.",
"N  .s l.l.l.l.l.l.$ b ..l.p.j.l.",
"V h ` l.l.l.l.l.l.* ..l.i.@.7.l.",
"m u ) l.l.l.l.6.2.- 8.*.,.} y.l.",
"B ' 6 r.l.l._ 7 { ; 5.c i t l #.",
"C w.2 0 e.l.G 4 [ = o.S Z Z -.7.",
"n l.w.d 5 g 9 a 3.: } } } } y.l.",
"> Q ^ Q ^ ^ ~ E E # X.+.O.} :.h.",
"g.g.P + l.w K X , $.>.< 3 } o P ",
"k.g.  h.h.H e x z l.I O <.} y.  ",
"l.l.  l.l.=.D 1 0.l.I O y.,.f.  ",
"l.l.  l.l.p.p.. ;.l.I O l.l.l.  ",
"l.l.P + l.l.G K d.l.q.H K l.+ P ",
"l.l.h.P     J d.l.l.l.s.@   P h."
};
