/* XPM */
static char *noname[] = {
/* width height ncolors chars_per_pixel */
"15 15 2 1",
/* colors */
"` s mask c none",
"a c #9E9E9E",
/* pixels */
"```````````````",
"```````````````",
"````a``aaa`````",
"```aaaaaaa`````",
"``aaaaaaaaa````",
"``aaaaaaaaa````",
"`aaaaaaaaaaaa``",
"`aaaaaaaaaaaa``",
"``aaaaaaaaaaa``",
"`aaaaaaaaaaaaa`",
"`aaaaaaaaaaaaaa",
"`aaaaaaaaaaaaaa",
"`aa`aaaa`aaaaaa",
"```````a````aa`",
"```````````````"
};
