/* XPM */
static char *berliner_stadtplan[] = {
/* columns rows colors chars-per-pixel */
"16 16 41 1",
"  c #5C5858",
". c #5C5C58",
"X c #5C585C",
"o c gray36",
"O c #605C58",
"+ c #605C5C",
"@ c #606060",
"# c #646464",
"$ c #686468",
"% c #706C70",
"& c #747474",
"* c #7C7878",
"= c #7C7C78",
"- c #807C78",
"; c #807C80",
": c #888484",
"> c #888888",
", c gray55",
"< c #908C8C",
"1 c #909090",
"2 c #989498",
"3 c gray61",
"4 c #A09C9C",
"5 c #A8A8A4",
"6 c #ACA8AC",
"7 c #ACACB0",
"8 c #BCBCBC",
"9 c #C0C0C0",
"0 c gray77",
"q c #C8C8C8",
"w c #CCC8CC",
"e c gray80",
"r c #D0D0D0",
"t c gray83",
"y c #D8D4D0",
"u c #D8D8D8",
"i c gainsboro",
"p c gray88",
"a c #E4E4E4",
"s c gray91",
"d c gray94",
/* pixels */
"dddddddddddddddd",
"dddddddddddddddd",
"dddddpppppp01-1i",
"ddpppr#oXoXooXo,",
"arwq4ooXoXoO++o;",
"2ooo.o.y.OOOO @7",
"5o+OO....OOO .&9",
"eo+ooooo+++O.o%8",
"d6=*&++ooXoO.o%8",
"d;o+X++XooXOoo%8",
"d>XX++X+oXoO.o%8",
"st3>&$oX+++O.o&9",
"dpurq<oX+X+Ooo:9",
"ddpppppppppppppp",
"dddddddddddddddd",
"dddddddddddddddd"
};
