/* XPM */
static char *noname[] = {
/* width height ncolors chars_per_pixel */
"32 19 5 1",
/* colors */
"` c #000000",
"a c #800000",
"b s mask c none",
"c c #808080",
"d c #0000FF",
/* pixels */
"bbbb`````bbbbbbbbbbbbbddbbbbbbbb",
"bbb`bbbbb`bbbbbbddddddddbbbbbbbb",
"bbb`bbbb``bbbbbbdbbaabbbbbbbbbbb",
"bbb`bbbb`bbbbbbbbbbabbbbbbbbbbbb",
"bbbb```baaaaaaaaaaaaabbbbbbbbbbb",
"bbbbbbbbaabbbbbbbbbaaabbbbbbbbbb",
"bbbbbbbbababbbbbbbbabaabbbbbbbbb",
"bbb````aabbabbbbbbabbbaa`````bbb",
"bb``bbba``bbabbbbbabb``abbbb``bb",
"b``bbbbab``bbabbbadbb`baabbbb``b",
"``bbbbbabb``bbabbabd``bbabbbbb``",
"`bbbbbabbbb`bbb````b`dbbaabbbbb`",
"`bbbbbabbbb`bb`ccc`b`bbbbaabbbb`",
"`bbbbaabbbb`bb`c`c`aaaaaaaabbbb`",
"`bbbbbbbbbb`bb``cc`b`bbbbbbbbbb`",
"``bbbbbbbb``db````bb``bbbbbbbb``",
"b``bbbbbb``bbdbbbbbbb``bbbbbb``b",
"bb``bbbb``bbbbdbbbbbbb``bbbb``bb",
"bbb``````bbbbbbbbbbbbbb``````bbb"
};
