/* XPM */
static char *birne[] = {
/* columns rows colors chars-per-pixel */
"16 16 6 1",
"  c opaque",
". c #008000",
"X c green",
"o c #800000",
"O c #808000",
"+ c None",
/* pixels */
"++++   +++++++++",
"+++ ..  ++++++++",
"++. ... ++++++++",
"+++ .X. O+++++++",
"+++ ...  +++++++",
"+++  .X.    ++++",
"++++ ...X..  +++",
"++++ ......X  ++",
"+++ ...X..... ++",
"+++ .X...X..X ++",
"+++ ...X...X. ++",
"+++ .X...X... ++",
"+++ ......... ++",
"+++  ..X....o+++",
"++++ ......o++++",
"+++++      +++++"
};
