/* XPM */
static char *cal[] = {
/* columns rows colors chars-per-pixel */
"16 16 31 1 ",
"  c black",
". c gray2",
"X c gray6",
"o c gray12",
"O c #3E3E3E",
"+ c #505050",
"@ c #565656",
"# c #767676",
"$ c #8D8D8D",
"% c #909090",
"& c #939393",
"* c #A0A0A0",
"= c gray63",
"- c gray65",
"; c #A7A7A7",
": c gray70",
"> c #D2D2D2",
", c #D5D5D5",
"< c #D7D7D7",
"1 c #D8D8D8",
"2 c #E4E4E4",
"3 c gray91",
"4 c #EAEAEA",
"5 c gray92",
"6 c #ECECEC",
"7 c #EEEEEE",
"8 c #F4F4F4",
"9 c #F6F6F6",
"0 c gray99",
"q c gray100",
"w c None",
/* pixels */
"wwwwwwwwwwwwwwww",
"wwwwwwwwwwwwwwww",
"www             ",
"www ;;;;;;;;;;* ",
"www             ",
"www qqqqq:6qqq5 ",
"www qqqq*.8qqq5 ",
"www qqq$o <qqq5 ",
"www qqq%< 6qqq6 ",
"www qqqq>Xqqqq5 ",
"ww #qqqq+Oqqqq; ",
"ww 1qqq9@%qqqq w",
"w  qqqqqq2qq6  w",
"              ww",
"wwwwwwwwwwwwwwww",
"wwwwwwwwwwwwwwww"
};
