/* XPM */
static char *cal[] = {
/* columns rows colors chars-per-pixel */
"16 16 4 1",
"  c black",
". c #7C7C7C",
"X c gray100",
"o c None",
/* pixels */
"oooooooooooooooo",
"oooooooooooooooo",
"ooo             ",
"ooo ........... ",
"ooo             ",
"ooo XXXXXXXXXXX ",
"ooo XXXXX XXXXX ",
"ooo XXXX  XXXXX ",
"ooo XXX X XXXXX ",
"ooo XXXXX XXXXX ",
"oo XXXXX XXXXX o",
"oo XXXXX XXXXX o",
"o XXXXXXXXXXX oo",
"             ooo",
"oooooooooooooooo",
"oooooooooooooooo"
};
