/* XPM */
static char * church_xpm[] = {
"8 13 3 1",
" 	c None",
".	c #000000",
"+	c #FFFFFF",
"........",
"........",
"...++...",
"...++...",
".++++++.",
"...++...",
"...++...",
"...++...",
"...++...",
"...++...",
"...++...",
"........",
"........"};
