/* XPM */
static char *noname[] = {
/* width height ncolors chars_per_pixel */
"15 15 5 1",
/* colors */
"` c #000000",
"a c #FA1340",
"b c #A0A0A0",
"c c #F5858A",
"d c #FFFFFF",
/* pixels */
"ddddddddddddddd",
"ddddddddd`ddddd",
"d``bdddd`a`bddd",
"dd``bdd`aaa`bdd",
"ddd`a``aac``bbd",
"dddd`aacc`bbbbd",
"ddddd`ac`bbbddd",
"dddd`acc`bbdddd",
"ddd`a`b`a`bdddd",
"dd`a`bbd`a`bddd",
"d`a`bbddd``bddd",
"d``bbddddd``bdd",
"d`bbddddddd`bdd",
"dbbddddddddbbdd",
"ddddddddddddddd"
};
