/* XPM */
static char *eisenbahn_klein[] = {
/* columns rows colors chars-per-pixel */
"13 10 27 1",
"  c black",
". c #010101",
"X c gray4",
"o c #111111",
"O c #161616",
"+ c #181818",
"@ c #191919",
"# c #1D1D1D",
"$ c #282828",
"% c #2A2A2A",
"& c gray23",
"* c #434343",
"= c #444444",
"- c gray31",
"; c #505050",
": c #515151",
"> c #585858",
", c #6A6A6A",
"< c gray44",
"1 c #808080",
"2 c #848484",
"3 c #C0C0C0",
"4 c LightGray",
"5 c gray83",
"6 c gainsboro",
"7 c gray100",
"8 c None",
/* pixels */
"888..88888888",
"8#$$$+8888888",
"867774.888888",
"*33333#.88888",
".......288888",
".O...O.4-O888",
"X-..X-.*<2,*$",
".........o&>:",
"8............",
"..........888"
};
