/* XPM */
static char *eisenbahn_stillg[] = {
/* columns rows colors chars-per-pixel */
"25 20 52 1",
"  c #646464",
". c #656565",
"X c gray40",
"o c #6D6D6D",
"O c gray44",
"+ c gray45",
"@ c #777777",
"# c #797979",
"$ c #7E7E7E",
"% c gray50",
"& c #818181",
"* c gray51",
"= c #838383",
"- c #868686",
"; c gray53",
": c #888888",
"> c gray54",
", c #8B8B8B",
"< c gray55",
"1 c #8E8E8E",
"2 c gray56",
"3 c #9D9D9D",
"4 c #9F9F9F",
"5 c #A0A0A0",
"6 c gray64",
"7 c #A4A4A4",
"8 c gray66",
"9 c #A9A9A9",
"0 c gray68",
"q c #AEAEAE",
"w c #AFAFAF",
"e c #B2B2B2",
"r c gray71",
"t c gray72",
"y c gray75",
"u c #C0C0C0",
"i c #C3C3C3",
"p c gray77",
"a c #CACACA",
"s c #CDCDCD",
"d c gray81",
"f c #D0D0D0",
"g c #D2D2D2",
"h c gray83",
"j c gray85",
"k c gray91",
"l c gray96",
"z c #F6F6F6",
"x c #F9F9F9",
"c c #FBFBFB",
"v c gray100",
"b c None",
/* pixels */
"bbbb       bbbbbbbbbbbbbb",
"bbbbbb b bbbbbbbbbbbbbbbb",
"bbbbbbb  bbbbbbbbbbbbbbbb",
"bbO,,,,,,,$ bbbbbbbbbbbbb",
"bbgvvvvvvvx# bbbbbbbbbbbb",
"b;vvvvvvvvvt  bbbbbbbbbbb",
"byvvvvvvvvvk  bbbbbbbbbbb",
"b,0000000003   bbbbbbbbbb",
"             11 bbbbbbbbb",
"             1x; bbbbbbbb",
"             ;v6; bbbbbbb",
" O0o     ,3  &v6gi  bbbbb",
" 3v1     gz  oi3hj0po bbb",
"  &      o@     9gez9a9&;",
"                  $r6sh7e",
"                      @@&",
"b                        ",
"bbbbbbbbbbbbbbbbbbbbbbbbb",
"bb   bbbb                ",
"                bbbbbbbbb"
};
