/* XPM */
static char *eisenbahn_stillg_mini[] = {
/* columns rows colors chars-per-pixel */
"5 5 12 1",
"  c #646464",
". c #676767",
"X c gray43",
"o c #7C7C7C",
"O c gray51",
"+ c #868686",
"@ c gray56",
"# c gray59",
"$ c gray60",
"% c #9D9D9D",
"& c #B2B2B2",
"* c None",
/* pixels */
"*****",
"*#***",
"%&+**",
"oXO$#",
"     "
};
