/* XPM */
static char *eisenbahn[] = {
/* columns rows colors chars-per-pixel */
"25 20 58 1",
"  c black",
". c #010101",
"X c #020202",
"o c gray1",
"O c #0E0E0E",
"+ c gray6",
"@ c #131313",
"# c #181818",
"$ c gray12",
"% c #202020",
"& c #232323",
"* c gray17",
"= c #2C2C2C",
"- c #2D2D2D",
"; c #2F2F2F",
": c #323232",
"> c gray20",
", c gray22",
"< c #393939",
"1 c #3A3A3A",
"2 c gray23",
"3 c #3F3F3F",
"4 c gray25",
"5 c #414141",
"6 c gray27",
"7 c #464646",
"8 c #5D5D5D",
"9 c gray38",
"0 c gray39",
"q c #686868",
"w c DimGray",
"e c gray44",
"r c #717171",
"t c #727272",
"y c gray47",
"u c #797979",
"i c #7C7C7C",
"p c #808080",
"a c gray52",
"s c #8B8B8B",
"d c #959595",
"f c #979797",
"g c #9D9D9D",
"h c gray62",
"j c gray66",
"k c #ACACAC",
"l c gray69",
"z c #B1B1B1",
"x c gray71",
"c c gray72",
"v c #C0C0C0",
"b c gray85",
"n c #EFEFEF",
"m c gray94",
"M c gray96",
"N c #F8F8F8",
"B c gray100",
"V c None",
/* pixels */
"VVVV       VVVVVVVVVVVVVV",
"VVVVVV V VVVVVVVVVVVVVVVV",
"VVVVVVV  VVVVVVVVVVVVVVVV",
"VV@4444444* VVVVVVVVVVVVV",
"VVxBBBBBBBM& VVVVVVVVVVVV",
"V1BBBBBBBBBs  VVVVVVVVVVV",
"VdBBBBBBBBBb  VVVVVVVVVVV",
"V3yyyyyyyyy8   VVVVVVVVVV",
"             47 VVVVVVVVV",
"             4M3 VVVVVVVV",
"             1Bq1 VVVVVVV",
" #y@     30  ;Bqcf  VVVVV",
" 8B7     zm  Og0cvyg@ VVV",
"  ;      O$     tzpmwjt>1",
"                  ;aqkxqi",
"                      $&>",
"V                        ",
"VVVVVVVVVVVVVVVVVVVVVVVVV",
"VV   VVVV                ",
"                VVVVVVVVV"
};
