/* XPM */
static char * essen_klein_xpm[] = {
"15 15 4 1",
" 	c None",
".	c #000000",
"+	c #9B9292",
"@	c #C1B8B8",
"               ",
" ..      . .. .",
"...   ++ . .. .",
"... ++@@+......",
"...+@@@@@@.... ",
"...@@@@@@@@..  ",
"...@@@@@@@@..  ",
" ..@@@@@@@@..  ",
" ..@@@@@@@@..  ",
" ..+@@@@@@+..  ",
" .. ++@@++ ..  ",
" ..   ++   ..  ",
" ..        ..  ",
"               ",
"               "};
