/* XPM */
static char *ferry[] = {
/* columns rows colors chars-per-pixel */
"16 16 2 1",
"  c #2ba2e2",
". c white",
/* pixels */
"................",
".              .",
". ............ .",
". ............ .",
". ..   ....... .",
". .    ....... .",
".      ....... .",
".              .",
".              .",
".  .   .   .   .",
". ............ .",
".    .   .   . .",
".  .   .   .   .",
". ............ .",
".              .",
"................"
};
