/* XPM */
static char *ferrybvg[] = {
/* columns rows colors chars-per-pixel */
"16 16 65 1",
"  c #0080C0",
". c #0180C0",
"X c #0582C1",
"o c #0683C2",
"O c #0884C2",
"+ c #0C86C3",
"@ c #0F87C4",
"# c #0F88C4",
"$ c #1188C4",
"% c #1289C5",
"& c #1389C5",
"* c #158AC5",
"= c #178BC6",
"- c #188CC6",
"; c #1D8EC7",
": c #2291C8",
"> c #2492C9",
", c #2693C9",
"< c #2894CA",
"1 c #2D96CB",
"2 c #2E97CB",
"3 c #2F97CC",
"4 c #2F98CC",
"5 c #339ACD",
"6 c #349ACD",
"7 c #369BCD",
"8 c #379CCE",
"9 c #3D9ECF",
"0 c #3F9FD0",
"q c #3FA0D0",
"w c #40A0D0",
"e c #41A0D0",
"r c #41A1D0",
"t c #45A2D1",
"y c #47A3D2",
"u c #48A4D2",
"i c #4AA5D2",
"p c #4CA6D3",
"a c #50A8D4",
"s c #52A9D4",
"d c #53A9D5",
"f c #57ABD5",
"g c #5CAED7",
"h c #6AB5DA",
"j c #6BB5DB",
"k c #6EB7DB",
"l c #74BADD",
"z c #83C1E0",
"x c #85C2E1",
"c c #92C9E4",
"v c #94CAE5",
"b c #9CCEE7",
"n c #A7D3E9",
"m c #A8D4EA",
"M c #BADDEE",
"N c #C2E1F0",
"B c #C8E4F1",
"V c #D0E8F3",
"C c #D3E9F4",
"Z c #E1F0F8",
"A c #EFF7FB",
"S c #F8FCFD",
"D c #FDFEFF",
"F c #FFFFFF",
"G c None",
/* pixels */
"GGGGGq4&&4qGGGGG",
"GGGr-3333335sGGG",
"GG1 xFFFFFFF01GG",
"Gr  MFVnnnnn@ rG",
"GO  AFs       OG",
"q  ,FF;        r",
"4  gFFnnmnn1   3",
"&  cFFFFFFF;   &",
"@  BFb009r0    &",
", XSFp         1",
"5 7FF*         9",
"GXhFZ         OG",
"G0NFVr+       rG",
"GGh:ykvczlfyspGG",
"GGGiO    @7yGGGG",
"GGGGGy7*$<8GGGGG"
};
