/* XPM */
static char *ferry_klein[] = {
/* columns rows colors chars-per-pixel */
"12 12 52 1",
"  c #0080C0",
". c #0180C0",
"X c #0281C0",
"o c #0482C1",
"O c #0B85C3",
"+ c #1088C4",
"@ c #1188C4",
"# c #1389C5",
"$ c #148AC5",
"% c #168BC5",
"& c #1E8FC7",
"* c #2391C9",
"= c #2793CA",
"- c #2995CA",
"; c #2A95CA",
": c #2B95CB",
"> c #2F97CC",
", c #3098CC",
"< c #3198CC",
"1 c #3399CD",
"2 c #349ACD",
"3 c #379BCE",
"4 c #3E9FCF",
"5 c #3F9FD0",
"6 c #47A4D2",
"7 c #4AA5D2",
"8 c #4BA6D3",
"9 c #4CA6D3",
"0 c #4EA7D3",
"q c #5AADD6",
"w c #5EAFD7",
"e c #5FAFD7",
"r c #63B1D8",
"t c #66B3D9",
"y c #71B8DC",
"u c #79BCDE",
"i c #8AC5E2",
"p c #9CCEE7",
"a c #9FCFE7",
"s c #A8D4EA",
"d c #A9D4EA",
"f c #B8DCED",
"g c #BBDDEE",
"h c #BFDFEF",
"j c #C4E2F0",
"k c #D2E9F4",
"l c #DBEDF6",
"z c #E0F0F7",
"x c #F6FBFD",
"c c #FCFEFE",
"v c #FFFFFF",
"b c None",
/* pixels */
"bbb71$$17bbb",
"bb:eaaaaa7bb",
"b: jxhhhh+:b",
"7 oxf      7",
"1 >vs555&  2",
"$ tvvvvvq  $",
"+ av4>>>O  $",
": kz       2",
"0Ocs       0",
"bulfe:    :b",
"bb1 *0eryibb",
"bbb03$+:7bbb"
};
