/* XPM */
static char *ferrybvg_klein[] = {
/* columns rows colors chars-per-pixel */
"8 8 39 1",
"  c #0080C0",
". c #0A85C2",
"X c #0F87C4",
"o c #1389C5",
"O c #158BC5",
"+ c #168BC5",
"@ c #188CC6",
"# c #1C8EC7",
"$ c #1F8FC8",
"% c #2392C9",
"& c #2492C9",
"* c #2693C9",
"= c #2A95CA",
"- c #369BCD",
"; c #399CCE",
": c #3B9DCF",
"> c #3C9ECF",
", c #3D9ECF",
"< c #3D9FCF",
"1 c #41A0D0",
"2 c #4AA5D2",
"3 c #4BA5D3",
"4 c #51A8D4",
"5 c #5AADD6",
"6 c #6EB7DB",
"7 c #71B8DC",
"8 c #73B9DC",
"9 c #77BBDD",
"0 c #7BBDDE",
"q c #97CBE5",
"w c #A7D3E9",
"e c #B9DCEE",
"r c #CFE7F3",
"t c #D0E8F3",
"y c #D7EBF5",
"u c #E1F0F8",
"i c #FBFDFE",
"p c #FFFFFF",
"a c None",
/* pixels */
"aa2==4aa",
"aotuyy&a",
",.i#   ,",
"O:ptr9 O",
"%6e%$X O",
"5w0    ,",
"aq82:,-a",
"aa1@&6aa"
};
