/* XPM */
static char *ferry_klein[] = {
/* columns rows colors chars-per-pixel */
"8 8 2 1",
"  c #2ba2e2",
". c white",
/* pixels */
"        ",
" ...... ",
" .  ... ",
"        ",
"        ",
" . . .  ",
"  . . . ",
"        "
};
