/* XPM */
static char *noname[] = {
/* width height ncolors chars_per_pixel */
"15 15 2 1",
/* colors */
"` c #000",
"a c #FFF",
/* pixels */
"`aaa`aaa`aaa`aa",
"aaa`aaa`aaa`aaa",
"aa`aaa`aaa`aaa`",
"a`aaa`aaa`aaa`a",
"`aaa`aaa`aaa`aa",
"aaa`aaa`aaa`aaa",
"aa`aaa`aaa`aaa`",
"a`aaa`aaa`aaa`a",
"`aaa`aaa`aaa`aa",
"aaa`aaa`aaa`aaa",
"aa`aaa`aaa`aaa`",
"a`aaa`aaa`aaa`a",
"`aaa`aaa`aaa`aa",
"aaa`aaa`aaa`aaa",
"aa`aaa`aaa`aaa`"
};
