/* XPM */
static char *flag2_bl_centered[] = {
/* columns rows colors chars-per-pixel */
"32 32 5 1",
"  c black",
". c navy",
"X c blue",
"o c gray100",
"O c None",
/* pixels */
"OOOOOOOOOOOO OOOOOOOOOOOOOOOOOOO",
"OOOOOOOOOOOO  XXXXOOOOOOOOOOOOOO",
"OOOOOOOOOOOOO OXXXXXOOOOOOOOOOOO",
"OOOOOOOOOOOOO OXXXXXXXXXXXXOOOOO",
"OOOOOOOOOOOOO OXXXXXXXXXXXXXXXOO",
"OOOOOOOOOOOOOO OXXXXXXXXXXXXXX.O",
"OOOOOOOOOOOOOO OXXXXXXXXXX......",
"OOOOOOOOOOOOOO OX..XXXXX...OOOOO",
"OOOOOOOOOOOOOO O.OO......OOOOOOO",
"OOOOOOOOOOOOOOO OOOOOOOOOOOOOOOO",
"OOOOOOOOOOOOOOO OOOOOOOOOOOOOOOO",
"OOOOOOOOOOOOOOO OOOOOOOOOOOOOOOO",
"OOOOOOOOOOOOOOO OOOOOOOOOOOOOOOO",
"OOOOOOOOOOOOOOOO OOOOOOOOOOOOOOO",
"OOOOOOOOOOOOOOOO OOOOOOOOOOOOOOO",
"OOOOOOOOOOOOOOOO OOOOOOOOOOOOOOO",
"OOOOOOOOOOOOOOOOOOOOOOOOOOOOOOOO",
"OOOOOOOOOOOOOOOOOOOOOOOOOOOOOOOO",
"OOOOOOOOOOOOOOOOOOOOOOOOOOOOOOOO",
"OOOOOOOOOOOOOOOOOOOOOOOOOOOOOOOO",
"OOOOOOOOOOOOOOOOOOOOOOOOOOOOOOOO",
"OOOOOOOOOOOOOOOOOOOOOOOOOOOOOOOO",
"OOOOOOOOOOOOOOOOOOOOOOOOOOOOOOOO",
"OOOOOOOOOOOOOOOOOOOOOOOOOOOOOOOO",
"OOOOOOOOOOOOOOOOOOOOOOOOOOOOOOOO",
"OOOOOOOOOOOOOOOOOOOOOOOOOOOOOOOO",
"OOOOOOOOOOOOOOOOOOOOOOOOOOOOOOOO",
"OOOOOOOOOOOOOOOOOOOOOOOOOOOOOOOO",
"OOOOOOOOOOOOOOOOOOOOOOOOOOOOOOOO",
"OOOOOOOOOOOOOOOOOOOOOOOOOOOOOOOO",
"OOOOOOOOOOOOOOOOOOOOOOOOOOOOOOOO",
"OOOOOOOOOOOOOOOOOOOOOOOOOOOOOOOO"
};
