/* XPM */
static char *flag_ziel[] = {
/* columns rows colors chars-per-pixel */
"20 16 4 1",
"  c black",
". c #00007F",
"X c gray100",
"o c None",
/* pixels */
" ooooooooooooooooooo",
"  X   oooooooooooooo",
"o oX    oooooooooooo",
"o oX    oooo   ooooo",
"o oXX           oooo",
"oo o  XX    XXX   .o",
"oo o   XX    X......",
"oo oX..XX   ...ooooo",
"oo o.oo......ooooooo",
"ooo oooooooooooooooo",
"ooo oooooooooooooooo",
"ooo oooooooooooooooo",
"ooo oooooooooooooooo",
"oooo ooooooooooooooo",
"oooo ooooooooooooooo",
"oooo ooooooooooooooo"
};
