/* XPM */
static char *noname[] = {
/* width height ncolors chars_per_pixel */
"20 16 4 1",
/* colors */
"` c #000000",
"a s mask c none",
"b c #000080",
"c c #FFFFFF",
/* pixels */
"`aaaaaaaaaaaaaaaaaaa",
"``c```aaaaaaaaaaaaaa",
"a`ac````aaaaaaaaaaaa",
"a`ac````cccc```aaaaa",
"a`acc```````````ccaa",
"aa`a``cc````ccc```ba",
"aa`a```cc````cbbbbbb",
"aa`acbbcc```bbbaaaaa",
"aa`abaabbbbbbaaaaaaa",
"aaa`aaaaaaaaaaaaaaaa",
"aaa`aaaaaaaaaaaaaaaa",
"aaa`aaaaaaaaaaaaaaaa",
"aaa`aaaaaaaaaaaaaaaa",
"aaaa`aaaaaaaaaaaaaaa",
"aaaa`aaaaaaaaaaaaaaa",
"aaaa`aaaaaaaaaaaaaaa"
};
