/* XPM */
static char *noname[] = {
/* width height ncolors chars_per_pixel */
"20 16 4 1",
/* colors */
"` c #000000",
"a s mask c none",
"b c #000080",
"c c #0000FF",
/* pixels */
"`aaaaaaaaaaaaaaaaaaa",
"``ccccaaaaaaaaaaaaaa",
"a`acccccaaaaaaaaaaaa",
"a`accccccccccccaaaaa",
"a`acccccccccccccccaa",
"aa`accccccccccccccba",
"aa`accccccccccbbbbbb",
"aa`acbbcccccbbbaaaaa",
"aa`abaabbbbbbaaaaaaa",
"aaa`aaaaaaaaaaaaaaaa",
"aaa`aaaaaaaaaaaaaaaa",
"aaa`aaaaaaaaaaaaaaaa",
"aaa`aaaaaaaaaaaaaaaa",
"aaaa`aaaaaaaaaaaaaaa",
"aaaa`aaaaaaaaaaaaaaa",
"aaaa`aaaaaaaaaaaaaaa"
};
