/* XPM */
static char *flag_ziel_centered[] = {
/* columns rows colors chars-per-pixel */
"32 32 4 1",
"  c black",
". c navy",
"X c gray100",
"o c None",
/* pixels */
"oooooooooooo ooooooooooooooooooo",
"oooooooooooo  X   oooooooooooooo",
"ooooooooooooo oX    oooooooooooo",
"ooooooooooooo oX    XXXX   ooooo",
"ooooooooooooo oXX           XXoo",
"oooooooooooooo o  XX    XXX   .o",
"oooooooooooooo o   XX    X......",
"oooooooooooooo oX..XX   ...ooooo",
"oooooooooooooo o.oo......ooooooo",
"ooooooooooooooo oooooooooooooooo",
"ooooooooooooooo oooooooooooooooo",
"ooooooooooooooo oooooooooooooooo",
"ooooooooooooooo oooooooooooooooo",
"oooooooooooooooo ooooooooooooooo",
"oooooooooooooooo ooooooooooooooo",
"oooooooooooooooo ooooooooooooooo",
"oooooooooooooooooooooooooooooooo",
"oooooooooooooooooooooooooooooooo",
"oooooooooooooooooooooooooooooooo",
"oooooooooooooooooooooooooooooooo",
"oooooooooooooooooooooooooooooooo",
"oooooooooooooooooooooooooooooooo",
"oooooooooooooooooooooooooooooooo",
"oooooooooooooooooooooooooooooooo",
"oooooooooooooooooooooooooooooooo",
"oooooooooooooooooooooooooooooooo",
"oooooooooooooooooooooooooooooooo",
"oooooooooooooooooooooooooooooooo",
"oooooooooooooooooooooooooooooooo",
"oooooooooooooooooooooooooooooooo",
"oooooooooooooooooooooooooooooooo",
"oooooooooooooooooooooooooooooooo"
};
