/* XPM */
static char * flag_via_xpm[] = {
"20 16 5 1",
" 	c None",
".	c #000000",
"+	c #0000FF",
"@	c #FFFFFF",
"#	c #000080",
".                   ",
"..++++              ",
" . +@+++            ",
" . +@@@++++++++     ",
" . ++@@@@@@@@@++++  ",
"  . +@@@@@@@@@@@@@# ",
"  . +@@@@@@@@@######",
"  . +##@@@@@###     ",
"  . #  ######       ",
"   .                ",
"   .                ",
"   .                ",
"   .                ",
"    .               ",
"    .               ",
"    .               "};
