/* XPM */
static char *gefaelle[] = {
/* columns rows colors chars-per-pixel */
"16 16 54 1",
"  c black",
". c #010101",
"X c #0C0C0C",
"o c #1E1E1E",
"O c #222222",
"+ c #353535",
"@ c #383434",
"# c gray36",
"$ c #B73B3B",
"% c #CC0000",
"& c #CC0101",
"* c #CC0202",
"= c #CC0303",
"- c #CE0C0C",
"; c #CE0D0D",
": c #CE0E0E",
"> c #CF1212",
", c #CA2020",
"< c #CC2121",
"1 c #D22020",
"2 c #D22222",
"3 c #D32323",
"4 c #D43636",
"5 c #D53D3D",
"6 c #D83E3E",
"7 c #985A5A",
"8 c #B04E4E",
"9 c #D34646",
"0 c #D55151",
"q c #D35757",
"w c #C56A6A",
"e c #D06666",
"r c #C67272",
"t c #C87777",
"y c #CD7575",
"u c #E06464",
"i c #868686",
"p c #BC8686",
"a c #B18C8C",
"s c #B99B9B",
"d c #ADAAAA",
"f c #C38686",
"g c #E68585",
"h c #E78A8A",
"j c #EEABAB",
"k c gray78",
"l c #F5CECE",
"z c gray90",
"x c #FAE8E8",
"c c #FDF7F7",
"v c #F8F8F8",
"b c #FEFEFE",
"n c gray100",
"m c None",
/* pixels */
"mmmmmmmmmmmmmmmm",
"mmmmmmmmmmmmmmmm",
"mmmmmmmrrmmmmmmm",
"mmmmmmm>>mmmmmmm",
"mmmmmmq::qmmmmmm",
"mmmmmp%gg%pmmmmm",
"mmmmm51cc15mmmmm",
"mmmmt%jnnj%tmmmm",
"mmmm15nnnn61mmmm",
"mmme%snnnnl%emmm",
"mma:8.+knnnu:amm",
"mm0:+...#znx:0mm",
"mf%7.....Xivh%fm",
"m4<o.......Od34m",
"y%,$$$$$$$$$$<%y",
"w99999999999999w"
};
