/* XPM */
static char * glas_klein_xpm[] = {
"8 8 2 1",
" 	c None",
".	c #D8436D",
"        ",
"........",
" ...... ",
" ...... ",
"   ..   ",
"   ..   ",
"   ..   ",
" ...... "};
