/* XPM */
static char * glas_xpm[] = {
"15 15 2 1",
" 	c None",
".	c #D8436D",
"               ",
"...............",
"...............",
"...............",
" ............. ",
" ............. ",
"  ...........  ",
"    .......    ",
"      ...      ",
"      ...      ",
"      ...      ",
"      ...      ",
"      ...      ",
"    .......    ",
"  ...........  "};
