/* XPM */
static char *noname[] = {
/* width height ncolors chars_per_pixel */
"15 15 2 1",
/* colors */
"` s mask c none",
"a c #000080",
/* pixels */
"```````````````",
"```````````````",
"`````aaaaa`````",
"````aa```aa````",
"```aa````aaa```",
"```aa````aaa```",
"````aa```aa````",
"````````aa`````",
"```````aa``````",
"``````aa```````",
"``````aa```````",
"```````````````",
"``````aaa``````",
"``````aaa``````",
"```````````````"
};
