/* XPM */
static char * hospital_xpm[] = {
"13 13 4 1",
" 	c None",
".	c #000000",
"+	c #FF003F",
"@	c #FFFFFF",
"     ...     ",
"   ..+++..   ",
"  .++@@@++.  ",
" .+++@@@+++. ",
" .+++@@@+++. ",
".+@@@@@@@@@+.",
".+@@@@@@@@@+.",
".+@@@@@@@@@+.",
" .+++@@@+++. ",
" .+++@@@+++. ",
"  .++@@@++.  ",
"   ..+++..   ",
"     ...     "};
