/* XPM */
static char *noname[] = {
/* width height ncolors chars_per_pixel */
"15 15 3 1",
/* colors */
"` c #000000",
"a c #FFFFFF",
"b s mask c none",
/* pixels */
"bbbb```````bbbb",
"bb```aaaaa```bb",
"b``aaa```aaa``b",
"b`aaaa```aaaa`b",
"``aaaaaaaaaaa``",
"`aaa`````aaaaa`",
"`aaa`````aaaaa`",
"`aaaaa```aaaaa`",
"`aaaaa```aaaaa`",
"`aaaaa```aaaaa`",
"``aa```````aa``",
"b`aa```````aa`b",
"b``aaaaaaaaa``b",
"bb``aaaaaaa``bb",
"bbbb```````bbbb"
};
