/* XPM */
static char *inwork_18[] = {
/* columns rows colors chars-per-pixel */
"18 16 85 1 ",
"  c #231F20",
". c #252122",
"X c #292526",
"o c #4A4747",
"O c #4C494A",
"+ c #565354",
"@ c #5F5C5C",
"# c #6B6869",
"$ c #7B7979",
"% c #7F7D7E",
"& c #CC0000",
"* c #CC0101",
"= c #CC0202",
"- c #CE0909",
"; c #CE0A0A",
": c #CE0C0C",
"> c #CF0E0E",
", c #D21D1D",
"< c #D22020",
"1 c #D32424",
"2 c #D53737",
"3 c #D53B3B",
"4 c #D83B3B",
"5 c #977878",
"6 c #9C7B7B",
"7 c #A67575",
"8 c #AF7171",
"9 c #AB7777",
"0 c #B37474",
"q c #BA7070",
"w c #BE7171",
"e c #D74A4A",
"r c #D74B4B",
"t c #D74C4C",
"y c #CF5C5C",
"u c #D45353",
"i c #DD5757",
"p c #D15C5C",
"a c #CA6666",
"s c #CD6666",
"d c #C26E6E",
"f c #C26F6F",
"g c #E06262",
"h c #E57F7F",
"j c #838181",
"k c #868485",
"l c #878585",
"z c #908E8E",
"x c #929091",
"c c #979696",
"v c #9E9D9D",
"b c #A19FA0",
"n c #A2A0A1",
"m c #A5A4A4",
"M c #A7A5A6",
"N c #ABAAAA",
"B c #ACABAB",
"V c #B4B3B3",
"C c #D89999",
"Z c #E88A8A",
"A c #EDA7A7",
"S c #C9C8C8",
"D c #CDCCCC",
"F c gray84",
"G c #D7D7D7",
"H c gainsboro",
"J c #F5CCCC",
"K c #E1E0E0",
"L c #E7E6E7",
"P c #E8E7E7",
"I c #EAEAEA",
"U c #F9E1E1",
"Y c #F8E6E6",
"T c #FAE8E8",
"R c #F1F1F1",
"E c #F4F4F4",
"W c #FAF2F2",
"Q c #FDF5F5",
"! c #F8F8F8",
"~ c #FBFBFB",
"^ c #FDF8F8",
"/ c #FEF9F9",
"( c #FCFBFC",
") c gray100",
"_ c None",
/* pixels */
"________ff________",
"_______7&&7_______",
"_______3&&3_______",
"______q&ii&q______",
"______<-UU-<______",
"_____a&h)(Z&a_____",
"____5:,Q)DW,:5____",
"____u&CjzmEA&u____",
"___9&4lc H))3=9___",
"___3&JRoOI~~J=2___",
"__w&g)m+5F~L~g&w__",
"__,:T!#KkFBX@Y:,__",
"_s&Z)bS($V. .zZ=s_",
"6-1()L))LNvvvn(<-6",
"p&&&&&&&&&&&&&&&&p",
"0eeeeeeeeeeeeeeet8"
};
