/* XPM */
static char * kino_klein_xpm[] = {
"15 15 2 1",
" 	c None",
".	c #000000",
"     .    ..   ",
"    .... ....  ",
"..  .... ....  ",
"...  ..   ..   ",
".............  ",
".............  ",
"... .........  ",
"..     ...     ",
"       ....    ",
"      ... .    ",
"      . .  .   ",
"      . .  .   ",
"     .. .   .  ",
"     .   .   . ",
"     .   .   . "};
