/* XPM */
static char *kirsche[] = {
/* columns rows colors chars-per-pixel */
"16 16 8 1",
"  c opaque",
". c navy",
"X c #008000",
"o c green",
"O c #800000",
"+ c red",
"@ c magenta",
"# c None",
/* pixels */
"#########  #####",
"### o#XXXX######",
"## o  .   ######",
"##Xo  X  ##   ##",
"# Xo# #X# ++@@+#",
"# X # # # ++@@++",
"#  ## ##XOO+++++",
"# #   ###X@@@@@@",
"##+++@+# ++ @OO ",
"#O+++@ ++++++O #",
"#+O++++++@@++ ##",
"#+++++O+++@@+ ##",
"# O+++O++++++ ##",
"##+O+OOOO++++ ##",
"###    OOO+O.###",
"########    ####"
};
