/* XPM */
static char *noname[] = {
/* width height ncolors chars_per_pixel */
"15 15 3 1",
/* colors */
"` c #000000",
"a c #5151FB",
"b c #FFFFFF",
/* pixels */
"bb`bbbbbbbbbbbb",
"b```bbbbbbbbbbb",
"b```bbbbbbbbbbb",
"`````bbbbbbbbbb",
"`````bbbbbbbbbb",
"bb`bbbb`b`bbbbb",
"bb`ababa`bbbbbb",
"bb`bbbb`a`bbbbb",
"bb`bbbbbbbbbbbb",
"bb`bbbbbabbbbbb",
"bb`bbbbbbb``bbb",
"bb`bbbbbab````b",
"```````````````",
"bb`bbbbbbb````b",
"bb`bbbbbbb``bbb"
};
