/* XPM */
static char * kopfstein_klein_xpm[] = {
"8 3 5 1",
" 	c None",
".	c #000000",
"+	c #FA1340",
"@	c #FFFF00",
"#	c #3BFA34",
"  .  .  ",
" ...... ",
"........"};
