/* XPM */
static char * kopfstein_klein_grey_xpm[] = {
"8 3 2 1",
" 	c None",
".	c #8A8A8A",
"  .  .  ",
" . . .. ",
". . . .."};
