/* XPM */
static char *kreisverkehr[] = {
/* columns rows colors chars-per-pixel */
"15 15 72 1",
"  c #003399",
". c #04369A",
"X c #06379B",
"o c #07389B",
"O c #093A9C",
"+ c #0B3B9D",
"@ c #103F9F",
"# c #11409F",
"$ c #1644A1",
"% c #1C49A4",
"& c #204CA5",
"* c #234FA7",
"= c #2C56AA",
"- c #2D57AB",
"; c #3961AF",
": c #3B62B0",
"> c #3F65B2",
", c #4368B3",
"< c #456AB4",
"1 c #466CB4",
"2 c #486CB5",
"3 c #496DB6",
"4 c #4D70B7",
"5 c #4E71B8",
"6 c #5073B9",
"7 c #5476BA",
"8 c #5577BB",
"9 c #5C7CBD",
"0 c #5D7DBE",
"q c #5F7FBF",
"w c #758DBD",
"e c #6785C2",
"r c #6886C2",
"t c #6B88C3",
"y c #6D8AC4",
"u c #748FC7",
"i c #7993C9",
"p c #7D97CB",
"a c #7E97CB",
"s c #A0AABF",
"d c #8A9CC0",
"f c #8B9DC1",
"g c #8A9EC6",
"h c #859DCE",
"j c #869ECE",
"k c #879FCF",
"l c #92A7D3",
"z c #95AAD4",
"x c #9AAED6",
"c c #9BAFD7",
"v c #AAB2C2",
"b c #ABB3C3",
"n c #A2B4D9",
"m c #A3B5DA",
"M c #A8B9DC",
"N c #ABBBDD",
"B c #ACBCDD",
"V c #B3C2E0",
"C c #B5C3E1",
"Z c #C3CFE7",
"A c #C7D2E8",
"S c #D1DAEC",
"D c #DAE1F0",
"F c #DCE3F1",
"G c #DEE4F1",
"H c #E4E9F4",
"J c #E5EAF4",
"K c #E7EBF5",
"L c #E8ECF5",
"P c #F2F4F9",
"I c gray100",
"U c None",
/* pixels */
"UUUUUvdwfbUUUUU",
"UUUs;     :vUUU",
"UUgO .= &uC<gUU",
"UsO 9Kl eIu OsU",
"U: 9S>  &AA9 :U",
"v +F%    y$K$ v",
"d82m7      B2 d",
"waGLi      Mt w",
"d kj       n2 d",
"v          .. v",
"U; +C: .xZj. :U",
"Uv+ 7PBaxKD  vU",
"UUgO O6r5,lOgUU",
"UUUs;    =,vUUU",
"UUUUUvdwdbUUUUU"
};
