/* XPM */
static char *kreuzung[] = {
/* columns rows colors chars-per-pixel */
"16 14 58 1",
"  c #101010",
". c #141414",
"X c #373737",
"o c #383838",
"O c #393939",
"+ c #3A3A3A",
"@ c #535353",
"# c #545454",
"$ c #696969",
"% c #6B6B6B",
"& c #6C6C6C",
"* c #CC0000",
"= c #CC0101",
"- c #CC0202",
"; c #CD0505",
": c #CE0808",
"> c #CF0D0D",
", c #CF1010",
"< c #D01616",
"1 c #D11B1B",
"2 c #D32222",
"3 c #D32323",
"4 c #D32727",
"5 c #D73939",
"6 c #D53A3A",
"7 c #D64343",
"8 c #D44646",
"9 c #DA4747",
"0 c #D65757",
"q c #D55E5E",
"w c #C66B6B",
"e c #DF6060",
"r c #D26D6D",
"t c #C37575",
"y c #CD7979",
"u c #C97E7E",
"i c #E57C7C",
"p c #808080",
"a c #838383",
"s c #BE8C8C",
"d c #C48A8A",
"f c #E78888",
"g c #DCB6B6",
"h c #DDB7B7",
"j c #EDA4A4",
"k c #E2E2E2",
"l c #E3E3E3",
"z c #EDEDED",
"x c #FAE7E7",
"c c #F0F0F0",
"v c #F2F2F2",
"b c #F3F3F3",
"n c #FDF4F4",
"m c #FEF8F8",
"M c #FEFEFE",
"N c #FFFEFE",
"B c #FFFFFF",
"V c None",
/* pixels */
"VVVVVVVttVVVVVVV",
"VVVVVVV<<VVVVVVV",
"VVVVVVq::qVVVVVV",
"VVVVVs;ii;sVVVVV",
"VVVVV71nn17VVVVV",
"VVVVu*jBBj*uVVVV",
"VVVV45BBBB54VVVV",
"VVVr*g#bb@h*rVVV",
"VVV<qB$oX&Bq<VVV",
"VV0>xBz..bBx:0VV",
"Vd*fBbo%$@zBf*dV",
"V53mBkaBB&kBm35V",
"y-399999999993*y",
"w78888888888887w"
};
