#define lightning_cursor_width 16
#define lightning_cursor_height 16
#define lightning_cursor_x_hot 5
#define lightning_cursor_y_hot 15
static unsigned char lightning_cursor_bits[] = {
   0x80, 0x0f, 0x80, 0x07, 0xc0, 0x03, 0xc0, 0x01, 0xe0, 0x00, 0xe0, 0x60,
   0x70, 0x3c, 0x30, 0x1f, 0xf8, 0x0d, 0x38, 0x06, 0x04, 0x02, 0x00, 0x01,
   0x80, 0x01, 0x80, 0x00, 0x40, 0x00, 0x20, 0x00};
