/* XPM */
static char *noname[] = {
/* width height ncolors chars_per_pixel */
"15 15 5 1",
/* colors */
"` c #000000",
"a c #F7E704",
"b c #0EB728",
"c c #9E9E9E",
"d c #FFFFFF",
/* pixels */
"ccccccccc`aaa`c",
"ccccccccc`aaa`c",
"cccccccc`aaa`cc",
"cccccccc`aaa`cb",
"ccccccc`aaa`cbc",
"```````aaaa`ccb",
"dddddddaaaa`cbc",
"ddddddaaaa`cbbc",
"``````aaaa`cbcb",
"ccccc`aaa`cbcbc",
"ccccc`aaa`ccbcb",
"cccc`aaaa`cbcbc",
"cccc`aaa`cbcbcb",
"cccc`aaa`ccbcbb",
"ccc`aaa`ccbcbcb"
};
