/* XPM */
static char *mapserver_logo[] = {
/* columns rows colors chars-per-pixel */
"16 16 74 1",
"  c #767E72",
". c #7A7B72",
"X c #7B7D74",
"o c #707F7F",
"O c #818576",
"+ c #80857A",
"@ c #83897B",
"# c #878C7B",
"$ c #828A7F",
"% c #888C7D",
"& c #8D9182",
"* c #8F9282",
"= c #8E9283",
"- c #8E9284",
"; c #999D8D",
": c #999F8E",
"> c #989E8F",
", c #8F8E90",
"< c #899897",
"1 c #9CA58D",
"2 c #9DA293",
"3 c #A3A996",
"4 c #A6A897",
"5 c #A7AA9A",
"6 c #A5AC99",
"7 c #A7AE99",
"8 c #A7AF99",
"9 c #ABB19B",
"0 c #ABB19C",
"q c #AAB49D",
"w c #ACB49C",
"e c #AEB69F",
"r c #96A5A5",
"t c #98ACAE",
"y c #A9AAA1",
"u c #ADACAD",
"i c #AFB7A0",
"p c #AEBAA6",
"a c #B0BAA1",
"s c #B7BBA6",
"d c #B7B8AE",
"f c #B2BFAC",
"g c #B4B4B3",
"h c #B9BCB0",
"j c #BAC0A8",
"k c #BDC4AC",
"l c #BEC7AE",
"z c #B2C6B9",
"x c #C2C8B0",
"c c #C6CBB5",
"v c #C4CBBA",
"b c #C9D0BC",
"n c #D1D8BE",
"m c #ABC5C3",
"M c #B5D0C5",
"N c #C6D9CC",
"B c #CFDFCC",
"V c #D6DFC3",
"C c #D5E0C4",
"Z c #D7E0C5",
"A c #DCE3C8",
"S c #DDE8C9",
"D c #DEE8C9",
"F c #CFE3D4",
"G c #CEE2D6",
"H c #DAEDD1",
"J c #E3E7CA",
"K c #E5F1CD",
"L c #E4EFD1",
"P c #E4F2D0",
"I c #C2E1E0",
"U c #C7E5E8",
"Y c #C9E7EA",
"T c None",
/* pixels */
"TTTTTTTTTTTTTTTT",
"TTTTTTTTTTTTTTTT",
"TTTOTTTTTTTToTTT",
"TTTZTTTTTTT mTTT",
"TTTS9TTTTTTpITTT",
"TT>PVTTTTTTBYTTT",
"TT61L6TTTT4$Y<TT",
"TTi+jATTTTw.GrTT",
"TTsT*J4TT5XTNtTT",
"TTbTTkCTT0TTcjTT",
"TTvTT*S>6%TTlzTT",
"T,hTTTxneTTTaGTT",
"TudTTT*K#TTTqH$T",
"TgyTTTT>TTTT-M2T",
"TTTTTTTTTTTTTTTT",
"TTTTTTTTTTTTTTTT"
};
