/* XPM */
static char *mapserver_logo[] = {
/* columns rows colors chars-per-pixel */
"16 16 84 1 ",
"  c #387966",
". c #2FA727",
"X c #31A52E",
"o c #31A52F",
"O c #32A42F",
"+ c #33B323",
"@ c #35B624",
"# c #31A033",
"$ c #32A233",
"% c #33A333",
"& c #33A135",
"* c #34A434",
"= c #3B984C",
"- c #65BF70",
"; c #72EC59",
": c #69CB6C",
"> c #6BCF6C",
", c #6BCE6D",
"< c #6BD467",
"1 c #6BD962",
"2 c #6BD269",
"3 c #6BD06B",
"4 c #6BD16B",
"5 c #6CD26A",
"6 c #6BCA71",
"7 c #6BC079",
"8 c #71E363",
"9 c #73E561",
"0 c #71E660",
"q c #72E562",
"w c #73E563",
"e c #73E762",
"r c #73E663",
"t c #71E364",
"y c #73E862",
"u c #74E862",
"i c #363D9E",
"p c #2F27A8",
"a c #2F29A8",
"s c #3029A7",
"d c #322FA5",
"f c #312EA6",
"g c #312FA6",
"h c #322FA6",
"j c #3234A1",
"k c #3334A3",
"l c #3435A3",
"z c #3436A2",
"x c #3437A2",
"c c #3230A5",
"v c #3231A5",
"b c #3332A4",
"n c #3333A4",
"m c #3435A4",
"M c #3434A5",
"N c #3535A6",
"B c #353AA1",
"V c #3538A2",
"C c #393DA6",
"Z c #476B8F",
"A c #5B77A7",
"S c #5C79A8",
"D c #6161C9",
"F c #6B6DCF",
"G c #6B67D5",
"H c #6B65D7",
"J c #6A6BD1",
"K c #6B6BD1",
"L c #6B6CD0",
"P c #6B69D4",
"I c #6B61DB",
"U c #6B5BE1",
"Y c #7366E3",
"T c #7467E3",
"R c #7363E7",
"E c #7264E5",
"W c #7363E8",
"Q c #6BA794",
"! c #71B393",
"~ c #6F9DA4",
"^ c #7196B1",
"/ c #70A3A2",
"( c #6F80C5",
") c None",
/* pixels */
")35)pw)))c))))))",
")>tfp03BNcw33)))",
")70xZ0-xbnu333))",
")L~is8:Nbb0333))",
")G^jC;>xn))333))",
")6( @TA))nu))3))",
")3!#.EFNnfw333))",
")Q/=S)Dnchw333))",
")KKKK)NnNny333))",
"))PLK)nnn))3>3))",
")>1)H)N))#TU)3))",
")>3><)+%%%EKFI))",
")3333)*%%XWKLK))",
")3333)*%%XWKLK))",
"))333)*%%))KKK))",
"))))3)*))))))K))"
};
