/* XPM */
static char * moon_xpm[] = {
"15 15 189 2",
"  	c None",
". 	c #1C2227",
"+ 	c #1D2329",
"@ 	c #1F262A",
"# 	c #252B2F",
"$ 	c #272D32",
"% 	c #282D32",
"& 	c #252B30",
"* 	c #22282C",
"= 	c #1B2126",
"- 	c #1A2025",
"; 	c #1E252A",
"> 	c #23292D",
", 	c #282F34",
"' 	c #33383C",
") 	c #353B40",
"! 	c #282E33",
"~ 	c #22282D",
"{ 	c #1E242A",
"] 	c #1B2228",
"^ 	c #1C2329",
"/ 	c #1D2429",
"( 	c #23292F",
"_ 	c #2B3137",
": 	c #353B41",
"< 	c #43484D",
"[ 	c #54595D",
"} 	c #B6B9BB",
"| 	c #6C7074",
"1 	c #33393E",
"2 	c #21282D",
"3 	c #1D242A",
"4 	c #1D252A",
"5 	c #1E252B",
"6 	c #262D33",
"7 	c #20262C",
"8 	c #272E34",
"9 	c #343B3F",
"0 	c #464C51",
"a 	c #606569",
"b 	c #D9DCDB",
"c 	c #F4F6F4",
"d 	c #555A5F",
"e 	c #3C4348",
"f 	c #2E353A",
"g 	c #242C32",
"h 	c #222930",
"i 	c #232B31",
"j 	c #242C33",
"k 	c #20272D",
"l 	c #20282E",
"m 	c #2E353B",
"n 	c #3F464C",
"o 	c #575D61",
"p 	c #BABDBE",
"q 	c #FCFEFC",
"r 	c #E8EAE9",
"s 	c #5F656A",
"t 	c #323940",
"u 	c #262E34",
"v 	c #272F37",
"w 	c #262F37",
"x 	c #29323A",
"y 	c #283038",
"z 	c #353C43",
"A 	c #494F55",
"B 	c #6C7176",
"C 	c #F4F6F5",
"D 	c #ECEEEE",
"E 	c #6F7479",
"F 	c #51575D",
"G 	c #384046",
"H 	c #2B333A",
"I 	c #29323B",
"J 	c #273039",
"K 	c #27313A",
"L 	c #283139",
"M 	c #222A31",
"N 	c #373F46",
"O 	c #4E555A",
"P 	c #8B8F93",
"Q 	c #FAFCFA",
"R 	c #858A8E",
"S 	c #5E646A",
"T 	c #444B52",
"U 	c #333B42",
"V 	c #2C343C",
"W 	c #2B343D",
"X 	c #2A343D",
"Y 	c #252E36",
"Z 	c #232C34",
"` 	c #394149",
" .	c #51585F",
"..	c #92979B",
"+.	c #B2B6B8",
"@.	c #6D7378",
"#.	c #52595F",
"$.	c #3F474E",
"%.	c #313A42",
"&.	c #2C353C",
"*.	c #2A333B",
"=.	c #273038",
"-.	c #252F37",
";.	c #384148",
">.	c #4D545B",
",.	c #7D8287",
"'.	c #FBFDFB",
").	c #EDEFEE",
"!.	c #858B8F",
"~.	c #666D73",
"{.	c #51595F",
"].	c #414950",
"^.	c #363F46",
"/.	c #2E373F",
"(.	c #2C353D",
"_.	c #343D45",
":.	c #454D55",
"<.	c #636A70",
"[.	c #DDE0E0",
"}.	c #D8DBDB",
"|.	c #82878D",
"1.	c #555D64",
"2.	c #475058",
"3.	c #3D474E",
"4.	c #364048",
"5.	c #313B44",
"6.	c #2F3841",
"7.	c #3C454D",
"8.	c #545C63",
"9.	c #8F9499",
"0.	c #F8FAF9",
"a.	c #E6E8E7",
"b.	c #A1A6A9",
"c.	c #70777E",
"d.	c #5B636A",
"e.	c #6A7178",
"f.	c #4A525A",
"g.	c #37414A",
"h.	c #2A343F",
"i.	c #353F47",
"j.	c #5F666D",
"k.	c #9DA2A6",
"l.	c #F4F7F5",
"m.	c #F6F8F6",
"n.	c #979DA1",
"o.	c #454E56",
"p.	c #3A444E",
"q.	c #28333D",
"r.	c #2F3A43",
"s.	c #3C464F",
"t.	c #4B555E",
"u.	c #606870",
"v.	c #80878D",
"w.	c #BDC1C4",
"x.	c #E3E6E6",
"y.	c #F0F2F1",
"z.	c #E5E7E7",
"A.	c #BEC2C4",
"B.	c #757D84",
"C.	c #4D5760",
"D.	c #434D56",
"E.	c #39444E",
"F.	c #28343F",
"G.	c #2E3943",
"H.	c #36404B",
"I.	c #3F4A54",
"J.	c #576169",
"K.	c #606971",
"L.	c #676F77",
"M.	c #687179",
"N.	c #636B74",
"O.	c #58626A",
"P.	c #505A63",
"Q.	c #46515A",
"R.	c #3F4B54",
"S.	c #39444F",
"T.	c #2B3742",
"U.	c #2E3A45",
"V.	c #333F4A",
"W.	c #39454F",
"X.	c #3D4853",
"Y.	c #46515B",
"Z.	c #4A555E",
"`.	c #4D5861",
" +	c #4A555F",
".+	c #444F59",
"++	c #404C56",
"@+	c #3E4953",
"#+	c #38444F",
". + @ # $ % & * + = = = - = . ",
"; > , ' ) ) ) ! ~ { . ] ] ^ / ",
"( _ : < [ } | 1 , 2 3 4 5 6 7 ",
"8 9 0 a b c d e f g h i j k l ",
"m n o p q r s 0 t u v w x y h ",
"z A B C q D E F G H I J K L M ",
"N O P q q Q R S T U V W X Y Z ",
"`  ...q q q +.@.#.$.%.&.*.=.-.",
";.>.,.'.q q ).!.~.{.].^.%./.(.",
"_.:.<.[.q q q }.|.~.1.2.3.4.5.",
"6.7.8.9.0.q q q a.b.c.d.e.f.g.",
"h.i.2.j.k.l.q q q q '.m.n.o.p.",
"q.r.s.t.u.v.w.x.y.z.A.B.C.D.E.",
"F.G.H.I.t.J.K.L.M.N.O.P.Q.R.S.",
"T.U.V.W.X.Y.Z.`.P.`. +.+++@+#+"};
