/* XPM */
static char *mosque[] = {
/* columns rows colors chars-per-pixel */
"13 8 2 1",
"  c black",
". c None",
/* pixels */
". ...........",
"  ......... .",
"  .........  ",
"   .......   ",
"    .....    ",
".           .",
"..          .",
"...       ..."
};
