/* Created with The GIMP */
#define movehand_width 15
#define movehand_height 15
#define movehand_x_hot 7
#define movehand_y_hot 7
static unsigned char movehand_bits[] = {
   0x40, 0x00, 0xa8, 0x00, 0xb4, 0x02, 0xb4, 0x05, 0xb6, 0x05, 0xb5, 0x05,
   0x95, 0x05, 0x95, 0x04, 0x01, 0x04, 0x02, 0x02, 0x02, 0x32, 0x02, 0x4e,
   0x04, 0x30, 0x04, 0x0c, 0x04, 0x02 };
