/* XPM */
static char * movehand_xpm[] = {
"15 15 3 1",
" 	c None",
".	c #000000",
"+	c #FFFFFF",
"      .        ",
"   . .+.       ",
"  .+..+. .     ",
"  .+..+..+.    ",
" ..+..+..+.    ",
".+.+..+..+.    ",
".+.+.++..+.    ",
".+.+.++.++.    ",
".+++++++++     ",
" .+++++++.     ",
" .+++++++.  .. ",
" .+++++++...++.",
"  .+++++++++.. ",
"  .+++++++..   ",
"  .++++++.     "};
