/* Created with The GIMP */
#define movehand_mask_width 15
#define movehand_mask_height 15
#define movehand_mask_x_hot 7
#define movehand_mask_y_hot 7
static unsigned char movehand_mask_bits[] = {
   0x40, 0x00, 0xe8, 0x00, 0xfc, 0x02, 0xfc, 0x07, 0xfe, 0x07, 0xff, 0x07,
   0xff, 0x07, 0xff, 0x07, 0xff, 0x07, 0xfe, 0x03, 0xfe, 0x33, 0xfe, 0x7f,
   0xfc, 0x3f, 0xfc, 0x0f, 0xfc, 0x03 };
