/* XPM */
static char *museum[] = {
/* columns rows colors chars-per-pixel */
"12 13 2 1",
"  c black",
". c None",
/* pixels */
".....  .....",
"...  ..  ...",
".   ....   .",
"            ",
".  ..  ..  .",
".  ..  ..  .",
".  ..  ..  .",
".  ..  ..  .",
".  ..  ..  .",
".  ..  ..  .",
".  ..  ..  .",
".  ..  ..  .",
"            "
};
