/* XPM */
static char *newlayer[] = {
/* columns rows colors chars-per-pixel */
"15 15 5 1",
"  c blue",
". c #00B200",
"X c red",
"o c gray100",
"O c None",
/* pixels */
"OOOOOOOOOOOOOOO",
"OOOOOOOOOOOOOOO",
"OOOOOOOOOOOOOOO",
"OOO            ",
"OO            O",
"O            OO",
"            ...",
"OO............O",
"O............OO",
"............XXX",
"OOXXXXXXXXXXXXO",
"OXXXXXXXXXXXXOO",
"XXXXXXXXXXXXOOO",
"OOOOOOOOOOOOOOO",
"OOOOOOOOOOOOOOO"
};
