/* XPM */
static char *notrailer[] = {
/* columns rows colors chars-per-pixel */
"16 16 69 1",
"  c black",
". c #070707",
"X c gray6",
"o c #3E0000",
"O c gray19",
"+ c #373737",
"@ c #440606",
"# c #490000",
"$ c #501212",
"% c #723434",
"& c gray25",
"* c gray26",
"= c #444444",
"- c #505050",
"; c gray36",
": c gray37",
"> c #726F6F",
", c gray46",
"< c #803737",
"1 c #843B3B",
"2 c #C70000",
"3 c #C80101",
"4 c #CA0000",
"5 c #CB0101",
"6 c #CA0303",
"7 c #CC0000",
"8 c #CC0101",
"9 c #CD0101",
"0 c #CD0202",
"q c #CD0303",
"w c #CD0606",
"e c #CE0A0A",
"r c #CF0E0E",
"t c #D32525",
"y c #D53E3E",
"u c #914848",
"i c #DA4E4E",
"p c #DC4F4F",
"a c #D25353",
"s c #CA6161",
"d c #CF6767",
"f c #CA6A6A",
"g c #CF6D6D",
"h c #CF6E6E",
"j c #CA7B7B",
"k c #E37171",
"l c #E37272",
"z c #898989",
"x c #8D8D8D",
"c c #909090",
"v c #929292",
"b c gray58",
"n c #979797",
"m c #BC8282",
"M c #BB8888",
"N c #BA8E8E",
"B c #A0A0A0",
"V c #C38585",
"C c #EC9F9F",
"Z c #EDA5A5",
"A c #EFB1B1",
"S c #CBCBCB",
"D c #CDCDCD",
"F c #FDF7F7",
"G c #FBFBFB",
"H c gray99",
"J c #FDFDFD",
"K c gray100",
"L c None",
/* pixels */
"LLLLLVgaagVLLLLL",
"LLLNy777777ymLLL",
"LLjr7tkZZkt78sLL",
"LNr8lFKKKKC97eNL",
"Ly7lKKKGbu56i7yL",
"V7tFKKDO#42o>t7V",
"h7kKKB.#42o *k7h",
"a7ZKx #43@  =Z7a",
"a7ZKc156%v:;zZ7a",
"h7dn<56$ X,+nk7h",
"V7tCqwA- &KKFt7V",
"Ly79wAKJSHKKl7yL",
"LM07pFKKKKFl8rNL",
"LLfe7tkZZkt7rjLL",
"LLLNy777777yNLLL",
"LLLLLVgaagVLLLLL"
};
