/* XPM */
static char *noname[] = {
/* width height ncolors chars_per_pixel */
"15 15 2 1",
/* colors */
"` c #FF0000",
"a s mask c none",
/* pixels */
"``aa``aa`````aa",
"a````aaa``aaaaa",
"aa``aaaa````a`a",
"a````aaaaaaaaaa",
"``aa``aa``````a",
"aaaaaaaaaaaaaaa",
"aa``aaaaaaaaaaa",
"a``a`aaa`````aa",
"``aa``aa````aaa",
"a`a``aaaaaaaaa`",
"aa``aaaa````a``",
"aaaaaaaaaaaaaaa",
"aaaaaaaaaaaaaaa",
"a````aaaa``````",
"aaa``aaaaaaaaaa"
};
