/* XPM */
static char *noname[] = {
/* width height ncolors chars_per_pixel */
"15 15 10 1",
/* colors */
"` c #000000",
"a c #999999",
"b c #00FFFF",
"c c #00FF00",
"d c #007F00",
"e c #7F0000",
"f c #FF0000",
"g c #FFFFFF",
"h c #FFFF00",
"i c #0000FF",
/* pixels */
"b`f`bgbbgbbgbgb",
"g`f`gbgbbggggbb",
"`eff`ggggbbgbgb",
"`eef`bgg```bgbb",
"`aaa`gg`ddd`bgb",
"`a`a`b`dicdd`bg",
"`a`a```idddd`gb",
"`aaaef`diddd```",
"`aaa`f`iddcd`ff",
"`aaa```didd````",
"`aaa``a`di``hgh",
"`aaa`aaa``ghg``",
"`a`a``aa``hgh``",
"`a`a`aaa``ddddd",
"ddddddddddddddd"
};
