/* XPM */
static char * pflaume_xpm[] = {
"16 16 4 1",
" 	c None",
".	c #E6FAFA",
"+	c #000000",
"@	c #DDA0DD",
"                ",
"    +++++       ",
"    +@@@+++     ",
"   ++@@@@@++    ",
"   +@@@@@@@+    ",
"   +@@@@@@@@+   ",
"   +@@@@@@@@++  ",
"   +@@@@@@@@@+  ",
"   +@@@@@@@@@+  ",
"   +@@@@@@@@@+  ",
"   ++@@@@@@@@+  ",
"    +@@@@@@@++  ",
"    ++@@@@@@+   ",
"     ++++@@++   ",
"       ++++     ",
"                "};
