/* XPM */
static char *printer_narrow[] = {
/* columns rows colors chars-per-pixel */
"16 16 6 1",
"  c black",
". c red",
"X c #808080",
"o c #B2C0DC",
"O c gray100",
"+ c None",
/* pixels */
"ooooo      ooooo",
"ooooo OOOO ooooo",
"ooooo O XO ooooo",
"ooooo OOOO ooooo",
"ooooo O XO ooooo",
"ooooo OOOO ooooo",
"ooooo O XO ooooo",
"ooooo OOOO ooooo",
"                ",
" OOOOOOOOOOOOOO ",
" O..+++++++++++ ",
" O+++++++++++++ ",
" O+++++++++++++ ",
"                ",
"o XXXXXXXXXXXX o",
"o              o"
};
