#define ptr_width 16
#define ptr_height 16
#define ptr_x_hot 3
#define ptr_y_hot 1
static unsigned char ptr_bits[] = {
   0x00, 0x00, 0x08, 0x00, 0x18, 0x00, 0x38, 0x00, 0x78, 0x00, 0xf8, 0x00,
   0xf8, 0x01, 0xf8, 0x03, 0xf8, 0x07, 0xf8, 0x00, 0xd8, 0x00, 0x88, 0x01,
   0x80, 0x01, 0x00, 0x03, 0x00, 0x03, 0x00, 0x00};
