/* XPM */
static char *rampe[] = {
/* columns rows colors chars-per-pixel */
"24 24 29 1",
"  c #221E1F",
". c #231F1F",
"X c #24201F",
"o c #2B261E",
"O c #2D281D",
"+ c #332D1D",
"@ c #3F391B",
"# c #4A4219",
"$ c #4E4619",
"% c #534B18",
"& c #544C18",
"* c #706514",
"= c #746914",
"- c #96880F",
"; c #8D8010",
": c #AF9F0C",
"> c #B4A30B",
", c #CDB907",
"< c #CDBA07",
"1 c #D2BE07",
"2 c #D6C206",
"3 c #D7C306",
"4 c #E1CC04",
"5 c #EAD303",
"6 c #EDD703",
"7 c #F0DA02",
"8 c #F6DF01",
"9 c #FDE600",
"0 c #FFE700",
/* pixels */
"000000000000000090000000",
"08,,,,,,,,,,,,,,<<<<<<90",
"02O%%%%%%%%%%%%%&&&&&o30",
"02&000000000000000909#40",
"02&000000000000000000#40",
"02&000000000000000000$40",
"02&000000000000000000#40",
"02&000000000000000000#40",
"02&000000000000000000#40",
"02&000000000000000000#40",
"02&000000000000090005@30",
"02&00000000000009<;$X 40",
"02&00000000006:*+   XX40",
"02&0000000,;%...    XX40",
"02&0007>=+   ...    XX30",
"02&2-&X...   ...      30",
"02..                  20",
"02..                  30",
"02..                XX40",
"02..                XX40",
"02..    ...  ...  XXX 20",
"02..    ...  ...  XX. 30",
"082222222222222233333300",
"000000000000000000000000"
};
