/* XPM */
static char *noname[] = {
/* width height ncolors chars_per_pixel */
"15 15 3 1",
/* colors */
"` c #FA1340",
"a c #FFFFFF",
"b c #D9D9D9",
/* pixels */
"b`````````````b",
"`aaaaaaaaaaaaa`",
"`aaaaaaaaaaaaa`",
"`aa```aaa```aa`",
"`aa`aa`aa`aa`a`",
"`aa`aa`aa`aa`a`",
"`aa`aa`aa`aa`a`",
"`a````aa````aa`",
"`a`a`aaa`aa`aa`",
"`a`aa`aa`aa`aa`",
"`a`aaa`a`aa`aa`",
"`a`aaa`````aaa`",
"`aaaaaaaaaaaaa`",
"`aaaaaaaaaaaaa`",
"b`````````````b"
};
