/* XPM */
static char *noname[] = {
/* width height ncolors chars_per_pixel */
"15 15 4 1",
/* colors */
"` c #000000",
"a c #FA1340",
"b c #3BFA34",
"c c #FFFFFF",
/* pixels */
"cccccccc`cccccc",
"cccccccc``ccccc",
"cac````````ccbc",
"aaa`````````bbb",
"cac````````ccbc",
"cccccccc``ccccc",
"cccccccc`cccccc",
"ccccccccccccccc",
"cccccc`cccccccc",
"ccccc``cccccccc",
"cbcc````````cac",
"bbb`````````aaa",
"cbcc````````cac",
"ccccc``cccccccc",
"cccccc`cccccccc"
};
