/* XPM */
static char * salesman_xpm[] = {
"15 15 4 1",
" 	c None",
".	c #FFFFFF",
"+	c #FF0000",
"@	c #5151FB",
".............++",
"..........@@+++",
"...++...@@...++",
"..++++@@.....@.",
"...++........@.",
"....@.......@..",
"....@.......@..",
"...@.......@...",
"...@.......@...",
"...@......@....",
"..@.......@....",
"..@......++....",
".++...@@++++...",
"++++@@...++....",
".++............"};
