/* XPM */
static char *sbahn_klein[] = {
/* columns rows colors chars-per-pixel */
"10 10 14 1",
"  c #008000",
". c #1C8E1C",
"X c #399C39",
"o c #55AA55",
"O c #80BF80",
"+ c #8DC58D",
"@ c #99CB99",
"# c #A3D1A3",
"$ c #BBDDBB",
"% c #C6E3C6",
"& c #CCE5CC",
"* c #D1E7D1",
"= c gray100",
"- c None",
/* pixels */
"--      --",
"-  @$$+  -",
"  #*  X+  ",
"  =&   X  ",
"  &===o.  ",
"  .o===%  ",
"  X   &=  ",
"  @X  &@  ",
"-  @$$O  -",
"--      --"
};
