/* XPM */
static char *sbahn_mini[] = {
/* columns rows colors chars-per-pixel */
"5 5 6 1",
"  c opaque",
". c #008000",
"X c #76b876",
"o c #89c289",
"O c white",
"+ c None",
/* pixels */
"+.OX+",
".O...",
".oOo.",
"...O.",
"+XO.+"
};
