/* XPM */
static char *sbahn[] = {
/* columns rows colors chars-per-pixel */
"15 15 4 1",
"  c opaque",
". c #008000",
"X c white",
"o c None",
/* pixels */
"oooo.......oooo",
"oo...........oo",
"o....XXXXX....o",
"o...XX....X...o",
"...XX......X...",
"...XXX.........",
"...XXXXXX......",
"....XXXXXXX....",
"......XXXXXX...",
".........XXX...",
"...X......XX...",
"o...X....XX...o",
"o....XXXXX....o",
"oo...........oo",
"oooo.......oooo"
};
