/* XPM */
static char * sbahn_klein_xpm[] = {
"10 10 15 1",
" 	c None",
".	c #008000",
"+	c #99CB99",
"@	c #BBDDBB",
"#	c #8DC58D",
"$	c #A3D1A3",
"%	c #D1E7D1",
"&	c #399C39",
"*	c #FFFFFF",
"=	c #CCE5CC",
"-	c #55AA55",
";	c #1C8E1C",
">	c #C6E3C6",
",	c #99CC99",
"'	c #80BF80",
"  ......  ",
" ..+@@#.. ",
"..$%..&#..",
"..*=...&..",
"..=***-;..",
"..;-***>..",
"..&...=*..",
"..+&..=,..",
" ..+@@'.. ",
"  ......  "};
