/* XPM */
static char *search_pref[] = {
/* columns rows colors chars-per-pixel */
"15 15 81 1",
"  c #141436",
". c #14143E",
"X c #202020",
"o c gray16",
"O c gray17",
"+ c #2F2F2F",
"@ c gray21",
"# c #373737",
"$ c #3C3C3C",
"% c #3F3F3F",
"& c gray25",
"* c gray26",
"= c gray28",
"- c #4B4B4B",
"; c #4C4C4C",
": c #4E4E4E",
"> c #515151",
", c #535353",
"< c #5B5B5B",
"1 c gray36",
"2 c #5F5F5F",
"3 c gray38",
"4 c gray40",
"5 c #6A6A6A",
"6 c gray42",
"7 c gray43",
"8 c #767676",
"9 c #777777",
"0 c #7C7C7C",
"q c gray49",
"w c #7E7E7E",
"e c #5151FB",
"r c red",
"t c #FA1340",
"y c gray53",
"u c gray54",
"i c gray56",
"p c #929292",
"a c #939393",
"s c #959595",
"d c gray59",
"f c gray60",
"g c #9B9B9B",
"h c gray61",
"j c #9D9D9D",
"k c gray64",
"l c gray65",
"z c gray66",
"x c #AAAAAA",
"c c gray67",
"v c #ACACAC",
"b c #AEAEAE",
"n c gray70",
"m c #B4B4B4",
"M c gray71",
"N c #B6B6B6",
"B c #BBBBBB",
"V c gray75",
"C c #A2A2E6",
"Z c gray78",
"A c #C8C8C8",
"S c #CACACA",
"D c #CDCDCD",
"F c #CECECE",
"G c gray81",
"H c gray82",
"J c gray83",
"K c #D7D7D7",
"L c #D8D8D8",
"P c gray85",
"I c gray86",
"U c gainsboro",
"Y c #DDDDDD",
"T c #DFDFDF",
"R c #E2E2E2",
"E c gray91",
"W c #EAEAEA",
"Q c gray92",
"! c #EEEEEE",
"~ c gray95",
"^ c gray100",
/* pixels */
"^^^^^^^^^^^^^r^",
"^^^^^^^^^^^errr",
"^^^^^^^^^ee^rrr",
"^^^^^^^ee^^^^rr",
"^^^^^.XO@;B!^^^",
"^^^^eC>hsx37^^^",
"^^^ *LY+qsS@~^^",
"^^^*W6<L-gLN*^^",
"^^eOFWVsvJTZ34L",
"^^e>NsRLHKKGni;",
"^e^6qFpuppbTJSn",
"re^Wx<=8SxhsNWL",
"rr^^^~!s&%qbkyZ",
"rrt^^^^^^^B80hl",
"rrt^^^^^^^^^B0$"
};
