/* XPM */
static char *noname[] = {
/* width height ncolors chars_per_pixel */
"15 15 7 1",
/* colors */
"` c #000000",
"a c #F0CACA",
"b c #FA1340",
"c c #CBC5C6",
"d c #FF0000",
"e c #5151FB",
"f c #FFFFFF",
/* pixels */
"fffffffffffffdf",
"ffffffffffeeddd",
"fffffffeeefdddd",
"fffffeefffffddd",
"ffffeffffffffff",
"ffffefffaffffff",
"fffefffabafffff",
"fffeffabbbaffff",
"ffeffffabbaffff",
"ffefffffabbafff",
"feffffffc``cfff",
"defffffffc``cff",
"ddfffffffc``cff",
"ddbfffffffc``cf",
"ddbfffffffc``cf"
};
