/* XPM */
static char * search_pref_xpm[] = {
"15 15 6 1",
" 	c None",
".	c #FFFFFF",
"+	c #FF0000",
"@	c #000000",
"#	c #5151FB",
"$	c #FA1340",
".............+.",
"......@@@@@@+++",
".....@@@@@@@@++",
".....@@@...@@@+",
"....@@@.....@@.",
"....#@@.....@@.",
"...#.......@@..",
"...#......@@@..",
"..#......@@@...",
"..#......@@....",
".#.......@@....",
"+#.............",
"++.......@@....",
"++$.....@@@@...",
"++$......@@...."};
