/* XPM */
static char * srtbike_xpm[] = {
"32 32 4 1",
" 	c None",
".	c #000000",
"+	c #8899FF",
"@	c #0077CC",
"                     +++        ",
"                    +@@@+       ",
"                   +@@++        ",
"                  +@@+          ",
"                 +@@+           ",
"                +@@+     +      ",
"               +@@+     +@+     ",
"              +@@+     +@@+     ",
"             +@@+      +@@+     ",
"            +@@@   ++  +@@+     ",
"            @@@@  +@@+ +@@+     ",
"            .+@@+  +@@@@@@@@@@  ",
"            ..+@@+ +@@@@@@@@@@+ ",
"            ..+@@+ +@@++@@++++  ",
"        ....   +@@++@@++@@+     ",
"           .    @@++@@++@@+     ",
"          .     @@++@@++@@+     ",
"          .    +@@++@@++@@+     ",
"     .....    +@@+ +@@++@@+     ",
"   ..    .   +@@+  +@@++@@+..   ",
"  .       . +@@+   +@@++@@+  .  ",
" .      . ++@@+     ++.+@@+   . ",
" .      .+@@@+      .  +@@+   . ",
".      .+@@@+      .   +@@+    .",
".      +@@++.      .   +@@+    .",
".      ++   .      .    ++     .",
".           .      .           .",
" .         .       .          . ",
" .         .        .         . ",
"  .        .        .        .  ",
"   ..    ..          ..    ..   ",
"     ....              ....     "};
