/* XPM */
static char *srtbike_mini[] = {
/* width height num_colors chars_per_pixel */
"    16    14        3            1",
/* colors */
". s mask c none",
"# c #0077cc",
"a c #000000",
/* pixels */
"........###.....",
".......##.......",
"......##....#...",
".....##.##..##..",
".....a##.######.",
"......##.##.##..",
"...a.a.####.##..",
".aa.aa##.##a##..",
"a...a##..##.##a.",
"a..a##a..#.a##.a",
"a..##aaaaaaa##.a",
"a.....a..a....a.",
".aa.aa....aa.aa.",
"..aaa......aaa.."
};
