/* Created with The GIMP */
#define srtbike16_mask_width 16
#define srtbike16_mask_height 16
static unsigned char srtbike16_mask_bits[] = {
   0x00, 0x1c, 0x00, 0x06, 0x00, 0x23, 0x00, 0x31, 0xc0, 0x35, 0xc0, 0xfd,
   0x60, 0x3f, 0x20, 0x3f, 0x3c, 0x37, 0xd2, 0x7d, 0xd1, 0xb4, 0x71, 0xb4,
   0x51, 0x84, 0x41, 0x84, 0x22, 0x48, 0x1c, 0x30 };
