/* XPM */
static char * srtbike16_xpm[] = {
"16 16 5 1",
" 	c None",
".	c #000000",
"+	c #8899FF",
"@	c #0077CC",
"#	c #FFFFFF",
"##########+@@###",
"#########+@#####",
"########+@###+##",
"########@###++##",
"######+@+#@#++##",
"######.+@#+@@@@+",
"#####..#@+++++##",
"#####.##++++++##",
"##....##@++#++##",
"#.##.#.@+#+.++.#",
".###.#@@##.#++#.",
".###@@+###.#++#.",
".###+#.###.####.",
".#####.###.####.",
"#.###.#####.##.#",
"##...#######..##"};
