/* XPM */
static char *srtbike[] = {
/* width height num_colors chars_per_pixel */
"    41    39        4            1",
/* colors */
". c #000000",
"# c #8899ff",
"a c #0077cc",
"b s mask c none",
/* pixels */
"bbbbbbbbbbbbbbbbbbbbbbbbbbb####bbbbbbbbbb",
"bbbbbbbbbbbbbbbbbbbbbbbbbb#aaaa#bbbbbbbbb",
"bbbbbbbbbbbbbbbbbbbbbbbbb#aaaaaa#bbbbbbbb",
"bbbbbbbbbbbbbbbbbbbbbbbb#aaa####bbbbbbbbb",
"bbbbbbbbbbbbbbbbbbbbbbb#aaa#bbbbbbbbbbbbb",
"bbbbbbbbbbbbbbbbbbbbbb#aaa#bbbbbbbbbbbbbb",
"bbbbbbbbbbbbbbbbbbbbb#aaa#bbbbbb#bbbbbbbb",
"bbbbbbbbbbbbbbbbbbbb#aaa#bbbbbb#a#bbbbbbb",
"bbbbbbbbbbbbbbbbbbb#aaa#bbbbbb#aa#bbbbbbb",
"bbbbbbbbbbbbbbbbbb#aaa#bbbbbbb#aa#bbbbbbb",
"bbbbbbbbbbbbbbbbb#aaa#bbbbbbbb#aa#bbbbbbb",
"bbbbbbbbbbbbbbbb#aaa#bbb#a#bbb#aa#bbbbbbb",
"bbbbbbbbbbbbbbb#aaaa#bbbaaa#bb#aa#bbbbbbb",
"bbbbbbbbbbbbbbb###aa#bbb#aaa###aa#####bbb",
"bbbbbbbbbbbbbbb..#aaa#bbb#aaaaaaaaaaaa#bb",
"bbbbbbbbbbbbbbb...#aaa#bb#aaaaaaaaaaaaa#b",
"bbbbbbbbbbbbbbb...#aaa#bb#aa###aa######bb",
"bbbbbbbbbb......bbb#aaa#b#aa#b#aa#bbbbbbb",
"bbbbbbbbbbbbbb.bbbbb#aa#b#aa#b#aa#bbbbbbb",
"bbbbbbbbbbbbbb.bbbbb#aa#b#aa#b#aa#bbbbbbb",
"bbbbbbbbbbbbb.bbbbbb#aa#b#aa#b#aa#bbbbbbb",
"bbbbbbbbbbbbb.bbbbb#aaa#b#aa#b#aa#bbbbbbb",
"bbbbbb.....b.bbbbb#aaa#b.#aa#b#aa#.bbbbbb",
"bbbb..bbbbb..bbbb#aaa#bbb#aa#.#aa#b..bbbb",
"bbb.bbbbbbb.b.bb#aaa#bbbb#aa#b#aa#bbb.bbb",
"bb.bbbbbbbb.bb.#aaa#bbbbb####b#aa#bbbb.bb",
"b.bbbbbbbb.bb##aaa#bbbbbb.bb.b#aa#bbbbb.b",
"b.bbbbbbbb.b#aaaa#bbbbbbb.bbb.#aa#bbbbb.b",
".bbbbbbbb.##aaaa#bbbbbbb.bbbbb#aa#bbbbbb.",
".bbbbbbbb#aaaa##.bbbbbbb.bbbbb#aa#bbbbbb.",
".bbbbbbb.#aa##................####bbbbbb.",
".bbbbbbbb###bbbb.bbbbbbb.bbbbbbbbbbbbbbb.",
".bbbbbbbbbbbbbbb.bbbbbbb.bbbbbbbbbbbbbbb.",
"b.bbbbbbbbbbbbb.bbbbbbbbb.bbbbbbbbbbbbb.b",
"b.bbbbbbbbbbbbb.bbbbbbbbb.bbbbbbbbbbbbb.b",
"bb.bbbbbbbbbbb.bbbbbbbbbbb.bbbbbbbbbbb.bb",
"bbb.bbbbbbbbb.bbbbbbbbbbbbb.bbbbbbbbb.bbb",
"bbbb..bbbbb..bbbbbbbbbbbbbbb..bbbbb..bbbb",
"bbbbbb.....bbbbbbbbbbbbbbbbbbb.....bbbbbb"
};
