/* XPM */
static char *noname[] = {
/* width height ncolors chars_per_pixel */
"19 56 2 1",
/* colors */
"` c #000",
"a c #FFF",
/* pixels */
"aaaaa``aaaaaaaaaa``",
"aaaaa``aaaaaaaaaa``",
"a``````````````````",
"a``````````````````",
"a`````````````````a",
"aaaaa``aaaaaaaaaaaa",
"aaaaa``aaaaaaaaaaaa",
"aaaaaaaaaaaaaaaaaaa",
"aaaaaaaaaaaaaaaaaaa",
"aaaaa```aaaaaaaaaaa",
"aaaaa```aaaaaaaaaaa",
"aaaaa```aaaaaaaaaaa",
"aaaaaa```aaaaaaaaaa",
"aaaaa``````````````",
"aaaaa``````````````",
"aaaaa``````````````",
"aaaaaaaaaaaaaaaaaaa",
"aaaaaaaaaaaaaaaaaaa",
"aaaaaaaaaaaaaaaaaaa",
"aaaaaaaaaaaaaaaaa``",
"aaaaaaa````````````",
"aaaaaa`````````````",
"aaaaa`````````````a",
"aaaaa```aa``aaa```a",
"aaaaa``aaa``aaaa```",
"aaaaa``aaa```aaaa``",
"aaaaa``aaaa``aaaa``",
"aaaaa````aa```aa```",
"aaaaaa```aa````````",
"aaaaaaa``aaa``````a",
"aaaaaaaaaaaaa````aa",
"aaaaaaaaaaaaaaaaaaa",
"aaaaaaaaaaaaaaaaaaa",
"aaaaa``aaaaaaaaaa``",
"aaaaa``aaaaaaaaaa``",
"a``````````````````",
"a``````````````````",
"a`````````````````a",
"aaaaa``aaaaaaaaaaaa",
"aaaaa``aaaaaaaaaaaa",
"aaaaaaaaaaaaaaaaaaa",
"aaaaaaaaaaaaaaaaaaa",
"aaaaaaaaaaa`````aaa",
"aa```aaaaa```````aa",
"a````aaaa`````````a",
"a````aaaa```aaa```a",
"```aaaaa```aaaaa```",
"```aaaaa```aaaaa```",
"``aaaaaa``aaaaaaa``",
"``aaaaaa``aaaaaaa``",
"``aaaaa```aaaaaaa``",
"```aaaa``aaaaaaa```",
"a```aa```aaaaaaa```",
"a````````aaaa`````a",
"aa``````aaaaa`````a",
"aaa````aaaaaa````aa"
};
