/* XPM */
static char *star[] = {
/* columns rows colors chars-per-pixel */
"13 13 2 1",
"  c black",
". s mask c none",
/* pixels */
"...... ......",
"...... ......",
"...... ......",
".....   .....",
".....   .....",
"             ",
"..         ..",
"...       ...",
"....     ....",
"...       ...",
"...   .   ...",
"..   ...   ..",
"..  .....  .."
};
