/* XPM */
static char * steigung_xpm[] = {
"16 16 4 1",
" 	c None",
".	c #FF0000",
"+	c #FFFFFF",
"@	c #000000",
"        .       ",
"       ...      ",
"      ..+..     ",
"      .+++.     ",
"     ..+++..    ",
"    ..+++++..   ",
"    .+++++++.   ",
"   ..+++++++..  ",
"   .++++++@@@.  ",
"  .+++++@@@@@.  ",
" ..+++@@@@@@@.. ",
" .++@@@@@@@@@@. ",
"..+@@@@@@@@@@@..",
".@@@@@@@@@@@@@@.",
" .............. ",
"  ............  "};
