/* XPM */
static char *steigung[] = {
/* columns rows colors chars-per-pixel */
"16 16 55 1",
"  c black",
". c #010101",
"X c #090909",
"o c gray8",
"O c #1B1B1B",
"+ c #322E2E",
"@ c gray20",
"# c gray34",
"$ c gray49",
"% c #BE3E3E",
"& c #CC0000",
"* c #CC0101",
"= c #CC0202",
"- c #CC0303",
"; c #CC0D0D",
": c #CE0C0C",
"> c #CE0D0D",
", c #CE0E0E",
"< c #CF1212",
"1 c #C52020",
"2 c #CA2020",
"3 c #CC2121",
"4 c #D22020",
"5 c #D22222",
"6 c #D43636",
"7 c #D53D3D",
"8 c #D83E3E",
"9 c #8C5353",
"0 c #AD4D4D",
"q c #D34646",
"w c #D55151",
"e c #D35757",
"r c #C56A6A",
"t c #D06666",
"y c #C67272",
"u c #C87777",
"i c #CD7575",
"p c #E06464",
"a c #BC8686",
"s c #B18C8C",
"d c #A19F9F",
"f c #B89B9B",
"g c #C38686",
"h c #E68585",
"j c #E78A8A",
"k c #EEABAB",
"l c gray77",
"z c #F5CECE",
"x c #E1E1E1",
"c c #FAE8E8",
"v c gray96",
"b c #FDF7F7",
"n c #FEFEFE",
"m c gray100",
"M c None",
/* pixels */
"MMMMMMMMMMMMMMMM",
"MMMMMMMMMMMMMMMM",
"MMMMMMMyyMMMMMMM",
"MMMMMMM<<MMMMMMM",
"MMMMMMe,,eMMMMMM",
"MMMMMa&hh&aMMMMM",
"MMMMM74bb47MMMMM",
"MMMMu&kmmk&uMMMM",
"MMMM48mmmm84MMMM",
"MMMt&zmmmmf&tMMM",
"MMs,pmmml@ 0,sMM",
"MMw,cmx#   +,wMM",
"Mg&jv$X     9=gM",
"M64dO       o16M",
"i&3%%%%%%%7%0<=i",
"rqqqqqqqqqqqqqqr"
};
