#define noname_width 8
#define noname_height 8
static char noname_bits[] = {
 0x03,0x03,0x00,0x00,0x30,0x30,0x00,0x00};
