/* XPM */
static char *strassenbahn[] = {
/* columns rows colors chars-per-pixel */
"25 12 2 1",
"  c black",
". c None",
/* pixels */
".........................",
".........................",
".........................",
".........................",
".                       .",
"..... ...................",
".........................",
" .... ... .... ... ..... ",
"   ..              ...   ",
"   ..              ...   ",
"... . .  .......  . . ...",
"... . .  .......  . . ..."
};
