/* XPM */
static char *strassenbahn_klein[] = {
/* columns rows colors chars-per-pixel */
"13 6 2 1",
"  c black",
". c None",
/* pixels */
".............",
".............",
".............",
".............",
"  .       .  ",
"............."
};
