/* XPM */
static char *noname[] = {
/* width height ncolors chars_per_pixel */
"15 15 5 1",
/* colors */
"` c #000000",
"a c #7F7F7F",
"b c #00FFFF",
"c c #FFFFFF",
"d c #FFFF00",
/* pixels */
"bbccbcbbccbcbcc",
"ccbccbcbbccbcbc",
"cbccbcbcccbcbcb",
"cbcbcbcbbccbbcc",
"ccbcccbcbcccccc",
"cbcccbcbcbcbcbc",
"aaaaac`c`caaaaa",
"aaaad``a``daaaa",
"aaac``ac```caaa",
"aad``a`c`a``daa",
"aac`a`a`a`a``ca",
"ac``a`a``a`a``d",
"d``a`a`c``a````",
"````a`cc````a``",
"`````acc`aa````"
};
