/* XPM */
static char *noname[] = {
/* width height ncolors chars_per_pixel */
"15 15 2 1",
/* colors */
"` c #000",
"a c #FFF",
/* pixels */
"aaaaaaaaaaaaaaa",
"aaaaaaaaaaaaaaa",
"a``a``a``aa```a",
"a``a`````a````a",
"aaaaaaaaaaaaaaa",
"a`aa`a```a``a`a",
"a``a`````a````a",
"aaaaaaaaaaaaaaa",
"a``a```a`a````a",
"a``a`````a````a",
"aaaaaaaaaaaaaaa",
"a``aa````a`a``a",
"a``a`````a````a",
"aaaaaaaaaaaaaaa",
"aaaaaaaaaaaaaaa"
};
