/* XPM */
static char *synagogue[] = {
/* columns rows colors chars-per-pixel */
"12 13 6 1",
"  c black",
". c #010101",
"X c #020202",
"o c gray5",
"O c #111111",
"+ c None",
/* pixels */
"+++++  +++++",
"++++    ++++",
"+++  o  ++++",
"            ",
"     ++     ",
"+   ++++   +",
"+   +++++  +",
"+   ++++   +",
"     ++     ",
"            ",
"+++  O  ++++",
"++++    ++++",
"+++++  +++++"
};
