/* XPM */
static char *theater[] = {
/* columns rows colors chars-per-pixel */
"18 14 77 1",
"  c black",
". c #010101",
"X c gray1",
"o c #040404",
"O c gray2",
"+ c gray3",
"@ c #0E0E0E",
"# c #101010",
"$ c #161616",
"% c #181818",
"& c #1B1B1B",
"* c #1E1E1E",
"= c gray13",
"- c #232323",
"; c #272727",
": c #323232",
"> c #373737",
", c #393939",
"< c gray24",
"1 c #3E3E3E",
"2 c gray25",
"3 c gray26",
"4 c gray30",
"5 c #4E4E4E",
"6 c gray33",
"7 c #565656",
"8 c #5D5D5D",
"9 c #676767",
"0 c #686868",
"q c gray43",
"w c #6F6F6F",
"e c gray44",
"r c #717171",
"t c #727272",
"y c gray45",
"u c gray46",
"i c #7E7E7E",
"p c gray50",
"a c #808080",
"s c #848484",
"d c gray53",
"f c #8D8D8D",
"g c gray56",
"h c #909090",
"j c gray58",
"k c gray60",
"l c #9A9A9A",
"z c gray61",
"x c gray64",
"c c #BBBBBB",
"v c gray75",
"b c #C0C0C0",
"n c #C8C8C8",
"m c gray79",
"M c gray82",
"N c #D2D2D2",
"B c gray83",
"V c #D5D5D5",
"C c gainsboro",
"Z c #E1E1E1",
"A c #E4E4E4",
"S c #EAEAEA",
"D c #ECECEC",
"F c #EEEEEE",
"G c #EFEFEF",
"H c #F3F3F3",
"J c #F6F6F6",
"K c gray97",
"L c #F8F8F8",
"P c #F9F9F9",
"I c gray98",
"U c #FBFBFB",
"Y c gray99",
"T c #FDFDFD",
"R c #FEFEFE",
"E c gray100",
"W c None",
/* pixels */
"WWWWWWW9tWWWWWWWWW",
"WWWqNGEEElWWWWWWWW",
"W2bEEEEEEVXXXXXWWW",
"dKEEEEEEPP%XXXXXXX",
"xEEEEEES>c>XXXXXXX",
"9EPPEEEtsK4XXXXXXX",
"Wnt*8ZECEEf2X@4-XX",
"W0GGKPEEEE6XXX6Z-W",
"WWiEEEEPlH%XXXX:XW",
"WWWfKfs<$vXO@XXXXW",
"WWWWixOXqt<GPtXXWW",
"WWWWW6nNN%ljjCXWWW",
"WWWWWWWWWWXXX-XWWW",
"WWWWWWWWWWWXXWWWWW"
};
