#define thunder_cursor_width 16
#define thunder_cursor_height 16
#define thunder_cursor_x_hot 7
#define thunder_cursor_y_hot 10
static unsigned char thunder_cursor_bits[] = {
   0x00, 0x03, 0x80, 0x03, 0x80, 0x01, 0xc0, 0x00, 0xc0, 0x1c, 0x60, 0x0f,
   0xe0, 0x0d, 0x10, 0x06, 0x00, 0x03, 0x00, 0x01, 0x80, 0x00, 0x08, 0x10,
   0x30, 0x0c, 0xc6, 0x63, 0x0c, 0x30, 0xf0, 0x0f};
