/* XPM */
static char *touristinfo[] = {
/* columns rows colors chars-per-pixel */
"13 13 256 2",
"   c gray100",
".  c #FFFFCC",
"X  c #FFFF99",
"o  c #FFFF66",
"O  c #FFFF33",
"+  c yellow",
"@  c #FFCCFF",
"#  c #FFCCCC",
"$  c #FFCC99",
"%  c #FFCC66",
"&  c #FFCC33",
"*  c #FFCC00",
"=  c #FF99FF",
"-  c #FF99CC",
";  c #FF9999",
":  c #FF9966",
">  c #FF9933",
",  c #FF9900",
"<  c #FF66FF",
"1  c #FF66CC",
"2  c #FF6699",
"3  c #FF6666",
"4  c #FF6633",
"5  c #FF6600",
"6  c #FF33FF",
"7  c #FF33CC",
"8  c #FF3399",
"9  c #FF3366",
"0  c #FF3333",
"q  c #FF3300",
"w  c magenta",
"e  c #FF00CC",
"r  c #FF0099",
"t  c #FF0066",
"y  c #FF0033",
"u  c red",
"i  c #CCFFFF",
"p  c #CCFFCC",
"a  c #CCFF99",
"s  c #CCFF66",
"d  c #CCFF33",
"f  c #CCFF00",
"g  c #CCCCFF",
"h  c gray80",
"j  c #CCCC99",
"k  c #CCCC66",
"l  c #CCCC33",
"z  c #CCCC00",
"x  c #CC99FF",
"c  c #CC99CC",
"v  c #CC9999",
"b  c #CC9966",
"n  c #CC9933",
"m  c #CC9900",
"M  c #CC66FF",
"N  c #CC66CC",
"B  c #CC6699",
"V  c #CC6666",
"C  c #CC6633",
"Z  c #CC6600",
"A  c #CC33FF",
"S  c #CC33CC",
"D  c #CC3399",
"F  c #CC3366",
"G  c #CC3333",
"H  c #CC3300",
"J  c #CC00FF",
"K  c #CC00CC",
"L  c #CC0099",
"P  c #CC0066",
"I  c #CC0033",
"U  c #CC0000",
"Y  c #99FFFF",
"T  c #99FFCC",
"R  c #99FF99",
"E  c #99FF66",
"W  c #99FF33",
"Q  c #99FF00",
"!  c #99CCFF",
"~  c #99CCCC",
"^  c #99CC99",
"/  c #99CC66",
"(  c #99CC33",
")  c #99CC00",
"_  c #9999FF",
"`  c #9999CC",
"'  c gray60",
"]  c #999966",
"[  c #999933",
"{  c #999900",
"}  c #9966FF",
"|  c #9966CC",
" . c #996699",
".. c #996666",
"X. c #996633",
"o. c #996600",
"O. c #9933FF",
"+. c #9933CC",
"@. c #993399",
"#. c #993366",
"$. c #993333",
"%. c #993300",
"&. c #9900FF",
"*. c #9900CC",
"=. c #990099",
"-. c #990066",
";. c #990033",
":. c #990000",
">. c #66FFFF",
",. c #66FFCC",
"<. c #66FF99",
"1. c #66FF66",
"2. c #66FF33",
"3. c #66FF00",
"4. c #66CCFF",
"5. c #66CCCC",
"6. c #66CC99",
"7. c #66CC66",
"8. c #66CC33",
"9. c #66CC00",
"0. c #6699FF",
"q. c #6699CC",
"w. c #669999",
"e. c #669966",
"r. c #669933",
"t. c #669900",
"y. c #6666FF",
"u. c #6666CC",
"i. c #666699",
"p. c gray40",
"a. c #666633",
"s. c #666600",
"d. c #6633FF",
"f. c #6633CC",
"g. c #663399",
"h. c #663366",
"j. c #663333",
"k. c #663300",
"l. c #6600FF",
"z. c #6600CC",
"x. c #660099",
"c. c #660066",
"v. c #660033",
"b. c #660000",
"n. c #33FFFF",
"m. c #33FFCC",
"M. c #33FF99",
"N. c #33FF66",
"B. c #33FF33",
"V. c #33FF00",
"C. c #33CCFF",
"Z. c #33CCCC",
"A. c #33CC99",
"S. c #33CC66",
"D. c #33CC33",
"F. c #33CC00",
"G. c #3399FF",
"H. c #3399CC",
"J. c #339999",
"K. c #339966",
"L. c #339933",
"P. c #339900",
"I. c #3366FF",
"U. c #3366CC",
"Y. c #336699",
"T. c #336666",
"R. c #336633",
"E. c #336600",
"W. c #3333FF",
"Q. c #3333CC",
"!. c #333399",
"~. c #333366",
"^. c gray20",
"/. c #333300",
"(. c #3300FF",
"). c #3300CC",
"_. c #330099",
"`. c #330066",
"'. c #330033",
"]. c #330000",
"[. c cyan",
"{. c #00FFCC",
"}. c #00FF99",
"|. c #00FF66",
" X c #00FF33",
".X c green",
"XX c #00CCFF",
"oX c #00CCCC",
"OX c #00CC99",
"+X c #00CC66",
"@X c #00CC33",
"#X c #00CC00",
"$X c #0099FF",
"%X c #0099CC",
"&X c #009999",
"*X c #009966",
"=X c #009933",
"-X c #009900",
";X c #0066FF",
":X c #0066CC",
">X c #006699",
",X c #006666",
"<X c #006633",
"1X c #006600",
"2X c #0033FF",
"3X c #0033CC",
"4X c #003399",
"5X c #003366",
"6X c #003333",
"7X c #003300",
"8X c blue",
"9X c #0000CC",
"0X c #000099",
"qX c #000066",
"wX c #000033",
"eX c black",
"rX c #FAFCFC",
"tX c #FCFDFD",
"yX c #F0F7F5",
"uX c #DBEBE6",
"iX c #44967A",
"pX c #46977B",
"aX c #47987C",
"sX c #48987D",
"dX c #49997D",
"fX c #4A9A7E",
"gX c #529E84",
"hX c #539E85",
"jX c #56A087",
"kX c #5BA38A",
"lX c #5AA289",
"zX c #5CA48B",
"xX c #62A78F",
"cX c #66A992",
"vX c #6BAC96",
"bX c #70AF99",
"nX c #71AF9A",
"mX c #74B19C",
"MX c #75B29D",
"NX c #86BBA9",
"BX c #85BAA8",
"VX c #8ABDAC",
"CX c #ACD0C4",
"ZX c #C5DFD6",
"AX c #45977A",
"SX c #4C9B7F",
"DX c #6CAD96",
"FX c #7FB7A3",
"GX c #A7CEC0",
"HX c #B9D8CD",
"JX c #FDFDFD",
"KX c black",
"LX c black",
"PX c black",
"IX c black",
"UX c black",
/* pixels */
"eXeXeXeXeXeXeXeXeXeXeXeXeX",
"eXsXaXaXlXyX  yXkXaXAXdXeX",
"eXdXdXAXBX      NXdXpXsXeX",
"eXsXAXAXxXJX    MXsXAXdXeX",
"eXsXaXsXfXMXVXvXdXAXsXsXeX",
"eXsXsXhXuXHXGXCXzXaXaXsXeX",
"eXsXpXSXZX      mXdXdXsXeX",
"eXsXsXaXjXtX    nXaXdXsXeX",
"eXaXsXiXhX      bXpXaXsXeX",
"eXsXsXsXgXtX    DXdXAXsXeX",
"eXsXsXsXcXrX    FXsXpXdXeX",
"eXsXaXjXJX        bXAXsXeX",
"eXeXeXeXeXeXeXeXeXeXeXeXeX"
};
