/* XPM */
static char * ubahn_mini_xpm[] = {
"5 5 4 1",
" 	c None",
".	c #000080",
"+	c #FFFFFF",
"@	c #9B9BCD",
".....",
".+.+.",
".+.+.",
".@+@.",
"....."};
