/* XPM */
static char * ubahn_klein_xpm[] = {
"10 10 3 1",
" 	c None",
".	c #000080",
"+	c #FFFFFF",
"..........",
"..+....+..",
"..+....+..",
"..+....+..",
"..+....+..",
"..+....+..",
"..+....+..",
"...+..+...",
"...++++...",
".........."};
