/* XPM */
static char *ubahn[] = {
/* columns rows colors chars-per-pixel */
"15 15 2 1",
"  c navy",
". c gray100",
/* pixels */
"               ",
"               ",
"   ..     ..   ",
"   ..     ..   ",
"   ..     ..   ",
"   ..     ..   ",
"   ..     ..   ",
"   ..     ..   ",
"   ..     ..   ",
"   ..     ..   ",
"   ..     ..   ",
"    ..   ..    ",
"     .....     ",
"               ",
"               "
};
