/* XPM */
static char * usercross_xpm[] = {
"16 13 4 1",
". 	c None",
"	c #D9D9D9",
"+	c #000000",
"@	c #FF0000",
"............++..",
"............++..",
"..@.......++++++",
".@@@...@@.++++++",
"@@@@@.@@@@..++..",
".@@@@@@@@@..++..",
"..@@@@@@@.......",
"...@@@@@........",
"..@@@@@@@.......",
".@@@@@@@@@......",
"@@@@@.@@@@......",
".@@@...@@.......",
"..@............."};
