/* XPM */
static char *noname[] = {
/* width height ncolors chars_per_pixel */
"19 37 2 1",
/* colors */
"` c #000",
"a c #FFF",
/* pixels */
"aaaaaaaaaaaaaaaaa``",
"aaaaaaa````````````",
"aaaaaa`````````````",
"aaaaa`````````````a",
"aaaaa```aa``aaa```a",
"aaaaa``aaa``aaaa```",
"aaaaa``aaa```aaaa``",
"aaaaa``aaaa``aaaa``",
"aaaaa````aa```aa```",
"aaaaaa```aa````````",
"aaaaaaa``aaa``````a",
"aaaaaaaaaaaaa````aa",
"aaaaaaaaaaaaaaaaaaa",
"aaaaaaaaaaaaaaaaaaa",
"aaaaaaaaaaaaaaaaaaa",
"```aa``````````````",
"```aa``````````````",
"```aa``````````````",
"aaaaaaaaaaaaaaaaaaa",
"aaaaaaaaaaaaaaaaaaa",
"aaaaaaaaaaaaaaaaaaa",
"```aaaaaaaaaaaaaaaa",
"`````aaaaaaaaaaaaaa",
"````````aaaaaaaaaaa",
"aa`````````aaaaaaaa",
"aaaa``````````aaaaa",
"aaaaaaa`````````aaa",
"aaaaaaaaaa`````````",
"aaaaaaaaaaaaaa`````",
"aaaaaaaaaaaaaa`````",
"aaaaaaaaaa`````````",
"aaaaaaa`````````aaa",
"aaaa``````````aaaaa",
"aa`````````aaaaaaaa",
"````````aaaaaaaaaaa",
"`````aaaaaaaaaaaaaa",
"```aaaaaaaaaaaaaaaa"
};
