/* XPM */
static char *noname[] = {
/* width height ncolors chars_per_pixel */
"15 15 3 1",
/* colors */
"` c #000000",
"a s mask c none",
"b c #FFFFFF",
/* pixels */
"aaaaaaaaaaaaaaa",
"aaaa````aaaaaaa",
"aaa`aaaa`aaaaaa",
"aa`aabaaa`aaaaa",
"aa`abaaaa`aaaaa",
"aa`aaaaaa`aaaaa",
"aa`aaaaaa`aaaaa",
"aaa`aaaa``aaaaa",
"aaaa```````aaaa",
"aaaaaaaaa```aaa",
"aaa`aaaaaa```aa",
"aaa`aaaaaaa```a",
"a`````aaaaaa``a",
"aaa`aaaaaaaaaaa",
"aaa`aaaaaaaaaaa"
};
