/* XPM */
static char *vorfahrt[] = {
/* columns rows colors chars-per-pixel */
"15 15 37 1",
"  c #423B28",
". c #473F2A",
"X c #71602F",
"o c #726231",
"O c #736231",
"+ c gray36",
"@ c #5D5D5D",
"# c gray37",
"$ c #5F5F5F",
"% c #606060",
"& c gray38",
"* c #626262",
"= c gray39",
"- c #646464",
"; c #656565",
": c gray40",
"> c #FBC932",
", c #FDCA33",
"< c #FFCC33",
"1 c #848484",
"2 c gray52",
"3 c #868686",
"4 c gray53",
"5 c #888888",
"6 c gray54",
"7 c #8B8B8B",
"8 c gray55",
"9 c #8D8D8D",
"0 c #8E8E8E",
"q c #C9C8C5",
"w c #CAC9C6",
"e c #CCCBC8",
"r c #CDCCC9",
"t c #F9F9F9",
"y c gray98",
"u c gray100",
"i c None",
/* pixels */
"iiiiii++$iiiiii",
"iiiii$7u1$iiiii",
"iiii$9utu1%iiii",
"iii$9uq qu4$iii",
"ii%9uwX>Xwu4%ii",
"i%9uwo,<,oeu7%i",
";9uro,<<<,oru4%",
"%ut.><<<<<>.tu$",
";7ueo,<<<,oru4;",
"i;7ueo,<,oeu7;i",
"ii%7uwX>Xwu4;ii",
"iii;7uw qu4;iii",
"iiii%9utu4;iiii",
"iiiii%9u4%iiiii",
"iiiiii;;%iiiiii"
};
