/* XPM */
static char *vorfahrt_klein[] = {
/* columns rows colors chars-per-pixel */
"7 7 5 1",
"  c opaque",
". c yellow",
"X c #ffff1d",
"o c white",
"O c None",
/* pixels */
"OOOoOOO",
"OOoXoOO",
"OoX.XoO",
"oX...Xo",
"OoX.XoO",
"OOoXoOO",
"OOOoOOO"
};
