/* XPM */
static char * vorfahrt_xpm[] = {
"15 15 4 1",
" 	c None",
".	c #000000",
"+	c #FFFFFF",
"@	c #FFFF00",
"       .       ",
"      .+.      ",
"     .+++.     ",
"    .++.++.    ",
"   .++.@.++.   ",
"  .++.@@@.++.  ",
" .++.@@@@@.++. ",
".++.@@@@@@@.++.",
" .++.@@@@@.++. ",
"  .++.@@@.++.  ",
"   .++.@.++.   ",
"    .++.++.    ",
"     .+++.     ",
"      .+.      ",
"       .       "};
