/* XPM */
static char *vorfahrt_klein[] = {
/* columns rows colors chars-per-pixel */
"7 7 6 1",
"  c black",
". c yellow",
"X c #FFFF1C",
"o c #FFFF1F",
"O c gray100",
"+ c None",
/* pixels */
"+++O+++",
"++OoO++",
"+Oo.oO+",
"Oo...oO",
"+Oo.XO+",
"++OoO++",
"+++O+++"
};
