/* XPM */
static char *noname[] = {
/* width height ncolors chars_per_pixel */
"15 15 2 1",
/* colors */
"` c #3F3FFF",
"a c #FFFFFF",
/* pixels */
"aaaaaaaaaaaaaaa",
"aaaaaaaaaaaaaaa",
"aaa```aaaaaaaaa",
"a```````aaaaa``",
"``````````aa```",
"```aaaa````````",
"`aaaaaaa``````a",
"aaaa``aaaa``aaa",
"a``````aaaaaaa`",
"````````aaaaa``",
"```aaa````a````",
"``aaaaa````````",
"`aaaaaaa`````aa",
"aaaaaaaaaaaaaaa",
"aaaaaaaaaaaaaaa"
};
