#define watch_ptr_width 27
#define watch_ptr_height 16
#define watch_ptr_x_hot 3
#define watch_ptr_y_hot 1
static char watch_ptr_bits[] = {
 0x00,0x00,0x00,0x00,0x08,0x00,0x00,0x00,0x18,0x00,0x00,0x00,0x38,0x00,0x00,
 0x00,0x78,0x00,0xe0,0x03,0xf8,0x00,0x00,0x02,0xf8,0x01,0x0f,0x01,0xf8,0x03,
 0x88,0x00,0xf8,0x77,0x44,0x00,0xf8,0x40,0x22,0x00,0xd8,0x20,0xe1,0x03,0x88,
 0x11,0x0f,0x00,0x80,0x71,0x00,0x00,0x00,0x03,0x00,0x00,0x00,0x03,0x00,0x00,
 0x00,0x00,0x00,0x00};
