#define watch_ptr_mask_width 27
#define watch_ptr_mask_height 16
static unsigned char watch_ptr_mask_bits[] = {
  0x08, 0x00, 0x00, 0x00, 0x1c, 0x00, 0x00, 0x00, 0x3c, 0x00, 0x00, 0x00,
  0x7c, 0x00, 0xe0, 0x03, 0xfc, 0x00, 0xf0, 0x07, 0xfc, 0x01, 0xef, 0x07,
  0xfc, 0x83, 0x9f, 0x03, 0xfc, 0x77, 0xdf, 0x01, 0xfc, 0xff, 0xee, 0x00,
  0xfc, 0xf7, 0xf7, 0x03, 0xfc, 0xf1, 0xff, 0x07, 0xdc, 0xfb, 0xff, 0x03,
  0xc8, 0xfb, 0x0f, 0x00, 0x80, 0x77, 0x00, 0x00, 0x80, 0x07, 0x00, 0x00,
  0x00, 0x03, 0x00, 0x00, };
