/* XPM */
static char * windrose_xpm[] = {
"22 22 5 1",
" 	c None",
".	c #000000",
"+	c #484848",
"@	c #5C5C5C",
"#	c #4F4F4F",
"          .+          ",
"          ..          ",
"         @..@         ",
"         ....         ",
"        +....+        ",
"        ......        ",
"          ..          ",
"          ..          ",
"    +.    ..    .+    ",
"  #...    ..    ...+  ",
"+....................@",
"......................",
"  @...    ..    ...@  ",
"    @.    ..    .+    ",
"          ..          ",
"          ..          ",
"        ......        ",
"        +....@        ",
"         ....         ",
"         +..@         ",
"          ..          ",
"          .+          "};
