/* XPM */
static char *noname[] = {
/* width height ncolors chars_per_pixel */
"22 22 2 1",
/* colors */
"` c #000",
"a s mask c none",
/* pixels */
"aaaaaaaaaa``aaaaaaaaaa",
"aaaaaaaaaa``aaaaaaaaaa",
"aaaaaaaaa````aaaaaaaaa",
"aaaaaaaaa````aaaaaaaaa",
"aaaaaaaa``````aaaaaaaa",
"aaaaaaaa``````aaaaaaaa",
"aaaaaaaaaa``aaaaaaaaaa",
"aaaaaaaaaa``aaaaaaaaaa",
"aaaa``aaaa``aaaa``aaaa",
"aa````aaaa``aaaa````aa",
"``````````````````````",
"``````````````````````",
"aa````aaaa``aaaa````aa",
"aaaa``aaaa``aaaa``aaaa",
"aaaaaaaaaa``aaaaaaaaaa",
"aaaaaaaaaa``aaaaaaaaaa",
"aaaaaaaa``````aaaaaaaa",
"aaaaaaaa``````aaaaaaaa",
"aaaaaaaaa````aaaaaaaaa",
"aaaaaaaaa````aaaaaaaaa",
"aaaaaaaaaa``aaaaaaaaaa",
"aaaaaaaaaa``aaaaaaaaaa"
};
