/* XPM */
static char *noname[] = {
/* width height ncolors chars_per_pixel */
"50 50 3 1",
/* colors */
"` c #000000",
"a c #B2B2B2",
"b s mask c none",
/* pixels */
"bbbbbbbbbbbbbbbbbbbbbbbbbbbbbbbbbbbbbbbbbbbbbbbbbb",
"bbbbbbbbbbbbbbbbbbbbbbbb`bbbbbbbbbbbbbbbbbbbbbbbbb",
"bbbbbbbbbbbbbbbbbbbbbbbb`bbbbbbbbbbbbbbbbbbbbbbbbb",
"bbbbbbbbbbbbbbbbbbbbbbb```bbbbbbbbbbbbbbbbbbbbbbbb",
"bbbbbbbbbbbbbbbbbbbbbbb```bbbbbbbbbbbbbbbbbbbbbbbb",
"bbbbbbbbbbbbbbbbbbbbbbb```bbbbbbbbbbbbbbbbbbbbbbbb",
"bbbbbbbbbbbbbbbbbbbbbbb```bbbbbbbbbbbbbbbbbbbbbbbb",
"bbbbbbbbbbbbbbbbbbbbbb```a`bbbbbbbbbbbbbbbbbbbbbbb",
"bbbbbbbbbbbbbbbbbbbbbb```a`bbbbbbbbbbbbbbbbbbbbbbb",
"bbbbbbbbbbbbbbbbbbbbbb```a`bbbbbbbbbbbbbbbbbbbbbbb",
"bbbbbbbbbbbbbbbbbbbbbb```a`bbbbbbbbbbbbbbbbbbbbbbb",
"bbbbbbbbbbbbbbbbbbbbb````aa`bbbbbbbbbbbbbbbbbbbbbb",
"bbbbbbbbbbbbbbbbbbbbb````aa`bbbbbbbbbbbbbbbbbbbbbb",
"bbbbbbbbbbbbb````bbbb````aa`bbbb````bbbbbbbbbbbbbb",
"bbbbbbbbbbbbb``aa````````aa`````````bbbbbbbbbbbbbb",
"bbbbbbbbbbbbb```aaaa`````aaa``````a`bbbbbbbbbbbbbb",
"bbbbbbbbbbbbb````aaa`````aaa`````aa`bbbbbbbbbbbbbb",
"bbbbbbbbbbbbbb````aa`````aaa````aa`bbbbbbbbbbbbbbb",
"bbbbbbbbbbbbbb```````````aaaa``aaa`bbbbbbbbbbbbbbb",
"bbbbbbbbbbbbbb```````````aaaa`aaaa`bbbbbbbbbbbbbbb",
"bbbbbbbbbbbbbb```````````aaaa```aa`bbbbbbbbbbbbbbb",
"bbbbbbbbbbbbbb```aaa`````aaa```````bbbbbbbbbbbbbbb",
"bbbbbbbbbb````aaaaaaa````aa````````````bbbbbbbbbbb",
"bbbbbb````aaaaaaaaaaaa```a`````````````````bbbbbbb",
"bb````aaaaaaaaaaaaaaaaa````````````````````````bbb",
"`````````````````````````````````````````````````b",
"bb````````````````````````aaaaaaaaaaaaaaaaa````bbb",
"bbbbbb`````````````````a```aaaaaaaaaaaa````bbbbbbb",
"bbbbbbbbbb````````````aa````aaaaaaa````bbbbbbbbbbb",
"bbbbbbbbbbbbbb```````aaa`````aaa```bbbbbbbbbbbbbbb",
"bbbbbbbbbbbbbb`aa```aaaa```````````bbbbbbbbbbbbbbb",
"bbbbbbbbbbbbbb`aaaa`aaaa```````````bbbbbbbbbbbbbbb",
"bbbbbbbbbbbbbb`aaa``aaaa```````````bbbbbbbbbbbbbbb",
"bbbbbbbbbbbbbb`aa````aaa`````aa````bbbbbbbbbbbbbbb",
"bbbbbbbbbbbbb`aa`````aaa`````aaa````bbbbbbbbbbbbbb",
"bbbbbbbbbbbbb`a``````aaa`````aaaa```bbbbbbbbbbbbbb",
"bbbbbbbbbbbbb`````````aa````````aa``bbbbbbbbbbbbbb",
"bbbbbbbbbbbbb````bbbb`aa````bbbb````bbbbbbbbbbbbbb",
"bbbbbbbbbbbbbbbbbbbbb`aa````bbbbbbbbbbbbbbbbbbbbbb",
"bbbbbbbbbbbbbbbbbbbbb`aa````bbbbbbbbbbbbbbbbbbbbbb",
"bbbbbbbbbbbbbbbbbbbbbb`a```bbbbbbbbbbbbbbbbbbbbbbb",
"bbbbbbbbbbbbbbbbbbbbbb`a```bbbbbbbbbbbbbbbbbbbbbbb",
"bbbbbbbbbbbbbbbbbbbbbb`a```bbbbbbbbbbbbbbbbbbbbbbb",
"bbbbbbbbbbbbbbbbbbbbbb`a```bbbbbbbbbbbbbbbbbbbbbbb",
"bbbbbbbbbbbbbbbbbbbbbbb```bbbbbbbbbbbbbbbbbbbbbbbb",
"bbbbbbbbbbbbbbbbbbbbbbb```bbbbbbbbbbbbbbbbbbbbbbbb",
"bbbbbbbbbbbbbbbbbbbbbbb```bbbbbbbbbbbbbbbbbbbbbbbb",
"bbbbbbbbbbbbbbbbbbbbbbb```bbbbbbbbbbbbbbbbbbbbbbbb",
"bbbbbbbbbbbbbbbbbbbbbbbb`bbbbbbbbbbbbbbbbbbbbbbbbb",
"bbbbbbbbbbbbbbbbbbbbbbbbbbbbbbbbbbbbbbbbbbbbbbbbbb"
};
