/* XPM */
static char *noname[] = {
/* width height ncolors chars_per_pixel */
"19 41 2 1",
/* colors */
"` c #000",
"a c #FFF",
/* pixels */
"```````````````````",
"```````````````````",
"```````````````````",
"aaaaaaaaaaaaaaaaaaa",
"aaaaaaaaaaaaaaaaaaa",
"aaaaaaaaaaaaaaaaaaa",
"aaaaaaaaa````aa``aa",
"aaaaaaa``````aa```a",
"aaaaaa```````aa```a",
"aaaaaa```aa``aaa```",
"aaaaa```aaa``aaaa``",
"aaaaa``aaaa``aaaa``",
"aaaaa``aaaa``aaaa``",
"aaaaa```aaa``aaa```",
"aaaaaa```aa``aa```a",
"aaaaaa````````````a",
"aaaaaaa``````````aa",
"aaaaaaaaa``````aaaa",
"aaaaaaaaaaaaaaaaaaa",
"aaaaaaaaaaaaaaaaaaa",
"aaaaaaaaaaaaaaaaaaa",
"```aa``````````````",
"```aa``````````````",
"```aa``````````````",
"aaaaaaaaaaaaaaaaaaa",
"aaaaaaaaaaaaaaaaaaa",
"aaaaaaaaaaaaaaaaaaa",
"```aaaaaaaaaaaaaa``",
"````aaaaaaaaaaaaa``",
"`````aaaaaaaaaaaa``",
"```````aaaaaaaaaa``",
"``a`````aaaaaaaaa``",
"``aa``````aaaaaaa``",
"``aaa``````aaaaaa``",
"``aaaaa``````aaaa``",
"``aaaaaa``````aaa``",
"``aaaaaaaa``````a``",
"``aaaaaaaaa````````",
"``aaaaaaaaaaa``````",
"``aaaaaaaaaaaaa````",
"``aaaaaaaaaaaaaa```"
};
