/* XPM */
static char *zugbruecke[] = {
/* columns rows colors chars-per-pixel */
"16 14 20 1",
"  c black",
". c #101010",
"X c #4B4B4B",
"o c #5F4A4A",
"O c #5A5A5A",
"+ c red",
"@ c #FF0808",
"# c #FF1010",
"$ c #FF3131",
"% c gray55",
"& c gray71",
"* c #FF9C9C",
"= c #FFADAD",
"- c #C6C6C6",
"; c #CECECE",
": c #FFC6C6",
"> c #FFD6D6",
", c #EFEFEF",
"< c gray100",
"1 c None",
/* pixels */
"1111111;11111111",
"1111111++1111111",
"111111=++=111111",
"111111+@$+111111",
"11111@+<<+@11111",
"1111&+*<<>+&1111",
"1111++<<<<++1111",
"111:+<<X <<+:111",
"111+@< O<<<#+111",
"11$+..<<<<..+$11",
"1-+o  <<<<  o+&1",
"1++   %<<%   ++1",
"-++++++++++++++,",
":++++++++++++++:"
};
