/* XPM */
static char *zugbruecke_klein[] = {
/* columns rows colors chars-per-pixel */
"11 10 41 1",
"  c #020202",
". c #6D0000",
"X c #760000",
"o c #582525",
"O c #4C4C4C",
"+ c #764848",
"@ c #764A4A",
"# c #DC0505",
"$ c #DC0606",
"% c red",
"& c #F61717",
"* c #FF1C1C",
"= c #FF2222",
"- c #EC3131",
"; c #EA3838",
": c #EF3D3D",
"> c #FF3939",
", c #C05252",
"< c #FF5E5E",
"1 c #E36060",
"2 c #FF6868",
"3 c #FF6969",
"4 c #FF6F6F",
"5 c #E47272",
"6 c #F77474",
"7 c #FF7575",
"8 c gray59",
"9 c #ACACAC",
"0 c #F48888",
"q c #FC9090",
"w c #FF9090",
"e c #FF9191",
"r c #FF9292",
"t c gray83",
"y c gainsboro",
"u c #DDDDDD",
"i c #FFCCCC",
"p c #FFD7D7",
"a c #EEEEEE",
"s c gray100",
"d c None",
/* pixels */
"ddddd5ddddd",
"dddd7%7dddd",
"dddd*>=dddd",
"ddd-<s4-ddd",
"ddd&isp&ddd",
"dd2w9Oue3dd",
"dd#+8ua@#dd",
"d:o tst o;d",
"1%X.,e,.X%6",
"0%%%%%%%%%e"
};
