/* XPM */
static char *zugbruecke_klein[] = {
/* columns rows colors chars-per-pixel */
"11 10 38 1",
"  c #000000",
". c #582525",
"X c #6d0000",
"o c #760000",
"O c #4c4c4c",
"+ c #764949",
"@ c #dc0505",
"# c red",
"$ c #ff0808",
"% c #f61717",
"& c #ff1c1c",
"* c #eb3232",
"= c #ec3a3a",
"- c #ff2222",
"; c #ff3131",
": c #ff3939",
"> c #c05252",
", c #ff5e5e",
"< c #e36060",
"1 c #e47272",
"2 c #ff6a6a",
"3 c #f77474",
"4 c #ff7575",
"5 c gray59",
"6 c #acacac",
"7 c gray71",
"8 c #c19797",
"9 c #dc9393",
"0 c #cfa5a5",
"q c #f48888",
"w c #fe9090",
"e c gray83",
"r c #dcdcdc",
"t c #ffcccc",
"y c #ffd7d7",
"u c #eeeeee",
"i c white",
"p c None",
/* pixels */
"pppp91#pppp",
"pppp4#4pppp",
"ppp$&:-$ppp",
"pp7*,i2*7pp",
"pp*%tiy%*pp",
"pp2w6Orw2pp",
"p;@+5ru+@;p",
"0=. eie .=8",
"<#oX>w>Xo#3",
"q#########w"
};
