#define context_help_mask_width 19
#define context_help_mask_height 22
static unsigned char context_help_mask_bits[] = {
  0x03, 0x00, 0x00, 0x07, 0x00, 0x00, 0x0f, 0x00, 0x00, 0x1f, 0x00, 0x00,
  0x3f, 0x00, 0x00, 0x7f, 0x00, 0x00, 0xff, 0x00, 0x00, 0xff, 0xf9, 0x00,
  0xff, 0xff, 0x01, 0xff, 0xff, 0x03, 0x7f, 0xff, 0x07, 0xf7, 0x8f, 0x07,
  0xf3, 0x86, 0x07, 0xe1, 0xf1, 0x03, 0xe0, 0xf9, 0x01, 0xc0, 0x78, 0x00,
  0x00, 0x78, 0x00, 0x00, 0x78, 0x00, 0x00, 0x78, 0x00, 0x00, 0x78, 0x00,
  0x00, 0x78, 0x00, 0x00, 0x78, 0x00, };
