#define grid090_width 4
#define grid090_height 1
static unsigned char grid090_bits[] = {
   0x03};
