#define grid135_width 5
#define grid135_height 5
static unsigned char grid135_bits[] = {
   0x03, 0x11, 0x18, 0x0c, 0x06};
